<svg width="565" height="345" viewBox="0 0 565 345" fill="none" xmlns="http://www.w3.org/2000/svg">
<g clip-path="url(#clip0_151_658)">
<g filter="url(#filter0_f_151_658)">
<path opacity="0.44" d="M198.881 322.077C288.52 322.077 361.188 257.319 361.188 177.436C361.188 97.5528 288.52 32.7947 198.881 32.7947C109.241 32.7947 36.5737 97.5528 36.5737 177.436C36.5737 257.319 109.241 322.077 198.881 322.077Z" fill="url(#paint0_radial_151_658)"/>
</g>
<g opacity="0.44" filter="url(#filter1_f_151_658)">
<path d="M355.096 58.2064C259.328 58.2064 181.692 117.419 181.692 190.461C181.692 263.503 259.328 322.716 355.096 322.716C450.865 322.716 528.5 263.504 528.5 190.461C528.501 117.419 450.865 58.2064 355.096 58.2064Z" fill="url(#paint1_linear_151_658)"/>
</g>
<g filter="url(#filter2_f_151_658)">
<path opacity="0.44" d="M291.695 260.834C376.976 260.834 446.109 207.439 446.109 141.572C446.109 75.7055 376.976 22.3099 291.695 22.3099C206.415 22.3099 137.282 75.7055 137.282 141.572C137.282 207.439 206.415 260.834 291.695 260.834Z" fill="url(#paint2_linear_151_658)"/>
</g>
<path d="M159.613 117.25C160.178 105.83 162.192 93.3282 170.885 85.876C178.799 79.0896 190.642 78.3633 200.497 81.7841C201.723 82.2096 202.922 82.6904 204.098 83.2196C211.712 78.9668 221.516 78.8786 229.888 81.7841C231.918 82.4897 233.878 83.3458 235.775 84.3247C243.594 79.0014 254.309 78.6434 263.354 81.7841C264.744 82.2666 266.1 82.8218 267.428 83.4375C275.094 78.972 285.085 78.8285 293.598 81.7841C303.454 85.2067 311.654 92.1729 318.986 99.5819C324.185 104.836 329.08 111.484 333.635 117.302L303.376 117.283L303.391 117.302L289.289 117.293C284.895 171.014 282.577 242.485 258.998 272.019L265.767 304.268H145.222L142.582 294.604C137.263 275.128 135.58 254.838 137.682 234.761C140.194 210.767 146.143 173.331 159.613 117.248V117.25Z" fill="#F1F9BD"/>
<path d="M159.613 117.25C160.178 105.83 162.192 93.3282 170.885 85.876C178.799 79.0896 190.642 78.3633 200.497 81.7841C201.723 82.2096 202.922 82.6904 204.098 83.2196C211.712 78.9668 221.516 78.8786 229.888 81.7841C231.918 82.4897 233.878 83.3458 235.775 84.3247C243.594 79.0014 254.309 78.6434 263.354 81.7841C264.744 82.2666 266.1 82.8218 267.428 83.4375C275.094 78.972 285.085 78.8285 293.598 81.7841C303.454 85.2067 311.654 92.1729 318.986 99.5819C324.185 104.836 329.08 111.484 333.635 117.302L303.376 117.283L303.391 117.302L289.289 117.293C284.895 171.014 282.577 242.485 258.998 272.019L265.767 304.268H145.222L142.582 294.604C137.263 275.128 135.58 254.838 137.682 234.761C140.194 210.767 146.143 173.331 159.613 117.248V117.25Z" stroke="#08112C" stroke-width="2" stroke-linecap="round" stroke-linejoin="round"/>
<path d="M258.998 272.021H215.155L264.008 295.89L258.998 272.021Z" fill="#08112C"/>
<path d="M220.993 142.056L221.306 143.557C222.764 150.551 228.942 155.563 236.102 155.563C245.149 155.563 252.167 147.687 251.111 138.723L248.681 117.25" stroke="#08112C" stroke-width="2" stroke-linecap="round" stroke-linejoin="round"/>
<path d="M331.733 168.039C331.733 175.942 328.521 183.096 323.333 188.275C318.142 193.453 310.969 196.656 303.048 196.656H285.241C289.396 189.028 291.753 180.285 291.753 170.993C291.753 159.198 287.952 148.287 281.506 139.416H303.048C318.891 139.416 331.733 152.23 331.733 168.037V168.039Z" fill="#F9F9F9"/>
<path d="M291.754 170.995C291.754 180.287 289.394 189.029 285.241 196.658C282.747 201.236 279.611 205.411 275.949 209.067C266.183 218.809 252.691 224.836 237.791 224.836H171.755C190.95 214.295 203.957 193.918 203.957 170.51C203.957 147.102 191.713 127.94 173.448 117.151H237.792C255.772 117.151 271.7 125.925 281.508 139.418C287.954 148.289 291.755 159.2 291.755 170.995H291.754Z" fill="#F9F9F9"/>
<path d="M331.733 168.039C331.733 175.942 328.521 183.096 323.333 188.275C318.142 193.453 310.969 196.656 303.048 196.656H285.241C289.396 189.028 291.753 180.285 291.753 170.993C291.753 159.198 287.952 148.287 281.506 139.416H303.048C318.891 139.416 331.733 152.23 331.733 168.037V168.039Z" stroke="#08112C" stroke-width="2" stroke-linecap="round" stroke-linejoin="round"/>
<path d="M291.754 170.995C291.754 180.287 289.394 189.029 285.241 196.658C282.747 201.236 279.611 205.411 275.949 209.067C266.183 218.809 252.691 224.836 237.791 224.836H171.755C190.95 214.295 203.957 193.918 203.957 170.51C203.957 147.102 191.713 127.94 173.448 117.151H237.792C255.772 117.151 271.7 125.925 281.508 139.418C287.954 148.289 291.755 159.2 291.755 170.995H291.754Z" stroke="#08112C" stroke-width="2" stroke-linecap="round" stroke-linejoin="round"/>
<path d="M284.484 110.258L316.752 143.891C320.013 147.289 324.696 148.941 329.373 148.34C340.724 146.884 346.226 133.701 339.265 124.635L330.91 113.796" stroke="#08112C" stroke-width="2" stroke-linecap="round" stroke-linejoin="round"/>
<path d="M453.447 168.039C453.447 175.942 450.235 183.096 445.047 188.275C439.855 193.453 432.683 196.656 424.761 196.656H406.955C411.109 189.028 413.467 180.285 413.467 170.993C413.467 159.198 409.666 148.287 403.219 139.416H424.761C440.604 139.416 453.447 152.23 453.447 168.037V168.039Z" fill="#F9F9F9"/>
<path d="M413.468 170.995C413.468 180.287 411.109 189.029 406.956 196.658C404.462 201.236 401.326 205.411 397.664 209.067C387.896 218.809 374.405 224.836 359.505 224.836H293.47C312.665 214.295 325.672 193.918 325.672 170.51C325.672 147.102 313.428 127.94 295.163 117.151H359.507C377.487 117.151 393.415 125.925 403.222 139.418C409.669 148.289 413.47 159.2 413.47 170.995H413.468Z" fill="#F9F9F9"/>
<path d="M453.447 168.039C453.447 175.942 450.235 183.096 445.047 188.275C439.855 193.453 432.683 196.656 424.761 196.656H406.955C411.109 189.028 413.467 180.285 413.467 170.993C413.467 159.198 409.666 148.287 403.219 139.416H424.761C440.604 139.416 453.447 152.23 453.447 168.037V168.039Z" stroke="#08112C" stroke-width="2" stroke-linecap="round" stroke-linejoin="round"/>
<path d="M413.468 170.995C413.468 180.287 411.109 189.029 406.956 196.658C404.462 201.236 401.326 205.411 397.664 209.067C387.896 218.809 374.405 224.836 359.505 224.836H293.47C312.665 214.295 325.672 193.918 325.672 170.51C325.672 147.102 313.428 127.94 295.163 117.151H359.507C377.487 117.151 393.415 125.925 403.222 139.418C409.669 148.289 413.47 159.2 413.47 170.995H413.468Z" stroke="#08112C" stroke-width="2" stroke-linecap="round" stroke-linejoin="round"/>
<path d="M182.151 100.343L191.163 143.557C192.621 150.551 198.799 155.563 205.959 155.563C215.005 155.563 222.024 147.687 220.968 138.723C219.514 120.493 218.013 102.415 213.503 94.1272L182.151 100.343Z" fill="#F1F9BD"/>
<path d="M204.098 83.2213C205.306 83.9252 206.086 84.9542 207.164 85.8777C215.855 93.33 217.869 105.83 218.436 117.252" stroke="#08112C" stroke-width="2" stroke-linecap="round" stroke-linejoin="round"/>
<path d="M235.775 84.3264C244.466 91.7786 248.115 105.83 248.68 117.25" stroke="#08112C" stroke-width="2" stroke-linecap="round" stroke-linejoin="round"/>
<path d="M235.643 84.1863C237.456 83.2645 239.326 82.4569 241.259 81.7858C251.115 78.3633 262.957 79.0914 270.872 85.8777C279.563 93.3299 281.577 105.83 282.144 117.252" stroke="#08112C" stroke-width="2" stroke-linecap="round" stroke-linejoin="round"/>
<path d="M182.151 100.343L191.163 143.557C192.621 150.551 198.799 155.563 205.959 155.563C215.005 155.563 222.024 147.687 220.968 138.723L218.437 117.25" stroke="#08112C" stroke-width="2" stroke-linecap="round" stroke-linejoin="round"/>
<path d="M220.993 142.056L221.306 143.557C222.764 150.551 228.942 155.563 236.102 155.563C245.149 155.563 252.167 147.687 251.111 138.723L248.681 117.25" stroke="#08112C" stroke-width="5" stroke-linecap="round" stroke-linejoin="round"/>
<path d="M173.449 117.152C164.191 111.68 153.385 108.541 141.846 108.541H116.374C82.0712 108.541 54.2646 136.285 54.2646 170.51C54.2646 204.736 82.0712 232.482 116.374 232.482H141.846C152.688 232.482 162.882 229.711 171.755 224.836C190.95 214.295 203.957 193.919 203.957 170.51C203.957 147.102 191.713 127.94 173.449 117.152Z" fill="#F9F9F9"/>
<path d="M178.486 170.51C178.486 200.382 157.306 225.315 129.111 231.176C124.999 232.031 120.739 232.482 116.374 232.482C82.0712 232.482 54.2646 204.738 54.2646 170.51C54.2646 136.283 82.0712 108.541 116.374 108.541C120.739 108.541 124.999 108.99 129.111 109.846C157.304 115.708 178.486 140.641 178.486 170.51V170.51Z" stroke="#08112C" stroke-width="2" stroke-linecap="round" stroke-linejoin="round"/>
<path d="M203.958 170.51C203.958 193.917 190.952 214.293 171.755 224.836C162.882 229.711 152.688 232.482 141.846 232.482H116.375C120.739 232.482 125 232.032 129.111 231.176C135.213 229.907 140.985 227.747 146.285 224.834C165.479 214.29 178.484 193.917 178.484 170.509C178.484 147.1 166.236 127.936 147.974 117.15C142.219 113.748 135.866 111.251 129.111 109.845C125 108.99 120.739 108.539 116.375 108.539H141.846C153.385 108.539 164.191 111.678 173.449 117.15C191.713 127.938 203.958 147.796 203.958 170.509V170.51Z" stroke="#08112C" stroke-width="2" stroke-linecap="round" stroke-linejoin="round"/>
<path d="M116.333 221.764C144.682 221.764 167.664 198.834 167.664 170.548C167.664 142.262 144.682 119.332 116.333 119.332C87.9829 119.332 65.001 142.262 65.001 170.548C65.001 198.834 87.9829 221.764 116.333 221.764Z" fill="#08112C"/>
<path d="M99.8172 156.516L101.826 144.441H104.385L102.73 154.411H107.919L107.564 156.516H99.8172Z" fill="#00D67C"/>
<path d="M113.324 156.692C112.398 156.692 111.632 156.496 111.025 156.103C110.419 155.706 109.991 155.156 109.743 154.452C109.499 153.744 109.454 152.921 109.607 151.982C109.757 151.054 110.068 150.242 110.541 149.547C111.014 148.851 111.614 148.31 112.343 147.925C113.072 147.536 113.893 147.342 114.807 147.342C115.729 147.342 116.493 147.54 117.1 147.937C117.707 148.33 118.134 148.88 118.382 149.588C118.631 150.295 118.678 151.119 118.524 152.058C118.371 152.982 118.055 153.792 117.579 154.487C117.102 155.183 116.501 155.725 115.776 156.115C115.052 156.5 114.234 156.692 113.324 156.692ZM113.572 154.747C113.998 154.747 114.374 154.627 114.701 154.387C115.032 154.143 115.306 153.813 115.522 153.397C115.743 152.976 115.897 152.5 115.983 151.97C116.07 151.447 116.076 150.983 116.001 150.578C115.926 150.17 115.769 149.847 115.528 149.611C115.292 149.376 114.967 149.258 114.553 149.258C114.128 149.258 113.75 149.38 113.419 149.623C113.088 149.863 112.814 150.193 112.597 150.614C112.381 151.034 112.229 151.512 112.142 152.046C112.06 152.565 112.054 153.029 112.125 153.438C112.195 153.843 112.351 154.163 112.591 154.399C112.832 154.631 113.159 154.747 113.572 154.747Z" fill="#00D67C"/>
<path d="M120.979 156.516L120.022 147.459H122.569L122.959 153.544H123.042L125.524 147.459H128.023L128.496 153.509H128.573L130.972 147.459H133.513L129.536 156.516H126.871L126.256 150.82H126.144L123.639 156.516H120.979Z" fill="#00D67C"/>
<path d="M110.16 168.406C110.128 168.119 110.061 167.865 109.959 167.645C109.86 167.421 109.724 167.232 109.551 167.079C109.378 166.922 109.167 166.802 108.919 166.719C108.671 166.637 108.383 166.595 108.056 166.595C107.438 166.595 106.858 166.749 106.319 167.055C105.783 167.362 105.326 167.808 104.948 168.394C104.57 168.975 104.312 169.687 104.174 170.528C104.032 171.369 104.032 172.085 104.174 172.674C104.319 173.264 104.593 173.714 104.995 174.024C105.401 174.331 105.923 174.484 106.561 174.484C107.14 174.484 107.66 174.382 108.121 174.178C108.582 173.969 108.958 173.676 109.25 173.299C109.545 172.922 109.734 172.476 109.817 171.961L110.325 172.037H107.211L107.53 170.115H112.594L112.334 171.636C112.165 172.698 111.793 173.61 111.217 174.372C110.642 175.135 109.925 175.72 109.067 176.129C108.212 176.538 107.274 176.742 106.254 176.742C105.119 176.742 104.164 176.493 103.388 175.993C102.616 175.49 102.066 174.777 101.739 173.853C101.416 172.926 101.359 171.825 101.568 170.552C101.729 169.573 102.017 168.7 102.431 167.934C102.848 167.163 103.358 166.511 103.961 165.976C104.564 165.442 105.231 165.035 105.964 164.756C106.701 164.477 107.467 164.337 108.263 164.337C108.948 164.337 109.569 164.438 110.124 164.638C110.684 164.835 111.162 165.114 111.56 165.475C111.962 165.837 112.265 166.267 112.47 166.766C112.679 167.262 112.776 167.808 112.76 168.406H110.16Z" fill="#00D67C"/>
<path d="M115.952 176.748C115.377 176.748 114.879 176.648 114.457 176.447C114.04 176.243 113.732 175.94 113.535 175.54C113.338 175.139 113.289 174.641 113.388 174.048C113.474 173.545 113.638 173.124 113.878 172.786C114.122 172.444 114.42 172.169 114.77 171.961C115.121 171.752 115.509 171.593 115.934 171.483C116.364 171.373 116.807 171.298 117.264 171.259C117.792 171.204 118.221 171.151 118.552 171.1C118.887 171.049 119.137 170.976 119.303 170.882C119.468 170.784 119.569 170.638 119.604 170.445V170.41C119.663 170.041 119.594 169.754 119.397 169.549C119.204 169.341 118.895 169.237 118.469 169.237C118.02 169.237 117.638 169.335 117.323 169.532C117.012 169.728 116.789 169.978 116.655 170.28L114.363 170.092C114.567 169.541 114.877 169.066 115.29 168.665C115.708 168.26 116.21 167.95 116.797 167.733C117.384 167.513 118.042 167.403 118.771 167.403C119.275 167.403 119.746 167.462 120.183 167.58C120.624 167.698 121.005 167.881 121.324 168.128C121.647 168.376 121.879 168.694 122.021 169.084C122.167 169.469 122.196 169.931 122.11 170.469L121.087 176.577H118.7L118.913 175.321H118.842C118.649 175.604 118.412 175.854 118.133 176.07C117.853 176.282 117.532 176.449 117.169 176.571C116.807 176.689 116.401 176.748 115.952 176.748ZM116.963 175.015C117.329 175.015 117.666 174.942 117.973 174.797C118.284 174.647 118.54 174.447 118.741 174.195C118.946 173.944 119.076 173.659 119.131 173.34L119.285 172.379C119.206 172.43 119.092 172.476 118.942 172.515C118.796 172.554 118.637 172.592 118.464 172.627C118.294 172.658 118.123 172.688 117.949 172.715C117.776 172.739 117.621 172.763 117.483 172.786C117.179 172.829 116.907 172.898 116.667 172.992C116.427 173.087 116.232 173.215 116.082 173.376C115.932 173.533 115.84 173.729 115.804 173.965C115.749 174.307 115.83 174.569 116.047 174.749C116.267 174.926 116.573 175.015 116.963 175.015Z" fill="#00D67C"/>
<path d="M131.662 170.104L129.375 170.245C129.363 170.045 129.308 169.866 129.209 169.709C129.115 169.547 128.975 169.42 128.79 169.325C128.609 169.231 128.38 169.184 128.104 169.184C127.691 169.184 127.322 169.278 126.999 169.467C126.676 169.655 126.493 169.897 126.45 170.192C126.414 170.381 126.464 170.54 126.598 170.67C126.731 170.799 127.001 170.909 127.407 171L129.003 171.33C129.854 171.511 130.468 171.811 130.846 172.232C131.228 172.653 131.364 173.203 131.254 173.883C131.155 174.461 130.901 174.966 130.492 175.398C130.082 175.826 129.562 176.161 128.932 176.4C128.301 176.636 127.602 176.754 126.834 176.754C125.601 176.754 124.663 176.503 124.021 175.999C123.379 175.496 123.07 174.814 123.093 173.954L125.552 173.824C125.571 174.193 125.701 174.472 125.942 174.661C126.182 174.846 126.511 174.94 126.928 174.944C127.397 174.952 127.795 174.856 128.122 174.655C128.453 174.451 128.64 174.203 128.683 173.912C128.715 173.708 128.656 173.543 128.506 173.417C128.36 173.291 128.093 173.187 127.703 173.105L126.19 172.792C125.331 172.615 124.714 172.299 124.34 171.843C123.966 171.387 123.838 170.807 123.956 170.104C124.051 169.541 124.285 169.06 124.659 168.659C125.038 168.254 125.524 167.944 126.119 167.727C126.718 167.511 127.393 167.403 128.146 167.403C129.324 167.403 130.21 167.645 130.805 168.128C131.404 168.612 131.689 169.27 131.662 170.104Z" fill="#00D67C"/>
<path d="M97.4365 196.639L99.4456 184.564H107.458L107.104 186.669H101.65L101.177 189.546H106.099L105.745 191.651H100.822L99.9952 196.639H97.4365Z" fill="#00D67C"/>
<path d="M110.57 196.816C109.64 196.816 108.87 196.627 108.259 196.25C107.649 195.868 107.219 195.33 106.971 194.634C106.727 193.935 106.685 193.107 106.847 192.152C107.004 191.221 107.322 190.403 107.798 189.699C108.279 188.996 108.882 188.448 109.606 188.054C110.331 187.661 111.139 187.465 112.029 187.465C112.628 187.465 113.17 187.561 113.654 187.754C114.143 187.942 114.549 188.229 114.872 188.615C115.195 188.996 115.415 189.473 115.533 190.047C115.655 190.621 115.654 191.293 115.527 192.064L115.415 192.753H107.757L107.999 191.197H113.294C113.353 190.835 113.329 190.515 113.223 190.236C113.117 189.957 112.939 189.739 112.691 189.581C112.443 189.42 112.138 189.34 111.775 189.34C111.405 189.34 111.058 189.43 110.735 189.611C110.412 189.792 110.14 190.03 109.92 190.324C109.703 190.615 109.563 190.932 109.5 191.274L109.222 192.818C109.144 193.294 109.159 193.689 109.27 194.003C109.384 194.318 109.581 194.554 109.861 194.711C110.14 194.864 110.495 194.941 110.924 194.941C111.204 194.941 111.466 194.902 111.71 194.823C111.958 194.744 112.179 194.628 112.372 194.475C112.565 194.318 112.723 194.123 112.845 193.891L115.143 194.045C114.931 194.603 114.608 195.09 114.174 195.507C113.741 195.92 113.219 196.242 112.608 196.474C112.002 196.702 111.322 196.816 110.57 196.816Z" fill="#00D67C"/>
<path d="M120.531 196.816C119.601 196.816 118.831 196.627 118.221 196.25C117.61 195.868 117.181 195.33 116.932 194.634C116.688 193.935 116.647 193.107 116.808 192.152C116.966 191.221 117.283 190.403 117.76 189.699C118.24 188.996 118.843 188.448 119.568 188.054C120.293 187.661 121.1 187.465 121.991 187.465C122.589 187.465 123.131 187.561 123.616 187.754C124.104 187.942 124.51 188.229 124.833 188.615C125.156 188.996 125.377 189.473 125.495 190.047C125.617 190.621 125.615 191.293 125.489 192.064L125.377 192.753H117.718L117.961 191.197H123.255C123.314 190.835 123.291 190.515 123.184 190.236C123.078 189.957 122.901 189.739 122.652 189.581C122.404 189.42 122.099 189.34 121.737 189.34C121.366 189.34 121.02 189.43 120.697 189.611C120.373 189.792 120.102 190.03 119.881 190.324C119.664 190.615 119.525 190.932 119.461 191.274L119.184 192.818C119.105 193.294 119.121 193.689 119.231 194.003C119.345 194.318 119.542 194.554 119.822 194.711C120.102 194.864 120.456 194.941 120.886 194.941C121.165 194.941 121.427 194.902 121.672 194.823C121.92 194.744 122.14 194.628 122.333 194.475C122.526 194.318 122.684 194.123 122.806 193.891L125.105 194.045C124.892 194.603 124.569 195.09 124.136 195.507C123.702 195.92 123.18 196.242 122.57 196.474C121.963 196.702 121.283 196.816 120.531 196.816Z" fill="#00D67C"/>
<path d="M135.001 190.165L132.714 190.307C132.702 190.106 132.647 189.927 132.549 189.77C132.454 189.609 132.314 189.481 132.129 189.387C131.948 189.293 131.72 189.245 131.444 189.245C131.03 189.245 130.662 189.34 130.339 189.528C130.016 189.717 129.833 189.959 129.789 190.254C129.754 190.442 129.803 190.601 129.937 190.731C130.071 190.861 130.341 190.971 130.747 191.061L132.342 191.392C133.193 191.572 133.807 191.873 134.186 192.294C134.568 192.714 134.704 193.264 134.593 193.944C134.495 194.522 134.241 195.027 133.831 195.46C133.421 195.888 132.901 196.222 132.271 196.462C131.641 196.698 130.942 196.816 130.173 196.816C128.94 196.816 128.003 196.564 127.361 196.061C126.718 195.558 126.409 194.876 126.433 194.015L128.891 193.885C128.911 194.255 129.041 194.534 129.281 194.723C129.521 194.907 129.85 195.002 130.268 195.006C130.737 195.014 131.135 194.917 131.462 194.717C131.792 194.512 131.98 194.265 132.023 193.974C132.054 193.77 131.995 193.604 131.846 193.479C131.7 193.353 131.432 193.249 131.042 193.166L129.529 192.854C128.67 192.677 128.054 192.36 127.68 191.904C127.305 191.449 127.177 190.869 127.296 190.165C127.39 189.603 127.625 189.122 127.999 188.721C128.377 188.316 128.863 188.005 129.458 187.789C130.057 187.573 130.733 187.465 131.485 187.465C132.663 187.465 133.549 187.707 134.144 188.19C134.743 188.674 135.029 189.332 135.001 190.165Z" fill="#00D67C"/>
<path d="M248.68 115.251L254.583 143.557C256.041 150.551 262.219 155.563 269.379 155.563C278.426 155.563 285.444 147.687 284.389 138.723L282.147 117.25" stroke="#08112C" stroke-width="5" stroke-linecap="round" stroke-linejoin="round"/>
<path d="M478.744 252.123C488.115 231.382 490.666 207.64 485.919 185.387C481.171 163.134 469.149 142.488 452.124 127.353L478.744 252.123Z" fill="#F1F9BD"/>
<path d="M478.744 252.123C488.115 231.382 490.666 207.64 485.919 185.387C481.171 163.134 469.149 142.488 452.124 127.353L478.744 252.123V252.123Z" stroke="#08112C" stroke-width="2" stroke-linecap="round" stroke-linejoin="round"/>
<path d="M458.513 117.25C457.948 105.83 455.934 93.3282 447.241 85.876C439.326 79.0896 427.484 78.3633 417.628 81.7841C416.403 82.2096 415.203 82.6904 414.028 83.2196C406.413 78.9668 396.609 78.8786 388.237 81.7841C386.208 82.4897 384.247 83.3458 382.351 84.3247C374.532 79.0014 363.816 78.6434 354.771 81.7841C353.381 82.2666 352.026 82.8218 350.698 83.4375C343.031 78.972 333.04 78.8285 324.528 81.7841C314.672 85.2067 306.471 92.1729 299.139 99.5819C293.941 104.836 289.046 111.484 284.491 117.302L314.75 117.283L314.734 117.302L328.837 117.293C333.231 171.014 335.549 242.485 359.127 272.019L352.359 304.268H472.903L475.543 294.604C480.863 275.128 482.546 254.838 480.443 234.761C477.932 210.767 471.983 173.331 458.513 117.248V117.25Z" fill="#F1F9BD"/>
<path d="M350.705 83.4357C351.913 84.1396 353.066 84.9525 354.144 85.876C362.835 93.3282 364.849 105.829 365.416 117.25" stroke="#08112C" stroke-width="2" stroke-linecap="round" stroke-linejoin="round"/>
<path d="M350.698 83.4375C352.026 82.8218 353.383 82.2684 354.773 81.7858C364.629 78.3633 376.472 79.0914 384.386 85.8777C393.077 93.3299 395.091 105.83 395.658 117.252" stroke="#08112C" stroke-width="2" stroke-linecap="round" stroke-linejoin="round"/>
<path d="M382.622 84.1863C384.435 83.2645 386.305 82.4569 388.238 81.7858C398.094 78.3633 409.936 79.0914 417.85 85.8777C426.541 93.3299 428.556 105.83 429.122 117.252" stroke="#08112C" stroke-width="2" stroke-linecap="round" stroke-linejoin="round"/>
<path d="M458.513 117.25C457.948 105.83 455.934 93.3282 447.241 85.876C439.326 79.0896 427.484 78.3633 417.628 81.7841C416.403 82.2096 415.203 82.6904 414.028 83.2196C406.413 78.9668 396.609 78.8786 388.237 81.7841C386.208 82.4897 384.247 83.3458 382.351 84.3247C374.532 79.0014 363.816 78.6434 354.771 81.7841C353.381 82.2666 352.026 82.8218 350.698 83.4375C343.031 78.972 333.04 78.8285 324.528 81.7841C314.672 85.2067 306.471 92.1729 299.139 99.5819C293.941 104.836 289.046 111.484 284.491 117.302L314.75 117.283L314.734 117.302L328.837 117.293C333.231 171.014 335.549 242.485 359.127 272.019L352.359 304.268H472.903L475.543 294.604C480.863 275.128 482.546 254.838 480.443 234.761C477.932 210.767 471.983 173.331 458.513 117.248V117.25Z" stroke="#08112C" stroke-width="2" stroke-linecap="round" stroke-linejoin="round"/>
<path d="M359.129 272.021H402.973L354.118 295.89L359.129 272.021Z" fill="#08112C"/>
<path d="M328.839 117.295V107.032" stroke="#08112C" stroke-width="2" stroke-linecap="round" stroke-linejoin="round"/>
<path d="M295.163 117.152C285.906 111.68 275.1 108.541 263.561 108.541H238.089C203.786 108.541 175.979 136.285 175.979 170.51C175.979 204.736 203.786 232.482 238.089 232.482H263.561C274.403 232.482 284.597 229.711 293.47 224.836C312.665 214.295 325.672 193.919 325.672 170.51C325.672 147.102 313.428 127.94 295.163 117.152Z" fill="#F9F9F9"/>
<path d="M300.199 170.51C300.199 200.382 279.019 225.315 250.824 231.176C246.712 232.031 242.452 232.482 238.087 232.482C203.784 232.482 175.978 204.738 175.978 170.51C175.978 136.283 203.784 108.541 238.087 108.541C242.452 108.541 246.712 108.99 250.824 109.846C279.017 115.708 300.199 140.641 300.199 170.51V170.51Z" stroke="#08112C" stroke-width="2" stroke-linecap="round" stroke-linejoin="round"/>
<path d="M325.672 170.51C325.672 193.917 312.667 214.293 293.47 224.836C284.597 229.711 274.403 232.482 263.561 232.482H238.089C242.453 232.482 246.714 232.032 250.826 231.176C256.927 229.907 262.699 227.747 268 224.834C287.193 214.29 300.199 193.917 300.199 170.509C300.199 147.1 287.951 127.936 269.688 117.15C263.933 113.748 257.58 111.251 250.826 109.845C246.714 108.99 242.453 108.539 238.089 108.539H263.561C275.1 108.539 285.905 111.678 295.163 117.15C313.428 127.938 325.672 147.796 325.672 170.509V170.51Z" stroke="#08112C" stroke-width="2" stroke-linecap="round" stroke-linejoin="round"/>
<path d="M238.014 221.764C266.364 221.764 289.346 198.834 289.346 170.548C289.346 142.262 266.364 119.332 238.014 119.332C209.665 119.332 186.683 142.262 186.683 170.548C186.683 198.834 209.665 221.764 238.014 221.764Z" fill="#08112C"/>
<path d="M221.651 156.311L223.66 144.236H226.218L224.564 154.206H229.752L229.398 156.311H221.651Z" fill="#00D67C"/>
<path d="M235.158 156.488C234.232 156.488 233.466 156.291 232.859 155.898C232.252 155.501 231.825 154.951 231.577 154.248C231.332 153.54 231.287 152.717 231.441 151.777C231.59 150.85 231.902 150.038 232.374 149.342C232.847 148.647 233.448 148.106 234.177 147.721C234.905 147.332 235.727 147.137 236.641 147.137C237.563 147.137 238.327 147.336 238.934 147.733C239.54 148.126 239.968 148.676 240.216 149.383C240.464 150.091 240.511 150.914 240.358 151.854C240.204 152.778 239.889 153.587 239.412 154.283C238.936 154.979 238.335 155.521 237.61 155.91C236.885 156.295 236.068 156.488 235.158 156.488ZM235.406 154.542C235.831 154.542 236.207 154.422 236.534 154.183C236.865 153.939 237.139 153.609 237.356 153.192C237.576 152.772 237.73 152.296 237.817 151.765C237.903 151.243 237.909 150.779 237.834 150.374C237.76 149.965 237.602 149.643 237.362 149.407C237.125 149.171 236.8 149.053 236.387 149.053C235.961 149.053 235.583 149.175 235.252 149.419C234.921 149.659 234.647 149.989 234.431 150.409C234.214 150.83 234.062 151.308 233.976 151.842C233.893 152.361 233.887 152.825 233.958 153.233C234.029 153.638 234.185 153.959 234.425 154.195C234.665 154.426 234.992 154.542 235.406 154.542Z" fill="#00D67C"/>
<path d="M242.813 156.311L241.856 147.255H244.402L244.792 153.34H244.875L247.357 147.255H249.857L250.329 153.304H250.406L252.805 147.255H255.346L251.369 156.311H248.704L248.09 150.616H247.978L245.472 156.311H242.813Z" fill="#00D67C"/>
<path d="M231.993 168.201C231.962 167.914 231.895 167.661 231.792 167.441C231.694 167.217 231.558 167.028 231.385 166.875C231.211 166.717 231 166.597 230.752 166.515C230.504 166.432 230.217 166.391 229.89 166.391C229.271 166.391 228.692 166.544 228.152 166.851C227.616 167.158 227.16 167.604 226.781 168.189C226.403 168.771 226.145 169.482 226.007 170.324C225.865 171.165 225.865 171.88 226.007 172.47C226.153 173.059 226.427 173.509 226.829 173.82C227.234 174.126 227.756 174.28 228.395 174.28C228.974 174.28 229.494 174.178 229.955 173.973C230.415 173.765 230.792 173.472 231.083 173.095C231.379 172.717 231.568 172.271 231.65 171.756L232.159 171.833H229.045L229.364 169.911H234.428L234.168 171.432C233.998 172.493 233.626 173.405 233.051 174.168C232.476 174.93 231.759 175.516 230.9 175.925C230.045 176.333 229.108 176.538 228.087 176.538C226.953 176.538 225.997 176.288 225.221 175.789C224.449 175.286 223.9 174.573 223.573 173.649C223.25 172.721 223.192 171.621 223.401 170.347C223.563 169.369 223.85 168.496 224.264 167.729C224.682 166.959 225.192 166.307 225.794 165.772C226.397 165.237 227.065 164.831 227.798 164.552C228.534 164.273 229.301 164.133 230.096 164.133C230.782 164.133 231.402 164.233 231.958 164.434C232.517 164.63 232.996 164.909 233.394 165.271C233.796 165.632 234.099 166.063 234.304 166.562C234.512 167.057 234.609 167.604 234.593 168.201H231.993Z" fill="#00D67C"/>
<path d="M237.786 176.544C237.211 176.544 236.712 176.444 236.291 176.243C235.873 176.039 235.566 175.736 235.369 175.335C235.172 174.934 235.123 174.437 235.221 173.843C235.308 173.34 235.471 172.92 235.712 172.582C235.956 172.24 236.253 171.965 236.604 171.756C236.954 171.548 237.342 171.389 237.768 171.279C238.197 171.169 238.641 171.094 239.098 171.055C239.625 171 240.055 170.947 240.386 170.896C240.721 170.844 240.971 170.772 241.136 170.677C241.302 170.579 241.402 170.434 241.438 170.241V170.206C241.497 169.836 241.428 169.549 241.231 169.345C241.038 169.137 240.728 169.032 240.303 169.032C239.854 169.032 239.472 169.131 239.157 169.327C238.845 169.524 238.623 169.773 238.489 170.076L236.196 169.887C236.401 169.337 236.71 168.861 237.124 168.461C237.541 168.056 238.044 167.745 238.631 167.529C239.218 167.309 239.876 167.199 240.604 167.199C241.109 167.199 241.579 167.258 242.017 167.376C242.458 167.494 242.838 167.676 243.157 167.924C243.48 168.172 243.713 168.49 243.854 168.879C244 169.264 244.03 169.726 243.943 170.265L242.921 176.373H240.533L240.746 175.117H240.675C240.482 175.4 240.246 175.65 239.966 175.866C239.686 176.078 239.365 176.245 239.003 176.367C238.641 176.485 238.235 176.544 237.786 176.544ZM238.796 174.81C239.163 174.81 239.499 174.738 239.807 174.592C240.118 174.443 240.374 174.242 240.575 173.991C240.78 173.739 240.91 173.454 240.965 173.136L241.118 172.175C241.04 172.226 240.925 172.271 240.776 172.311C240.63 172.35 240.47 172.387 240.297 172.423C240.128 172.454 239.956 172.483 239.783 172.511C239.61 172.535 239.454 172.558 239.316 172.582C239.013 172.625 238.741 172.694 238.501 172.788C238.26 172.882 238.065 173.01 237.916 173.171C237.766 173.329 237.673 173.525 237.638 173.761C237.583 174.103 237.664 174.364 237.88 174.545C238.101 174.722 238.406 174.81 238.796 174.81Z" fill="#00D67C"/>
<path d="M253.495 169.899L251.208 170.041C251.197 169.84 251.141 169.661 251.043 169.504C250.948 169.343 250.809 169.215 250.623 169.121C250.442 169.027 250.214 168.979 249.938 168.979C249.524 168.979 249.156 169.074 248.833 169.262C248.51 169.451 248.327 169.693 248.283 169.988C248.248 170.176 248.297 170.335 248.431 170.465C248.565 170.595 248.835 170.705 249.241 170.795L250.836 171.125C251.687 171.306 252.302 171.607 252.68 172.028C253.062 172.448 253.198 172.998 253.087 173.678C252.989 174.256 252.735 174.761 252.325 175.194C251.915 175.622 251.395 175.956 250.765 176.196C250.135 176.432 249.436 176.55 248.667 176.55C247.434 176.55 246.497 176.298 245.855 175.795C245.213 175.292 244.903 174.61 244.927 173.749L247.385 173.619C247.405 173.989 247.535 174.268 247.775 174.457C248.015 174.641 248.344 174.736 248.762 174.74C249.231 174.747 249.629 174.651 249.956 174.451C250.287 174.246 250.474 173.999 250.517 173.708C250.549 173.503 250.489 173.338 250.34 173.213C250.194 173.087 249.926 172.983 249.536 172.9L248.023 172.588C247.165 172.411 246.548 172.094 246.174 171.638C245.799 171.182 245.671 170.603 245.79 169.899C245.884 169.337 246.119 168.856 246.493 168.455C246.871 168.05 247.358 167.739 247.952 167.523C248.551 167.307 249.227 167.199 249.979 167.199C251.157 167.199 252.044 167.441 252.638 167.924C253.237 168.407 253.523 169.066 253.495 169.899Z" fill="#00D67C"/>
<path d="M219.27 196.434L221.279 184.36H229.292L228.937 186.465H223.483L223.011 189.342H227.933L227.578 191.447H222.656L221.829 196.434H219.27Z" fill="#00D67C"/>
<path d="M232.403 196.611C231.473 196.611 230.703 196.423 230.093 196.045C229.482 195.664 229.053 195.126 228.804 194.43C228.56 193.73 228.519 192.903 228.68 191.948C228.838 191.016 229.155 190.199 229.632 189.495C230.112 188.791 230.715 188.243 231.44 187.85C232.165 187.457 232.972 187.26 233.863 187.26C234.462 187.26 235.003 187.357 235.488 187.549C235.976 187.738 236.382 188.025 236.705 188.41C237.028 188.791 237.249 189.269 237.367 189.843C237.489 190.417 237.487 191.089 237.361 191.859L237.249 192.549H229.59L229.833 190.993H235.127C235.186 190.631 235.163 190.311 235.056 190.032C234.95 189.752 234.773 189.534 234.525 189.377C234.276 189.216 233.971 189.135 233.609 189.135C233.238 189.135 232.892 189.226 232.569 189.407C232.246 189.587 231.974 189.825 231.753 190.12C231.536 190.411 231.397 190.727 231.334 191.069L231.056 192.614C230.977 193.09 230.993 193.485 231.103 193.799C231.217 194.113 231.414 194.349 231.694 194.507C231.974 194.66 232.328 194.736 232.758 194.736C233.037 194.736 233.299 194.697 233.544 194.619C233.792 194.54 234.012 194.424 234.205 194.271C234.398 194.113 234.556 193.919 234.678 193.687L236.977 193.84C236.764 194.398 236.441 194.886 236.008 195.302C235.574 195.715 235.052 196.037 234.442 196.269C233.835 196.497 233.156 196.611 232.403 196.611Z" fill="#00D67C"/>
<path d="M242.365 196.611C241.435 196.611 240.665 196.423 240.054 196.045C239.443 195.664 239.014 195.126 238.766 194.43C238.522 193.73 238.48 192.903 238.642 191.948C238.799 191.016 239.116 190.199 239.593 189.495C240.074 188.791 240.676 188.243 241.401 187.85C242.126 187.457 242.934 187.26 243.824 187.26C244.423 187.26 244.965 187.357 245.449 187.549C245.938 187.738 246.343 188.025 246.666 188.41C246.989 188.791 247.21 189.269 247.328 189.843C247.45 190.417 247.448 191.089 247.322 191.859L247.21 192.549H239.552L239.794 190.993H245.089C245.148 190.631 245.124 190.311 245.018 190.032C244.911 189.752 244.734 189.534 244.486 189.377C244.238 189.216 243.932 189.135 243.57 189.135C243.2 189.135 242.853 189.226 242.53 189.407C242.207 189.587 241.935 189.825 241.715 190.12C241.498 190.411 241.358 190.727 241.295 191.069L241.017 192.614C240.938 193.09 240.954 193.485 241.065 193.799C241.179 194.113 241.376 194.349 241.655 194.507C241.935 194.66 242.29 194.736 242.719 194.736C242.999 194.736 243.261 194.697 243.505 194.619C243.753 194.54 243.974 194.424 244.167 194.271C244.36 194.113 244.517 193.919 244.64 193.687L246.938 193.84C246.726 194.398 246.402 194.886 245.969 195.302C245.536 195.715 245.014 196.037 244.403 196.269C243.797 196.497 243.117 196.611 242.365 196.611Z" fill="#00D67C"/>
<path d="M256.835 189.961L254.548 190.102C254.536 189.902 254.481 189.723 254.382 189.566C254.288 189.405 254.148 189.277 253.963 189.183C253.782 189.088 253.553 189.041 253.277 189.041C252.864 189.041 252.495 189.135 252.172 189.324C251.849 189.513 251.666 189.754 251.623 190.049C251.587 190.238 251.637 190.397 251.77 190.527C251.904 190.657 252.174 190.767 252.58 190.857L254.176 191.187C255.026 191.368 255.641 191.669 256.019 192.089C256.401 192.51 256.537 193.06 256.427 193.74C256.328 194.318 256.074 194.823 255.665 195.255C255.255 195.684 254.735 196.018 254.105 196.258C253.474 196.493 252.775 196.611 252.007 196.611C250.774 196.611 249.836 196.36 249.194 195.857C248.552 195.354 248.243 194.672 248.266 193.811L250.725 193.681C250.744 194.051 250.874 194.33 251.115 194.518C251.355 194.703 251.684 194.797 252.101 194.801C252.57 194.809 252.968 194.713 253.295 194.512C253.626 194.308 253.813 194.06 253.856 193.77C253.888 193.565 253.829 193.4 253.679 193.274C253.533 193.148 253.265 193.044 252.875 192.962L251.363 192.649C250.504 192.472 249.887 192.156 249.513 191.7C249.139 191.244 249.011 190.664 249.129 189.961C249.224 189.399 249.458 188.917 249.832 188.516C250.21 188.111 250.697 187.801 251.292 187.585C251.891 187.369 252.566 187.26 253.319 187.26C254.497 187.26 255.383 187.502 255.978 187.986C256.577 188.469 256.862 189.128 256.835 189.961Z" fill="#00D67C"/>
<path d="M126.618 54.2166V66.8347" stroke="#08112C" stroke-width="2" stroke-linecap="round" stroke-linejoin="round"/>
<path d="M126.618 74.5948V87.2129" stroke="#08112C" stroke-width="2" stroke-linecap="round" stroke-linejoin="round"/>
<path d="M143.153 70.7156H130.506" stroke="#08112C" stroke-width="2" stroke-linecap="round" stroke-linejoin="round"/>
<path d="M122.729 70.7156H110.082" stroke="#08112C" stroke-width="2" stroke-linecap="round" stroke-linejoin="round"/>
<path d="M136.403 79.5652L128.918 72.7962" stroke="#08112C" stroke-width="2" stroke-linecap="round" stroke-linejoin="round"/>
<path d="M124.316 68.6334L116.833 61.8643" stroke="#08112C" stroke-width="2" stroke-linecap="round" stroke-linejoin="round"/>
<path d="M135.488 60.9529L128.704 68.4189" stroke="#08112C" stroke-width="2" stroke-linecap="round" stroke-linejoin="round"/>
<path d="M124.531 73.0106L117.747 80.4784" stroke="#08112C" stroke-width="2" stroke-linecap="round" stroke-linejoin="round"/>
<path d="M497.856 113.284V122.127" stroke="#08112C" stroke-width="2" stroke-linecap="round" stroke-linejoin="round"/>
<path d="M497.856 127.564V136.407" stroke="#08112C" stroke-width="2" stroke-linecap="round" stroke-linejoin="round"/>
<path d="M509.444 124.846H500.582" stroke="#08112C" stroke-width="2" stroke-linecap="round" stroke-linejoin="round"/>
<path d="M495.132 124.846H486.269" stroke="#08112C" stroke-width="2" stroke-linecap="round" stroke-linejoin="round"/>
<path d="M504.714 131.048L499.469 126.304" stroke="#08112C" stroke-width="2" stroke-linecap="round" stroke-linejoin="round"/>
<path d="M496.245 123.386L491 118.642" stroke="#08112C" stroke-width="2" stroke-linecap="round" stroke-linejoin="round"/>
<path d="M504.074 118.004L499.319 123.237" stroke="#08112C" stroke-width="2" stroke-linecap="round" stroke-linejoin="round"/>
<path d="M496.395 126.454L491.641 131.687" stroke="#08112C" stroke-width="2" stroke-linecap="round" stroke-linejoin="round"/>
<path d="M101.636 269.662L100.575 264.596L95.5498 263.309L100.627 262.249L101.916 257.235L102.979 262.303L108.004 263.589L102.925 264.648L101.636 269.662Z" fill="#08112C"/>
<path d="M506.588 172.477L505.525 167.411L500.5 166.124L505.579 165.064L506.868 160.051L507.931 165.118L512.954 166.405L507.877 167.463L506.588 172.477Z" fill="#08112C"/>
<path d="M313.273 66.7396L312.213 61.6723L307.188 60.3856L312.265 59.3272L313.554 54.3135L314.617 59.379L319.642 60.6658L314.563 61.7259L313.273 66.7396Z" fill="#08112C"/>
<path d="M350.558 54.2166L349.495 49.1511L344.47 47.8644L349.549 46.8042L350.839 41.7905L351.899 46.8578L356.924 48.1445L351.847 49.2029L350.558 54.2166Z" fill="#08112C"/>
<path d="M79.2719 251.852L78.211 246.784L73.186 245.499L78.263 244.439L79.5527 239.426L80.6152 244.491L85.6402 245.778L80.5615 246.838L79.2719 251.852Z" fill="#08112C"/>
<path d="M322.396 274.815C323.628 273.139 324.384 271.09 324.446 268.856C324.611 263.008 319.993 258.135 314.133 257.972C310.092 257.86 306.518 260.015 304.632 263.28C302.934 259.914 299.484 257.562 295.445 257.45C289.585 257.286 284.7 261.893 284.537 267.74C284.472 270.073 285.177 272.245 286.409 274.032L286.401 274.037L286.484 274.137C286.796 274.577 287.134 274.997 287.508 275.384L303.871 290.391L320.895 276.457C321.441 275.971 321.936 275.434 322.373 274.846L322.399 274.817H322.396V274.815Z" fill="#DBF059"/>
<path d="M322.396 274.815C323.628 273.139 324.384 271.09 324.446 268.856C324.611 263.008 319.993 258.135 314.133 257.972C310.092 257.86 306.518 260.015 304.632 263.28C302.934 259.914 299.484 257.562 295.445 257.45C289.585 257.286 284.7 261.893 284.537 267.74C284.472 270.073 285.177 272.245 286.409 274.032L286.401 274.037L286.484 274.137C286.796 274.577 287.134 274.997 287.508 275.384L303.871 290.391L320.895 276.457C321.441 275.971 321.936 275.434 322.373 274.846L322.399 274.817H322.396V274.815Z" stroke="#08112C" stroke-width="2" stroke-linecap="round" stroke-linejoin="round"/>
<path d="M394.94 60.7367C395.581 59.865 395.973 58.7997 396.006 57.6375C396.091 54.5971 393.69 52.0652 390.645 51.9787C388.544 51.9199 386.686 53.0406 385.707 54.7372C384.823 52.987 383.03 51.7643 380.931 51.7072C377.884 51.6225 375.346 54.0177 375.26 57.0564C375.225 58.2687 375.592 59.3981 376.234 60.3268H376.23L376.274 60.3821C376.435 60.6104 376.612 60.8283 376.806 61.0307L385.311 68.8322L394.16 61.5893C394.444 61.3368 394.703 61.0584 394.928 60.7522L394.942 60.7367H394.94Z" fill="#DBF059"/>
<path d="M394.94 60.7367C395.581 59.865 395.973 58.7997 396.006 57.6375C396.091 54.5971 393.69 52.0652 390.645 51.9787C388.544 51.9199 386.686 53.0406 385.707 54.7372C384.823 52.987 383.03 51.7643 380.931 51.7072C377.884 51.6225 375.346 54.0177 375.26 57.0564C375.225 58.2687 375.592 59.3981 376.234 60.3268H376.23L376.274 60.3821C376.435 60.6104 376.612 60.8283 376.806 61.0307L385.311 68.8322L394.16 61.5893C394.444 61.3368 394.703 61.0584 394.928 60.7522L394.942 60.7367H394.94Z" fill="#DBF059" stroke="#08112C" stroke-width="2" stroke-linecap="round" stroke-linejoin="round"/>
</g>
<defs>
<filter id="filter0_f_151_658" x="-23.4263" y="-27.2053" width="444.614" height="409.282" filterUnits="userSpaceOnUse" color-interpolation-filters="sRGB">
<feFlood flood-opacity="0" result="BackgroundImageFix"/>
<feBlend mode="normal" in="SourceGraphic" in2="BackgroundImageFix" result="shape"/>
<feGaussianBlur stdDeviation="30" result="effect1_foregroundBlur_151_658"/>
</filter>
<filter id="filter1_f_151_658" x="121.692" y="-1.79356" width="466.809" height="384.51" filterUnits="userSpaceOnUse" color-interpolation-filters="sRGB">
<feFlood flood-opacity="0" result="BackgroundImageFix"/>
<feBlend mode="normal" in="SourceGraphic" in2="BackgroundImageFix" result="shape"/>
<feGaussianBlur stdDeviation="30" result="effect1_foregroundBlur_151_658"/>
</filter>
<filter id="filter2_f_151_658" x="97.2817" y="-17.6901" width="388.827" height="318.524" filterUnits="userSpaceOnUse" color-interpolation-filters="sRGB">
<feFlood flood-opacity="0" result="BackgroundImageFix"/>
<feBlend mode="normal" in="SourceGraphic" in2="BackgroundImageFix" result="shape"/>
<feGaussianBlur stdDeviation="20" result="effect1_foregroundBlur_151_658"/>
</filter>
<radialGradient id="paint0_radial_151_658" cx="0" cy="0" r="1" gradientUnits="userSpaceOnUse" gradientTransform="translate(43.7412 206.461) rotate(-5.22427) scale(318.771 2233.13)">
<stop stop-color="#DBF059"/>
<stop offset="0.310686" stop-color="#B6F3D7"/>
<stop offset="1" stop-color="#00D67C"/>
</radialGradient>
<linearGradient id="paint1_linear_151_658" x1="528.5" y1="190.461" x2="181.692" y2="190.461" gradientUnits="userSpaceOnUse">
<stop stop-color="#00D67C"/>
<stop offset="0.661458" stop-color="#B6F3D7"/>
<stop offset="1" stop-color="#DBF059"/>
</linearGradient>
<linearGradient id="paint2_linear_151_658" x1="137.282" y1="141.572" x2="446.109" y2="141.572" gradientUnits="userSpaceOnUse">
<stop stop-color="#B6F3D7"/>
<stop offset="0.416667" stop-color="#66E6B0"/>
<stop offset="1" stop-color="#E2F37A"/>
</linearGradient>
<clipPath id="clip0_151_658">
<rect width="565" height="345" fill="white"/>
</clipPath>
</defs>
</svg>
