<svg width="565" height="345" viewBox="0 0 565 345" fill="none" xmlns="http://www.w3.org/2000/svg">
<g clip-path="url(#clip0_151_759)">
<g filter="url(#filter0_f_151_759)">
<path d="M429.802 298.276C481.464 298.276 523.345 256.395 523.345 204.733C523.345 153.07 481.464 111.189 429.802 111.189C378.139 111.189 336.258 153.07 336.258 204.733C336.258 256.395 378.139 298.276 429.802 298.276Z" fill="url(#paint0_linear_151_759)"/>
</g>
<g opacity="0.4" filter="url(#filter1_f_151_759)">
<path d="M325.598 224.849C373.292 224.849 411.956 180.559 411.956 125.924C411.956 71.2899 373.292 27 325.598 27C277.904 27 239.24 71.2899 239.24 125.924C239.24 180.559 277.904 224.849 325.598 224.849Z" fill="url(#paint1_linear_151_759)"/>
</g>
<g opacity="0.44" filter="url(#filter2_f_151_759)">
<path d="M303.678 313.309C373.235 313.309 429.622 256.91 429.622 187.34C429.622 117.769 373.235 61.3707 303.678 61.3707C234.121 61.3707 177.734 117.769 177.734 187.34C177.734 256.91 234.121 313.309 303.678 313.309Z" fill="url(#paint2_linear_151_759)"/>
</g>
<g opacity="0.44" filter="url(#filter3_f_151_759)">
<path d="M162.944 313.309C232.501 313.309 288.888 256.91 288.888 187.34C288.888 117.769 232.501 61.3707 162.944 61.3707C93.3869 61.3707 37 117.769 37 187.34C37 256.91 93.3869 313.309 162.944 313.309Z" fill="url(#paint3_linear_151_759)"/>
</g>
<path d="M346.818 192.901C346.901 174.448 350.411 156.013 357.174 138.506C360.143 130.82 363.876 123.118 370.355 117.25C376.834 111.382 386.581 107.637 395.733 109.477C417.333 113.82 419.324 139.579 422.374 154.598C426.839 176.572 429.597 198.805 430.616 221.097C430.768 224.433 430.402 228.524 426.629 229.788C424.759 230.414 422.648 230.069 421.048 229.024C417.815 226.916 417.075 223.498 416.843 220.252C416.259 212.081 418.324 203.951 420.701 196.025C425.82 178.953 432.453 162.22 440.524 146.017C444.621 137.791 450.771 128.601 461.087 127.593C474.561 126.277 479.893 136.369 482.564 145.975C490.795 175.59 494.644 205.477 494.945 235.887C495.02 243.617 494.871 251.556 491.566 258.742C490.792 260.424 489.222 262.364 487.003 261.564C486.149 261.255 485.525 260.605 485.234 259.846C481.918 251.215 484.501 241.891 487.724 233.344C490.109 227.015 492.912 220.805 496.13 214.756C498.778 209.778 502.055 204.599 507.721 202.126C515.523 198.719 525.537 201.864 531.18 207.624C536.822 213.384 538.933 221.1 539.986 228.586C542.619 247.319 537.752 281.497 511.975 286.874C491.784 291.085 468.959 278.676 459.357 263.815C449.381 248.378 448.601 229.479 453.244 212.266C454.237 208.579 456.896 204.077 461.237 204.639C464.567 205.072 466.229 208.311 467.029 211.131C470.865 224.648 468.664 238.995 463.775 252.254C458.806 265.729 450.497 279.012 436.668 286.61C422.841 294.209 402.621 294.333 391.453 283.981C384.601 277.63 382.164 268.679 380.791 260.085C377.59 240.061 378.969 218.867 389.693 200.892C390.925 198.827 392.693 196.544 395.867 197.17C396.679 197.329 397.42 197.687 398.074 198.132C403.486 201.803 403.954 208.385 403.729 214.198C403.259 226.321 401.359 238.402 398.071 250.196C396.366 256.312 394.246 262.432 390.429 267.792C383.337 277.748 370.676 284.273 357.332 286.296C356.86 286.369 356.387 286.434 355.913 286.495C335.392 289.144 315.732 278.324 309.687 261.208C307.901 256.149 306.339 251.125 305.682 247.451C302.938 232.093 301.798 216.928 303.633 201.406C304.106 197.395 304.811 193.245 307.383 189.877C309.954 186.509 314.907 184.165 319.36 185.396C322.409 186.239 324.653 188.578 325.851 191.136C327.05 193.695 327.354 196.492 327.644 199.24C329.515 216.903 327.677 233.441 323.088 250.806C320.707 259.821 317.724 272.891 308.675 278.957C299.227 285.292 284.394 285.464 273.218 283.77C259.874 281.747 247.213 275.219 240.121 265.266C236.303 259.907 234.184 253.786 232.479 247.67C229.191 235.876 227.292 223.795 226.821 211.672C226.594 205.858 227.064 199.277 232.476 195.605C233.13 195.16 233.871 194.803 234.683 194.643C237.857 194.017 239.624 196.3 240.856 198.365C251.579 216.341 252.959 237.534 249.759 257.558C248.386 266.152 245.949 275.104 239.097 281.455C227.929 291.806 207.711 291.682 193.882 284.084C180.054 276.485 171.744 263.202 166.775 249.728C161.886 236.467 159.685 222.119 163.521 208.604C164.321 205.784 165.983 202.544 169.313 202.112C173.654 201.548 176.313 206.053 177.306 209.739C181.949 226.953 181.169 245.851 171.193 261.288C161.59 276.15 138.766 288.558 118.575 284.347C92.7983 278.972 87.9306 244.792 90.5642 226.059C91.6167 218.573 93.7265 210.857 99.3697 205.097C105.011 199.337 115.027 196.193 122.829 199.599C128.495 202.074 131.772 207.251 134.42 212.229C137.574 218.155 140.325 224.238 142.682 230.435C145.826 238.706 148.443 247.73 145.725 256.161C145.218 257.733 144.141 259.552 141.943 259.175C140.904 258.995 140.057 258.35 139.622 257.518C135.698 249.996 135.525 241.562 135.605 233.362C135.906 202.952 139.755 173.063 147.986 143.45C150.657 133.844 155.989 123.752 169.463 125.068C179.779 126.076 185.929 135.266 190.026 143.492C198.096 159.695 204.73 176.428 209.849 193.5C212.226 201.426 214.291 209.556 213.707 217.727C213.475 220.973 212.735 224.391 209.502 226.499C207.902 227.544 205.791 227.889 203.921 227.263C200.148 225.999 199.783 221.908 199.934 218.572C200.953 196.28 203.711 174.047 208.176 152.073C211.227 137.055 213.216 111.297 234.817 106.952C243.968 105.112 253.716 108.857 260.195 114.725C266.674 120.593 270.407 128.295 273.376 135.981C280.139 153.486 283.648 171.923 283.732 190.376C282.311 170.203 285.673 150.35 291.255 130.721C293.461 122.965 296.321 115.125 302.043 108.844C307.765 102.565 316.908 98.0793 326.088 99.142C329.442 99.5298 332.737 100.675 335.187 102.688C339.368 106.123 340.496 111.419 341.324 116.348C345.369 140.463 346.65 168.534 346.816 192.899L346.818 192.901Z" stroke="#08112C" stroke-width="2" stroke-linecap="round" stroke-linejoin="round"/>
<path d="M377.71 117.62L369.064 261.758H415.166L408.338 118.126C408.076 112.604 405.008 107.567 400.167 104.903C395.935 102.573 391.7 102.105 387.46 103.82C381.816 106.104 378.076 111.543 377.712 117.622L377.71 117.62Z" fill="#F9F9F9"/>
<path d="M377.71 117.62L369.064 261.758H415.166L408.338 118.126C408.076 112.604 405.008 107.567 400.167 104.903C395.935 102.573 391.7 102.105 387.46 103.82C381.816 106.104 378.076 111.543 377.712 117.622L377.71 117.62Z" stroke="#08112C" stroke-width="2" stroke-linecap="round" stroke-linejoin="round"/>
<path d="M410.159 156.444L415.166 261.756H433.47L424.374 155.497C423.998 151.097 419.752 148.095 415.48 149.208C412.219 150.057 409.998 153.076 410.159 156.442V156.444Z" fill="#F9F9F9"/>
<path d="M410.159 156.444L415.166 261.756H433.47L424.374 155.497C423.998 151.097 419.752 148.095 415.48 149.208C412.219 150.057 409.998 153.076 410.159 156.442V156.444Z" stroke="#08112C" stroke-width="2" stroke-linecap="round" stroke-linejoin="round"/>
<path d="M415.883 233.567L410.896 220.413H405.128L400.142 233.567H415.883Z" fill="#F9F9F9"/>
<path d="M415.883 233.567L410.896 220.413H405.128L400.142 233.567H415.883Z" stroke="#08112C" stroke-width="2" stroke-linecap="round" stroke-linejoin="round"/>
<path d="M400.142 233.567C403.2 229.536 412.464 229.377 415.883 233.567C414.26 238.362 401.202 238.281 400.142 233.567Z" fill="#DBF059"/>
<path d="M400.142 233.567C403.2 229.536 412.464 229.377 415.883 233.567C414.26 238.362 401.202 238.281 400.142 233.567Z" fill="url(#paint4_linear_151_759)"/>
<path d="M400.142 233.567C403.2 229.536 412.464 229.377 415.883 233.567C414.26 238.362 401.202 238.281 400.142 233.567Z" stroke="#08112C" stroke-width="2" stroke-linecap="round" stroke-linejoin="round"/>
<path d="M400.011 233.567L395.022 220.413H389.255L384.268 233.567H400.011Z" fill="#F9F9F9"/>
<path d="M400.011 233.567L395.022 220.413H389.255L384.268 233.567H400.011Z" stroke="#08112C" stroke-width="2" stroke-linecap="round" stroke-linejoin="round"/>
<path d="M384.268 233.567C387.326 229.536 396.59 229.377 400.009 233.567C398.386 238.362 385.329 238.281 384.268 233.567Z" fill="#DBF059"/>
<path d="M384.268 233.567C387.326 229.536 396.59 229.377 400.009 233.567C398.386 238.362 385.329 238.281 384.268 233.567Z" fill="url(#paint5_linear_151_759)"/>
<path d="M384.268 233.567C387.326 229.536 396.59 229.377 400.009 233.567C398.386 238.362 385.329 238.281 384.268 233.567Z" stroke="#08112C" stroke-width="2" stroke-linecap="round" stroke-linejoin="round"/>
<path d="M375.384 154.735L369.063 261.758H351.279L360.974 153.664C361.333 149.655 364.898 146.712 368.903 147.12C372.755 147.513 375.612 150.87 375.384 154.735Z" fill="#F9F9F9"/>
<path d="M375.384 154.735L369.063 261.758H351.279L360.974 153.664C361.333 149.655 364.898 146.712 368.903 147.12C372.755 147.513 375.612 150.87 375.384 154.735V154.735Z" stroke="#08112C" stroke-width="2" stroke-linecap="round" stroke-linejoin="round"/>
<path d="M384.805 233.567L379.818 220.413H374.049L369.064 233.567H384.805Z" fill="#F9F9F9"/>
<path d="M384.805 233.567L379.818 220.413H374.049L369.064 233.567H384.805Z" stroke="#08112C" stroke-width="2" stroke-linecap="round" stroke-linejoin="round"/>
<path d="M369.064 233.567C372.122 229.536 381.386 229.377 384.805 233.567C383.182 238.362 370.125 238.281 369.064 233.567Z" fill="#DBF059"/>
<path d="M369.064 233.567C372.122 229.536 381.386 229.377 384.805 233.567C383.182 238.362 370.125 238.281 369.064 233.567Z" fill="url(#paint6_linear_151_759)"/>
<path d="M369.064 233.567C372.122 229.536 381.386 229.377 384.805 233.567C383.182 238.362 370.125 238.281 369.064 233.567Z" stroke="#08112C" stroke-width="2" stroke-linecap="round" stroke-linejoin="round"/>
<path d="M375.794 239.642L363.296 246.854L356.593 289.442H360.412L375.794 239.642Z" fill="#F9F9F9"/>
<path d="M375.794 239.642L363.296 246.854L356.593 289.442H360.412L375.794 239.642Z" stroke="#08112C" stroke-width="2" stroke-linecap="round" stroke-linejoin="round"/>
<path d="M408.093 239.282L420.589 246.494L427.292 289.081H423.473L408.093 239.282Z" fill="#F9F9F9"/>
<path d="M408.093 239.282L420.589 246.494L427.292 289.081H423.473L408.093 239.282Z" stroke="#08112C" stroke-width="2" stroke-linecap="round" stroke-linejoin="round"/>
<path d="M387.715 240.124H398.288L394.444 289.64H388.435L387.715 240.124Z" fill="#F9F9F9"/>
<path d="M387.715 240.124H398.288L394.444 289.64H388.435L387.715 240.124Z" stroke="#08112C" stroke-width="2" stroke-linecap="round" stroke-linejoin="round"/>
<path d="M400.548 132.028C402.982 136.617 404.199 142.1 404.979 147.103C406.345 155.863 406.909 164.773 408.846 173.41C410.782 182.048 414.258 190.6 420.438 196.588C422.639 198.719 425.135 200.482 427.35 202.595C433.524 208.483 437.289 217.119 437.52 225.921H346.758C346.99 217.119 350.755 208.483 356.928 202.595C359.144 200.483 361.64 198.72 363.841 196.588C370.021 190.602 373.497 182.05 375.432 173.41C377.368 164.773 377.932 155.861 379.298 147.103C380.052 142.274 381.211 136.998 383.481 132.508L386.709 126.544C387.831 124.47 389.998 123.177 392.357 123.177C394.863 123.177 397.14 124.635 398.19 126.911L400.55 132.03L400.548 132.028Z" fill="#F9F9F9"/>
<path d="M400.548 132.028C402.982 136.617 404.199 142.1 404.979 147.103C406.345 155.863 406.909 164.773 408.846 173.41C410.782 182.048 414.258 190.6 420.438 196.588C422.639 198.719 425.135 200.482 427.35 202.595C433.524 208.483 437.289 217.119 437.52 225.921H346.758C346.99 217.119 350.755 208.483 356.928 202.595C359.144 200.483 361.64 198.72 363.841 196.588C370.021 190.602 373.497 182.05 375.432 173.41C377.368 164.773 377.932 155.861 379.298 147.103C380.052 142.274 381.211 136.998 383.481 132.508L386.709 126.544C387.831 124.47 389.998 123.177 392.357 123.177C394.863 123.177 397.14 124.635 398.19 126.911L400.55 132.03L400.548 132.028Z" stroke="#08112C" stroke-width="2" stroke-linecap="round" stroke-linejoin="round"/>
<path d="M397.902 145.308C397.834 144.781 397.76 144.254 397.679 143.727C397.201 140.576 396.356 137.008 394.25 134.653C392.724 133.185 391.188 133.207 389.641 134.653C387.534 137.006 386.69 140.574 386.212 143.727C386.133 144.252 386.059 144.779 385.988 145.308H397.899H397.902Z" fill="#08112C"/>
<path d="M392.144 187.58L396.468 197.818V226.19L392.139 230.518L387.812 226.19V197.818L392.135 187.58H392.144Z" fill="#F9F9F9"/>
<path d="M392.144 187.58L396.468 197.818V226.19L392.139 230.518L387.812 226.19V197.818L392.135 187.58H392.144Z" stroke="#08112C" stroke-width="2" stroke-linecap="round" stroke-linejoin="round"/>
<path d="M406.561 159.477V225.745" stroke="#08112C" stroke-width="2" stroke-linecap="round" stroke-linejoin="round"/>
<path d="M377.713 159.477V225.745" stroke="#08112C" stroke-width="2" stroke-linecap="round" stroke-linejoin="round"/>
<path d="M227.616 125.924C211.093 140.977 205.379 164.583 202.205 190.2L176.089 289.763H244.719L264.335 174.255L282.294 289.763H352.444L322.474 190.2C318.568 166.033 312.576 143.52 298.896 127.093L227.616 125.924Z" fill="#F1F9BD"/>
<path d="M227.616 125.924C211.093 140.977 205.379 164.583 202.205 190.2L176.089 289.763H244.719L264.335 174.255L282.294 289.763H352.444L322.474 190.2C318.568 166.033 312.576 143.52 298.896 127.093L227.616 125.924V125.924Z" stroke="#08112C" stroke-width="2" stroke-linecap="round" stroke-linejoin="round"/>
<path d="M246.132 55.1223L217.254 78.4952L227.616 125.924L298.896 127.093L306.842 81.2318L281.619 55.1223H246.132Z" fill="#F1F9BD"/>
<path d="M246.132 55.1223L217.254 78.4952L227.616 125.924L298.896 127.093L306.842 81.2318L281.619 55.1223H246.132Z" stroke="#08112C" stroke-width="2" stroke-linecap="round" stroke-linejoin="round"/>
<path d="M261.524 173.489H267.011" stroke="#08112C" stroke-width="2" stroke-linecap="round" stroke-linejoin="round"/>
<path d="M306.307 256.156V266H216V256.156C216 245.438 225.197 236.747 236.543 236.747H285.766C297.112 236.747 306.309 245.437 306.309 256.156H306.307Z" fill="url(#paint7_radial_151_759)"/>
<path d="M306.592 257.326V267.812H215.715V257.326C215.715 245.908 224.971 236.649 236.388 236.649H285.921C297.338 236.649 306.593 245.906 306.593 257.326H306.592Z" stroke="#08112C" stroke-width="2" stroke-linecap="round" stroke-linejoin="round"/>
<path d="M257.604 81.2338V126.428H269.361V83.46" stroke="#08112C" stroke-width="2" stroke-linecap="round" stroke-linejoin="round"/>
<path d="M324.574 266.637H199.995V289.764H324.574V266.637Z" fill="#F1F9BD"/>
<path d="M324.574 266.637H199.995V289.764H324.574V266.637Z" stroke="#08112C" stroke-width="2" stroke-linecap="round" stroke-linejoin="round"/>
<path d="M266.226 65.909C266.226 67.4468 265.217 68.6942 263.973 68.6942C262.729 68.6942 261.719 67.4468 261.719 65.909C261.719 65.8503 261.72 65.7898 261.724 65.7311C261.796 64.2772 262.775 63.1272 263.973 63.1272C265.171 63.1272 266.147 64.2772 266.221 65.7311C266.224 65.7898 266.226 65.8503 266.226 65.909Z" fill="#F9F9F9"/>
<path d="M214.072 190.593C219.002 209.801 261.426 204.509 261.426 183.93C258.165 179.13 254.622 174.517 250.55 170.257C239.597 158.804 220.316 163.507 215.878 178.721C214.754 182.579 214.183 186.542 214.072 190.593Z" fill="#00D67C"/>
<path d="M214.072 190.593C219.002 209.801 261.426 204.509 261.426 183.93C258.165 179.13 254.622 174.517 250.55 170.257C239.597 158.804 220.316 163.507 215.878 178.721C214.754 182.579 214.183 186.542 214.072 190.593V190.593Z" stroke="#08112C" stroke-width="2" stroke-linecap="round" stroke-linejoin="round"/>
<path d="M275.585 237.397C275.483 236.035 274.863 234.774 274.276 233.544C271.008 226.692 268.371 219.539 266.412 212.204L262.048 198.186C257.387 174.257 251.384 151.907 242.263 133.221L233.501 80.4481L246.13 55.1227C236.573 39.6101 224.696 28.471 202.346 37.06C183.581 46.6495 183.999 63.4363 194.12 83.8645L207.832 139.263C208.604 155.598 215.546 180.225 226.171 209.8L210.967 223.911C208.364 225.581 206.041 226.985 203.641 228.934C201.789 230.438 199.945 232.102 199.03 234.306C198.64 235.243 198.461 236.396 199.057 237.217C199.703 238.107 200.975 238.233 202.07 238.125C207.85 237.556 212.313 232.931 217.628 230.586C213.433 233.747 209.448 237.128 206.026 241.115C205.359 241.893 204.68 242.747 204.569 243.765C204.369 245.596 206.194 247.153 208.027 247.325C209.861 247.498 211.632 246.677 213.257 245.809C218.885 242.803 224.066 238.963 228.583 234.455C224.353 238.617 220.585 242.967 217.174 247.826C216.37 248.971 215.573 250.488 216.303 251.682C216.626 252.208 217.191 252.538 217.772 252.741C222.193 254.278 226.626 249.842 229.872 247.485C233.958 244.52 234.381 242.922 239.965 237.336C236.13 242.922 234.566 244.664 231.89 248.467C231.042 249.671 230.23 250.99 230.148 252.461C229.985 255.399 232.707 256.175 235.101 255.463C240.232 253.935 245.065 248.82 248.917 245.301C253.457 241.152 257.704 236.683 261.613 231.935C263.592 235.491 266.167 238.545 269.799 240.378C271.083 241.026 272.639 241.533 273.922 240.884C275.139 240.266 275.682 238.758 275.58 237.397H275.585Z" fill="#F1F9BD"/>
<path d="M246.132 55.1226C236.575 39.6101 224.698 28.4709 202.348 37.0599C183.583 46.6495 184.001 63.4363 194.122 83.8645L207.834 139.263C208.606 155.598 215.548 180.225 226.173 209.8L210.969 223.91C208.366 225.581 206.043 226.984 203.643 228.934C201.791 230.438 199.947 232.102 199.032 234.306C198.642 235.243 198.463 236.396 199.059 237.217C199.705 238.107 200.977 238.233 202.071 238.125C207.852 237.556 212.315 232.931 217.63 230.586C213.435 233.747 209.45 237.128 206.028 241.115C205.361 241.893 204.682 242.747 204.571 243.765C204.371 245.596 206.196 247.152 208.029 247.325C209.863 247.498 211.634 246.677 213.259 245.809C218.887 242.803 224.068 238.963 228.585 234.455C224.355 238.617 220.587 242.967 217.176 247.826C216.372 248.971 215.575 250.488 216.305 251.682C216.628 252.207 217.193 252.538 217.774 252.741C222.195 254.277 226.628 249.842 229.874 247.485C233.96 244.52 234.383 242.922 239.967 237.336C236.132 242.922 234.567 244.664 231.892 248.467C231.044 249.671 230.232 250.99 230.15 252.461C229.987 255.399 232.709 256.175 235.103 255.463C240.234 253.935 245.067 248.82 248.919 245.301C253.459 241.152 257.706 236.683 261.615 231.935C263.594 235.491 266.169 238.545 269.801 240.378C271.085 241.026 272.641 241.533 273.924 240.884C275.14 240.266 275.684 238.758 275.582 237.397C275.48 236.035 274.86 234.774 274.273 233.544C271.005 226.692 268.368 219.539 266.409 212.204L262.045 198.186C257.383 174.257 251.381 151.906 242.26 133.221L233.498 80.448" stroke="#08112C" stroke-width="2" stroke-linecap="round" stroke-linejoin="round"/>
<path d="M261.426 183.931C242.685 166.952 226.927 169.348 214.073 190.594C211.772 183.215 210.088 175.372 208.86 167.884C207.013 156.617 206.199 146.151 205.874 139.265L194.122 83.8646C183.999 63.4364 183.581 46.6496 202.347 37.06C224.698 28.471 236.574 39.6102 246.131 55.1227L233.502 80.4464L244.718 133.219C248.105 140.156 251.611 150.016 254.732 160.056C257.332 168.42 259.662 176.906 261.424 183.931H261.426Z" fill="#F1F9BD"/>
<path d="M261.426 183.931C242.685 166.952 226.927 169.348 214.073 190.594C211.772 183.215 210.088 175.372 208.86 167.884C207.013 156.617 206.199 146.151 205.874 139.265L194.122 83.8646C183.999 63.4364 183.581 46.6496 202.347 37.06C224.698 28.471 236.574 39.6102 246.131 55.1227L233.502 80.4464L244.718 133.219C248.105 140.156 251.611 150.016 254.732 160.056C257.332 168.42 259.662 176.906 261.424 183.931H261.426Z" fill="#F1F9BD"/>
<path d="M261.426 183.93C242.685 166.952 226.927 169.348 214.073 190.594L205.874 168.393C209.739 154.139 239.952 143.022 257.604 157.828L261.424 183.93H261.426Z" fill="#F1F9BD"/>
<path d="M233.504 80.4464L244.72 133.219C248.107 140.156 251.613 150.016 254.734 160.056C257.334 168.42 259.663 176.906 261.426 183.931C242.685 166.952 226.927 169.348 214.073 190.594C211.772 183.215 210.088 175.372 208.86 167.884C207.013 156.617 206.199 146.151 205.874 139.265L194.122 83.8646C183.999 63.4364 183.581 46.6496 202.347 37.06C224.698 28.471 236.574 39.6102 246.131 55.1227" stroke="#08112C" stroke-width="2" stroke-linecap="round" stroke-linejoin="round"/>
<path d="M261.426 183.93C242.685 166.952 226.927 169.348 214.073 190.594L205.874 168.393C209.739 154.139 239.952 143.022 257.604 157.828L261.424 183.93H261.426Z" fill="#F1F9BD"/>
<path d="M261.426 183.93C242.685 166.952 226.927 169.348 214.073 190.594L205.874 168.393C209.739 154.139 239.952 143.022 257.604 157.828L261.424 183.93H261.426Z" stroke="#08112C" stroke-width="2" stroke-linecap="round" stroke-linejoin="round"/>
<path d="M313.61 190.594C308.679 209.802 266.256 204.51 266.256 183.931C269.517 179.131 273.061 174.517 277.133 170.258C288.085 158.805 307.366 163.507 311.804 178.721C312.929 182.579 313.499 186.543 313.61 190.594Z" fill="#F1F9BD"/>
<path d="M252.096 237.397C252.198 236.035 252.818 234.775 253.405 233.544C256.673 226.693 259.31 219.539 261.269 212.204L265.633 198.186C270.294 174.257 276.297 151.907 285.418 133.221L294.18 80.4484L281.55 55.123C291.108 39.6104 302.985 28.4713 325.334 37.0603C344.1 46.6498 343.682 63.4366 333.561 83.8648L319.849 139.263C319.077 155.599 312.135 180.226 301.51 209.8L316.714 223.911C319.317 225.581 321.64 226.985 324.04 228.934C325.892 230.438 327.736 232.102 328.651 234.306C329.041 235.243 329.22 236.396 328.623 237.217C327.976 238.107 326.704 238.233 325.61 238.126C319.829 237.557 315.366 232.931 310.052 230.586C314.246 233.747 318.231 237.128 321.653 241.116C322.32 241.893 323 242.748 323.11 243.765C323.31 245.597 321.486 247.153 319.653 247.326C317.818 247.499 316.047 246.678 314.422 245.81C308.794 242.803 303.613 238.963 299.096 234.456C303.326 238.618 307.094 242.967 310.505 247.826C311.309 248.971 312.106 250.489 311.376 251.682C311.054 252.208 310.488 252.539 309.907 252.742C305.486 254.278 301.053 249.842 297.807 247.485C293.721 244.52 293.298 242.922 287.714 237.337C291.549 242.922 293.114 244.665 295.789 248.467C296.637 249.671 297.449 250.991 297.53 252.461C297.693 255.399 294.97 256.175 292.577 255.463C287.445 253.935 282.613 248.82 278.761 245.301C274.22 241.153 269.974 236.684 266.064 231.936C264.086 235.492 261.511 238.545 257.878 240.379C256.594 241.027 255.038 241.534 253.756 240.884C252.539 240.266 251.995 238.759 252.098 237.397H252.096Z" fill="#F1F9BD"/>
<path d="M266.256 183.931C284.996 166.953 300.754 169.348 313.608 190.594C315.91 183.216 317.593 175.372 318.822 167.884C320.668 156.618 321.482 146.152 321.808 139.265L333.559 83.8647C343.682 63.4365 344.1 46.6497 325.334 37.0602C302.983 28.4712 291.108 39.6103 281.55 55.1229L294.18 80.4466L282.964 133.219C279.577 140.156 276.07 150.016 272.95 160.056C270.35 168.42 268.02 176.906 266.258 183.931H266.256Z" fill="#F1F9BD"/>
<path d="M266.256 183.931C284.996 166.953 300.754 169.348 313.608 190.594L321.808 168.393C317.942 154.14 287.729 143.022 270.078 157.828L266.258 183.931H266.256Z" fill="#F1F9BD"/>
<path d="M313.611 190.593C308.679 209.801 266.256 204.509 266.256 183.93C269.518 179.13 273.061 174.517 277.133 170.257C288.085 158.804 307.366 163.507 311.804 178.721C312.929 182.579 313.5 186.542 313.611 190.593Z" fill="#00D67C"/>
<path d="M313.611 190.593C308.679 209.801 266.256 204.509 266.256 183.93C269.518 179.13 273.061 174.517 277.133 170.257C288.085 158.804 307.366 163.507 311.804 178.721C312.929 182.579 313.5 186.542 313.611 190.593V190.593Z" stroke="#08112C" stroke-width="2" stroke-linecap="round" stroke-linejoin="round"/>
<path d="M281.549 55.1227C291.106 39.6101 302.984 28.471 325.333 37.06C344.099 46.6495 343.681 63.4363 333.559 83.8645L319.848 139.263C319.075 155.598 312.133 180.225 301.508 209.8L316.712 223.911C319.315 225.581 321.639 226.985 324.039 228.934C325.89 230.438 327.735 232.102 328.65 234.306C329.039 235.243 329.219 236.396 328.621 237.217C327.975 238.107 326.703 238.233 325.608 238.125C319.827 237.556 315.364 232.931 310.05 230.586C314.245 233.747 318.23 237.128 321.652 241.115C322.318 241.893 322.998 242.747 323.109 243.765C323.309 245.596 321.484 247.153 319.651 247.325C317.817 247.498 316.046 246.677 314.421 245.809C308.793 242.803 303.611 238.963 299.094 234.455C303.324 238.617 307.093 242.967 310.503 247.826C311.307 248.971 312.105 250.488 311.374 251.682C311.052 252.208 310.487 252.538 309.906 252.741C305.485 254.278 301.052 249.842 297.805 247.485C293.72 244.52 293.297 242.922 287.712 237.336C291.548 242.922 293.112 244.664 295.788 248.467C296.635 249.671 297.448 250.99 297.528 252.461C297.691 255.399 294.969 256.175 292.575 255.463C287.444 253.935 282.611 248.82 278.759 245.301C274.219 241.152 269.972 236.683 266.063 231.935C264.084 235.491 261.509 238.545 257.877 240.378C256.593 241.026 255.037 241.533 253.755 240.884C252.538 240.266 251.994 238.758 252.096 237.397C252.199 236.035 252.818 234.774 253.405 233.544C256.673 226.692 259.31 219.539 261.269 212.204L265.633 198.186C270.295 174.257 276.297 151.907 285.418 133.221L294.18 80.4481L281.551 55.1227H281.549Z" fill="#F1F9BD"/>
<path d="M281.549 55.1227C291.106 39.6101 302.984 28.471 325.333 37.06C344.099 46.6495 343.681 63.4363 333.559 83.8645L319.848 139.263C319.075 155.598 312.133 180.225 301.508 209.8L316.712 223.911C319.315 225.581 321.639 226.985 324.039 228.934C325.89 230.438 327.735 232.102 328.65 234.306C329.039 235.243 329.219 236.396 328.621 237.217C327.975 238.107 326.703 238.233 325.608 238.125C319.827 237.556 315.364 232.931 310.05 230.586C314.245 233.747 318.23 237.128 321.652 241.115C322.318 241.893 322.998 242.747 323.109 243.765C323.309 245.596 321.484 247.153 319.651 247.325C317.817 247.498 316.046 246.677 314.421 245.809C308.793 242.803 303.611 238.963 299.094 234.455C303.324 238.617 307.093 242.967 310.503 247.826C311.307 248.971 312.105 250.488 311.374 251.682C311.052 252.208 310.487 252.538 309.906 252.741C305.485 254.278 301.052 249.842 297.805 247.485C293.72 244.52 293.297 242.922 287.712 237.336C291.548 242.922 293.112 244.664 295.788 248.467C296.635 249.671 297.448 250.99 297.528 252.461C297.691 255.399 294.969 256.175 292.575 255.463C287.444 253.935 282.611 248.82 278.759 245.301C274.219 241.152 269.972 236.683 266.063 231.935C264.084 235.491 261.509 238.545 257.877 240.378C256.593 241.026 255.037 241.533 253.755 240.884C252.538 240.266 251.994 238.758 252.096 237.397C252.199 236.035 252.818 234.774 253.405 233.544C256.673 226.692 259.31 219.539 261.269 212.204L265.633 198.186C270.295 174.257 276.297 151.907 285.418 133.221L294.18 80.4481" stroke="#08112C" stroke-width="2" stroke-linecap="round" stroke-linejoin="round"/>
<path d="M266.256 183.93C284.997 166.952 300.755 169.348 313.609 190.594C315.91 183.215 317.594 175.372 318.822 167.884C320.669 156.617 321.483 146.151 321.808 139.265L333.56 83.8645C343.683 63.4362 344.101 46.6495 325.335 37.0599C302.984 28.4709 291.108 39.6101 281.551 55.1226L294.18 80.4463L282.964 133.219C279.577 140.156 276.071 150.016 272.95 160.056C270.35 168.42 268.02 176.906 266.258 183.93H266.256Z" fill="#F1F9BD"/>
<path d="M294.18 80.4464L282.964 133.219C279.577 140.156 276.07 150.016 272.95 160.056C270.35 168.42 268.02 176.906 266.258 183.931C284.998 166.952 300.756 169.348 313.61 190.594C315.912 183.215 317.595 175.372 318.824 167.884C320.67 156.617 321.484 146.151 321.81 139.265L333.561 83.8645C343.684 63.4363 344.102 46.6496 325.336 37.06C302.985 28.471 291.11 39.6102 281.552 55.1227" stroke="#08112C" stroke-width="2" stroke-linecap="round" stroke-linejoin="round"/>
<path d="M266.256 183.93C284.997 166.952 300.755 169.348 313.609 190.594L321.808 168.393C317.943 154.139 287.73 143.022 270.078 157.828L266.258 183.93H266.256Z" fill="#F1F9BD"/>
<path d="M266.256 183.93C284.997 166.952 300.755 169.348 313.609 190.594L321.808 168.393C317.943 154.139 287.73 143.022 270.078 157.828L266.258 183.93H266.256Z" stroke="#08112C" stroke-width="2" stroke-linecap="round" stroke-linejoin="round"/>
<path d="M246.999 62.9119L243.947 88.9726L262.668 78.5353L280.96 91.1065L279.159 65.3798L246.999 62.9119Z" stroke="#08112C" stroke-width="2" stroke-linecap="round" stroke-linejoin="round"/>
<path d="M247.82 66.089C250.484 63.4252 250.484 59.1063 247.82 56.4425C245.157 53.7787 240.839 53.7787 238.176 56.4425C235.513 59.1063 235.513 63.4252 238.176 66.089C240.839 68.7529 245.157 68.7529 247.82 66.089Z" fill="#F1F9BD"/>
<path d="M247.82 66.089C250.484 63.4252 250.484 59.1063 247.82 56.4425C245.157 53.7787 240.839 53.7787 238.176 56.4425C235.513 59.1063 235.513 63.4252 238.176 66.089C240.839 68.7529 245.157 68.7529 247.82 66.089Z" stroke="#08112C" stroke-width="2" stroke-linecap="round" stroke-linejoin="round"/>
<path d="M289.986 62.8276C290.852 59.1611 288.581 55.4874 284.916 54.622C281.25 53.7566 277.577 56.0274 276.712 59.6938C275.846 63.3603 278.117 67.0341 281.782 67.8995C285.448 68.7648 289.121 66.4941 289.986 62.8276Z" fill="#F1F9BD"/>
<path d="M289.986 62.8276C290.852 59.1611 288.581 55.4874 284.916 54.622C281.25 53.7566 277.577 56.0274 276.712 59.6938C275.846 63.3603 278.117 67.0341 281.782 67.8995C285.448 68.7648 289.121 66.4941 289.986 62.8276Z" stroke="#08112C" stroke-width="2" stroke-linecap="round" stroke-linejoin="round"/>
<path d="M281.221 52.1257C281.42 55.7319 281.194 59.3599 280.548 62.9123C280.222 64.6969 279.789 66.4715 279.087 68.1436C277.16 72.7352 273.127 76.6151 268.362 78.0572C267.234 78.398 266.054 78.6314 264.879 78.534H262.668C261.493 78.6314 260.313 78.398 259.185 78.0572C254.42 76.6151 250.385 72.7352 248.46 68.1436C247.758 66.4715 247.325 64.6969 246.999 62.9123C246.353 59.3599 246.126 55.7302 246.326 52.1257C250.704 30.0153 278.572 34.1671 281.221 52.1257Z" fill="#F1F9BD"/>
<path d="M281.221 52.1257C281.42 55.7319 281.194 59.3599 280.548 62.9123C280.222 64.6969 279.789 66.4715 279.087 68.1436C277.16 72.7352 273.127 76.6151 268.362 78.0572C267.234 78.398 266.054 78.6314 264.879 78.534H262.668C261.493 78.6314 260.313 78.398 259.185 78.0572C254.42 76.6151 250.385 72.7352 248.46 68.1436C247.758 66.4715 247.325 64.6969 246.999 62.9123C246.353 59.3599 246.126 55.7302 246.326 52.1257C250.704 30.0153 278.572 34.1671 281.221 52.1257V52.1257Z" stroke="#08112C" stroke-width="2" stroke-linecap="round" stroke-linejoin="round"/>
<path d="M281.873 32.834C282.468 40.4039 282.603 50.1983 281.619 55.1224C281.273 55.6999 280.397 55.5673 279.796 55.2634C276.461 53.5845 275.118 50.0556 275.016 46.5082C274.999 45.9592 274.97 45.3313 274.544 44.9855C274.333 44.8142 274.057 44.7454 273.787 44.7135C272.342 44.5456 270.977 45.3062 269.66 45.924C268.344 46.5418 266.764 47.0303 265.479 46.3521C264.834 46.0129 264.342 45.4136 263.662 45.1534C262.647 44.7639 261.514 45.234 260.574 45.7813C259.634 46.3286 258.674 46.9833 257.586 46.9867C256.443 46.99 255.429 46.2665 254.607 45.4724C254.397 45.2709 254.184 45.0543 253.907 44.9637C253.4 44.7958 252.836 45.1148 252.541 45.558C252.245 46.0029 252.149 46.5468 252.042 47.0689C251.523 49.6074 250.447 54.011 247.957 55.2651C247.356 55.5673 246.478 55.7016 246.134 55.124C244.693 51.8587 244.845 41.6714 245.795 32.8508C245.917 31.7125 247.312 31.2324 248.111 32.0517C248.678 32.6342 249.628 32.5889 250.137 31.9526L251.174 30.6565C251.654 30.0572 252.537 29.9766 253.118 30.4786L254.976 32.0886C255.532 32.5687 256.368 32.5201 256.863 31.9778L258.493 30.1915C258.983 29.6543 259.81 29.6005 260.366 30.0689L262.763 32.0919C263.296 32.5436 264.085 32.5133 264.584 32.0231L266.566 30.0757C267.056 29.5938 267.832 29.5552 268.366 29.9884L270.492 31.7109C271.076 32.1843 271.934 32.0903 272.402 31.501L273.569 30.0354C274.076 29.3991 275.026 29.3504 275.595 29.9313L277.619 31.9979C278.138 32.5268 278.985 32.5419 279.521 32.0298L279.588 31.966C280.412 31.177 281.784 31.6991 281.873 32.8374V32.834Z" fill="#08112C"/>
<path d="M266.226 65.909C266.226 67.4468 265.217 68.6942 263.973 68.6942C262.729 68.6942 261.719 67.4468 261.719 65.909C261.719 65.8503 261.72 65.7898 261.724 65.7311C261.796 64.2772 262.775 63.1272 263.973 63.1272C265.171 63.1272 266.147 64.2772 266.221 65.7311C266.224 65.7898 266.226 65.8503 266.226 65.909Z" stroke="#08112C" stroke-width="2" stroke-linecap="round" stroke-linejoin="round"/>
<path d="M266.226 65.9086C266.226 67.4464 265.217 68.6938 263.973 68.6938C262.729 68.6938 261.719 67.4464 261.719 65.9086C261.719 65.8498 261.72 65.7894 261.724 65.7306H266.219C266.222 65.7894 266.224 65.8498 266.224 65.9086H266.226Z" fill="#08112C"/>
<path d="M269.55 60.47C268.993 61.1415 268.118 61.3363 267.596 60.9031C267.074 60.47 267.103 59.5735 267.66 58.9019C268.217 58.2304 269.092 58.0356 269.615 58.4688C270.139 58.9019 270.109 59.7984 269.552 60.47H269.55Z" fill="#08112C"/>
<path d="M256.707 60.47C257.264 61.1415 258.139 61.3363 258.661 60.9031C259.183 60.47 259.154 59.5735 258.597 58.9019C258.04 58.2304 257.165 58.0356 256.641 58.4688C256.118 58.9019 256.148 59.7984 256.705 60.47H256.707Z" fill="#08112C"/>
<path d="M259.482 63.4864C262.86 61.2416 263.257 55.8958 260.367 51.5463C257.478 47.1968 252.397 45.4906 249.019 47.7354C245.641 49.9803 245.245 55.326 248.134 59.6756C251.023 64.0251 256.104 65.7312 259.482 63.4864Z" stroke="#00D67C" stroke-width="2" stroke-linecap="round" stroke-linejoin="round"/>
<path d="M278.496 59.662C281.385 55.3125 280.989 49.9667 277.611 47.7219C274.233 45.4771 269.152 47.1832 266.263 51.5327C263.374 55.8822 263.77 61.228 267.148 63.4729C270.526 65.7177 275.607 64.0115 278.496 59.662Z" stroke="#00D67C" stroke-width="2" stroke-linecap="round" stroke-linejoin="round"/>
<path d="M262.258 58.4461H264.426" stroke="#00D67C" stroke-width="2" stroke-linecap="round" stroke-linejoin="round"/>
<path d="M262.636 59.2655C261.765 60.0378 260.076 61.6411 259.218 62.4301C258.763 62.8465 258.307 63.2712 257.964 63.7833C257.81 64.015 257.677 64.2718 257.656 64.5488C257.634 64.8259 257.743 65.1281 257.983 65.2708C258.114 65.3497 258.27 65.3748 258.423 65.3799C259.295 65.4135 260.078 64.8863 260.789 64.381C261.944 63.5617 263.097 62.7424 264.252 61.9231L262.637 59.2655H262.636Z" fill="#F1F9BD"/>
<path d="M262.636 59.2655C261.765 60.0378 260.076 61.6411 259.218 62.4301C258.763 62.8465 258.307 63.2712 257.964 63.7833C257.81 64.015 257.677 64.2718 257.656 64.5488C257.634 64.8259 257.743 65.1281 257.983 65.2708C258.114 65.3497 258.27 65.3748 258.423 65.3799C259.295 65.4135 260.078 64.8863 260.789 64.381C261.944 63.5617 263.097 62.7424 264.252 61.9231" stroke="#08112C" stroke-width="2" stroke-linecap="round" stroke-linejoin="round"/>
<path d="M266.692 56.4568L272.147 56.2906" stroke="#08112C" stroke-width="2" stroke-linecap="round" stroke-linejoin="round"/>
<path d="M254.876 56.4568L260.332 56.2906" stroke="#08112C" stroke-width="2" stroke-linecap="round" stroke-linejoin="round"/>
<path d="M279.533 58.1023L284.694 50.4199C285.512 49.2027 287.135 48.8284 288.402 49.5654L289.522 50.2151" stroke="#00D67C" stroke-width="2" stroke-linecap="round" stroke-linejoin="round"/>
<path d="M246.936 56.6419L241.774 48.9595C240.957 47.7424 239.334 47.368 238.066 48.105L236.947 48.7547" stroke="#00D67C" stroke-width="2" stroke-linecap="round" stroke-linejoin="round"/>
<path d="M333.559 83.8643L321.808 106.807" stroke="#08112C" stroke-width="2" stroke-linecap="round" stroke-linejoin="round"/>
<path d="M194.122 83.8643L207.343 108.987" stroke="#08112C" stroke-width="2" stroke-linecap="round" stroke-linejoin="round"/>
<path d="M282.962 133.218L283.361 143.409" stroke="#08112C" stroke-width="2" stroke-linecap="round" stroke-linejoin="round"/>
<path d="M244.721 133.218L246.255 142.088" stroke="#08112C" stroke-width="2" stroke-linecap="round" stroke-linejoin="round"/>
<path d="M26.9664 215.08L28.7768 230.241L43.9345 232.052L28.7768 233.861L26.9664 249.021L25.1577 233.861L10 232.052L25.1577 230.241L26.9664 215.08Z" fill="url(#paint8_radial_151_759)"/>
<path d="M143.974 73.7364L146.635 96.0255L168.92 98.6875L146.635 101.347L143.974 123.636L141.314 101.347L119.03 98.6875L141.314 96.0255L143.974 73.7364Z" fill="url(#paint9_radial_151_759)"/>
<path d="M406.561 71.2089L407.63 80.1656L416.583 81.2333L407.63 82.3027L406.561 91.2577L405.492 82.3027L396.539 81.2333L405.492 80.1656L406.561 71.2089Z" fill="url(#paint10_radial_151_759)"/>
<path d="M375.755 35.98L378.416 58.2724L400.699 60.93L378.416 63.5917L375.755 85.8799L373.093 63.5917L350.81 60.93L373.093 58.2724L375.755 35.98Z" fill="url(#paint11_radial_151_759)"/>
<path d="M130.902 185.654L106.735 164.061L100.269 196L101.903 163.441L73.1628 178.245L99.3696 159.236L70 145.756L101.042 154.613L93.1578 123L105.663 153.053L125.201 127.11L109.751 155.73L142 154.995L110.228 160.629L130.902 185.654Z" stroke="#08112C" stroke-width="2" stroke-linecap="round" stroke-linejoin="round"/>
<path d="M506.252 182.242L489.116 167.09L484.531 189.503L485.691 166.655L465.312 177.042L483.895 163.704L463.069 154.245L485.081 160.46L479.49 138.278L488.356 159.364L502.211 141.162L491.255 161.244L514.121 160.729L491.594 164.681L506.252 182.242Z" fill="#FBFDEE"/>
<path d="M506.252 182.242L489.116 167.09L484.531 189.503L485.691 166.655L465.312 177.042L483.895 163.704L463.069 154.245L485.081 160.46L479.49 138.278L488.356 159.364L502.211 141.162L491.255 161.244L514.121 160.729L491.594 164.681L506.252 182.242Z" stroke="#08112C" stroke-width="2" stroke-linecap="round" stroke-linejoin="round"/>
</g>
<defs>
<filter id="filter0_f_151_759" x="276.258" y="51.1891" width="307.087" height="307.087" filterUnits="userSpaceOnUse" color-interpolation-filters="sRGB">
<feFlood flood-opacity="0" result="BackgroundImageFix"/>
<feBlend mode="normal" in="SourceGraphic" in2="BackgroundImageFix" result="shape"/>
<feGaussianBlur stdDeviation="30" result="effect1_foregroundBlur_151_759"/>
</filter>
<filter id="filter1_f_151_759" x="179.24" y="-33" width="292.715" height="317.849" filterUnits="userSpaceOnUse" color-interpolation-filters="sRGB">
<feFlood flood-opacity="0" result="BackgroundImageFix"/>
<feBlend mode="normal" in="SourceGraphic" in2="BackgroundImageFix" result="shape"/>
<feGaussianBlur stdDeviation="30" result="effect1_foregroundBlur_151_759"/>
</filter>
<filter id="filter2_f_151_759" x="117.734" y="1.37074" width="371.888" height="371.938" filterUnits="userSpaceOnUse" color-interpolation-filters="sRGB">
<feFlood flood-opacity="0" result="BackgroundImageFix"/>
<feBlend mode="normal" in="SourceGraphic" in2="BackgroundImageFix" result="shape"/>
<feGaussianBlur stdDeviation="30" result="effect1_foregroundBlur_151_759"/>
</filter>
<filter id="filter3_f_151_759" x="-23" y="1.37074" width="371.888" height="371.938" filterUnits="userSpaceOnUse" color-interpolation-filters="sRGB">
<feFlood flood-opacity="0" result="BackgroundImageFix"/>
<feBlend mode="normal" in="SourceGraphic" in2="BackgroundImageFix" result="shape"/>
<feGaussianBlur stdDeviation="30" result="effect1_foregroundBlur_151_759"/>
</filter>
<linearGradient id="paint0_linear_151_759" x1="336.258" y1="204.733" x2="523.345" y2="204.733" gradientUnits="userSpaceOnUse">
<stop stop-color="#00D67C"/>
<stop offset="0.661458" stop-color="#B6F3D7"/>
<stop offset="1" stop-color="#DBF059"/>
</linearGradient>
<linearGradient id="paint1_linear_151_759" x1="239.24" y1="125.924" x2="411.956" y2="125.924" gradientUnits="userSpaceOnUse">
<stop stop-color="#B6F3D7"/>
<stop offset="0.416667" stop-color="#66E6B0"/>
<stop offset="1" stop-color="#E2F37A"/>
</linearGradient>
<linearGradient id="paint2_linear_151_759" x1="177.734" y1="187.34" x2="429.622" y2="187.34" gradientUnits="userSpaceOnUse">
<stop stop-color="#00D67C"/>
<stop offset="0.661458" stop-color="#B6F3D7"/>
<stop offset="1" stop-color="#DBF059"/>
</linearGradient>
<linearGradient id="paint3_linear_151_759" x1="37" y1="187.34" x2="288.888" y2="187.34" gradientUnits="userSpaceOnUse">
<stop stop-color="#B6F3D7"/>
<stop offset="0.416667" stop-color="#66E6B0"/>
<stop offset="1" stop-color="#E2F37A"/>
</linearGradient>
<linearGradient id="paint4_linear_151_759" x1="400.142" y1="233.808" x2="415.883" y2="233.808" gradientUnits="userSpaceOnUse">
<stop stop-color="#00D67C"/>
<stop offset="0.661458" stop-color="#B6F3D7"/>
<stop offset="1" stop-color="#DBF059"/>
</linearGradient>
<linearGradient id="paint5_linear_151_759" x1="384.268" y1="233.808" x2="400.009" y2="233.808" gradientUnits="userSpaceOnUse">
<stop stop-color="#B6F3D7"/>
<stop offset="0.416667" stop-color="#66E6B0"/>
<stop offset="1" stop-color="#E2F37A"/>
</linearGradient>
<linearGradient id="paint6_linear_151_759" x1="369.064" y1="233.808" x2="384.805" y2="233.808" gradientUnits="userSpaceOnUse">
<stop stop-color="#00D67C"/>
<stop offset="0.661458" stop-color="#B6F3D7"/>
<stop offset="1" stop-color="#DBF059"/>
</linearGradient>
<radialGradient id="paint7_radial_151_759" cx="0" cy="0" r="1" gradientUnits="userSpaceOnUse" gradientTransform="translate(261.153 251.373) scale(33.7523 31.8898)">
<stop stop-color="#00D67C"/>
<stop offset="1" stop-color="#E6FBF2"/>
</radialGradient>
<radialGradient id="paint8_radial_151_759" cx="0" cy="0" r="1" gradientUnits="userSpaceOnUse" gradientTransform="translate(26.9664 232.052) scale(16.9664 16.9698)">
<stop stop-color="#DBF059"/>
<stop offset="0.27" stop-color="#E2F37A"/>
<stop offset="0.484375" stop-color="#E9F69B"/>
<stop offset="0.630208" stop-color="#F1F9BD"/>
<stop offset="0.760417" stop-color="#F8FCDE"/>
<stop offset="0.895833" stop-color="#FBFDEE"/>
<stop offset="1" stop-color="#F9F9F9"/>
</radialGradient>
<radialGradient id="paint9_radial_151_759" cx="0" cy="0" r="1" gradientUnits="userSpaceOnUse" gradientTransform="translate(143.974 98.6875) scale(24.9438 24.9487)">
<stop stop-color="#DBF059"/>
<stop offset="0.27" stop-color="#E2F37A"/>
<stop offset="0.484375" stop-color="#E9F69B"/>
<stop offset="0.630208" stop-color="#F1F9BD"/>
<stop offset="0.760417" stop-color="#F8FCDE"/>
<stop offset="0.895833" stop-color="#FBFDEE"/>
<stop offset="1" stop-color="#F9F9F9"/>
</radialGradient>
<radialGradient id="paint10_radial_151_759" cx="0" cy="0" r="1" gradientUnits="userSpaceOnUse" gradientTransform="translate(406.561 81.2333) scale(10.0224 10.0244)">
<stop stop-color="#00D67C"/>
<stop offset="0.24" stop-color="#33DE96"/>
<stop offset="0.38" stop-color="#66E6B0"/>
<stop offset="0.49" stop-color="#99EFCB"/>
<stop offset="0.59" stop-color="#CCF7E5"/>
<stop offset="0.68" stop-color="#E6FBF2"/>
<stop offset="0.99" stop-color="#F6F6F6"/>
<stop offset="1" stop-color="#F9F9F9"/>
</radialGradient>
<radialGradient id="paint11_radial_151_759" cx="0" cy="0" r="1" gradientUnits="userSpaceOnUse" gradientTransform="translate(375.755 60.93) scale(24.9449 24.9499)">
<stop stop-color="#00D67C"/>
<stop offset="0.24" stop-color="#33DE96"/>
<stop offset="0.38" stop-color="#66E6B0"/>
<stop offset="0.49" stop-color="#99EFCB"/>
<stop offset="0.630208" stop-color="#CCF7E5"/>
<stop offset="0.791667" stop-color="#E6FBF2"/>
<stop offset="1" stop-color="#F9F9F9" stop-opacity="0.1"/>
</radialGradient>
<clipPath id="clip0_151_759">
<rect width="565" height="345" fill="white"/>
</clipPath>
</defs>
</svg>
