<svg width="565" height="345" viewBox="0 0 565 345" fill="none" xmlns="http://www.w3.org/2000/svg">
<g clip-path="url(#clip0_151_905)">
<g filter="url(#filter0_f_151_905)">
<path d="M375.4 326.939C437.077 326.939 487.077 277.017 487.077 215.436C487.077 153.854 437.077 103.932 375.4 103.932C313.722 103.932 263.723 153.854 263.723 215.436C263.723 277.017 313.722 326.939 375.4 326.939Z" fill="url(#paint0_linear_151_905)"/>
</g>
<g opacity="0.4" filter="url(#filter1_f_151_905)">
<path d="M283.161 271.731C343.951 271.731 393.232 215.379 393.232 145.866C393.232 76.352 343.951 20 283.161 20C222.37 20 173.09 76.352 173.09 145.866C173.09 215.379 222.37 271.731 283.161 271.731Z" fill="url(#paint1_linear_151_905)"/>
</g>
<g opacity="0.44" filter="url(#filter2_f_151_905)">
<path d="M263.724 311.731C325.401 311.731 375.401 261.809 375.401 200.228C375.401 138.646 325.401 88.7247 263.724 88.7247C202.046 88.7247 152.047 138.646 152.047 200.228C152.047 261.809 202.046 311.731 263.724 311.731Z" fill="url(#paint2_linear_151_905)"/>
</g>
<g opacity="0.44" filter="url(#filter3_f_151_905)">
<path d="M146.677 311.731C208.355 311.731 258.354 261.809 258.354 200.228C258.354 138.646 208.355 88.7247 146.677 88.7247C84.9995 88.7247 35 138.646 35 200.228C35 261.809 84.9995 311.731 146.677 311.731Z" fill="url(#paint3_linear_151_905)"/>
</g>
<g opacity="0.44" filter="url(#filter4_f_151_905)">
<path d="M359.903 281.596C421.581 281.596 471.58 231.674 471.58 170.092C471.58 108.511 421.581 58.5892 359.903 58.5892C298.226 58.5892 248.226 108.511 248.226 170.092C248.226 231.674 298.226 281.596 359.903 281.596Z" fill="url(#paint4_linear_151_905)"/>
</g>
<path d="M301.978 205.15C302.053 188.817 305.165 172.498 311.161 157.002C313.795 150.198 317.105 143.38 322.85 138.186C328.596 132.992 337.238 129.678 345.352 131.305C364.507 135.15 366.271 157.95 368.977 171.244C372.935 190.695 375.382 210.374 376.285 230.106C376.42 233.058 376.096 236.679 372.75 237.8C371.092 238.355 369.22 238.048 367.801 237.124C364.934 235.256 364.278 232.231 364.073 229.359C363.556 222.127 365.386 214.929 367.493 207.914C372.032 192.803 377.915 177.991 385.071 163.649C388.704 156.368 394.157 148.234 403.305 147.342C415.253 146.178 419.981 155.109 422.348 163.612C429.646 189.826 433.06 216.281 433.326 243.2C433.394 250.042 433.261 257.069 430.33 263.429C429.643 264.918 428.253 266.636 426.284 265.926C425.526 265.652 424.973 265.077 424.715 264.406C421.774 256.767 424.066 248.514 426.923 240.947C429.038 235.345 431.523 229.848 434.377 224.493C436.725 220.087 439.632 215.503 444.655 213.314C451.573 210.298 460.453 213.082 465.456 218.181C470.46 223.279 472.33 230.111 473.264 236.736C475.599 253.317 471.282 283.571 448.425 288.329C430.522 292.056 410.282 281.072 401.768 267.917C392.924 254.252 392.23 237.524 396.349 222.288C397.231 219.024 399.588 215.038 403.437 215.537C406.391 215.92 407.863 218.788 408.574 221.285C411.975 233.248 410.024 245.948 405.69 257.686C401.284 269.613 393.917 281.37 381.654 288.097C369.393 294.823 351.465 294.933 341.561 285.769C335.486 280.147 333.325 272.222 332.108 264.617C329.27 246.893 330.493 228.134 340.001 212.222C341.092 210.395 342.66 208.374 345.475 208.928C346.196 209.07 346.852 209.387 347.433 209.78C352.23 213.029 352.647 218.855 352.447 224.001C352.03 234.731 350.346 245.425 347.431 255.865C345.918 261.278 344.04 266.695 340.654 271.44C334.365 280.251 323.139 286.028 311.305 287.82C310.886 287.883 310.468 287.942 310.047 287.995C291.85 290.339 274.418 280.763 269.058 265.614C267.475 261.136 266.089 256.69 265.507 253.437C263.074 239.843 262.063 226.419 263.69 212.679C264.111 209.129 264.735 205.456 267.015 202.475C269.295 199.495 273.687 197.42 277.635 198.51C280.339 199.256 282.327 201.326 283.39 203.591C284.452 205.858 284.722 208.331 284.98 210.765C286.639 226.4 285.009 241.039 280.94 256.409C278.828 264.388 276.184 275.958 268.16 281.327C259.781 286.934 246.63 287.087 236.72 285.587C224.887 283.795 213.66 278.018 207.371 269.207C203.985 264.462 202.106 259.045 200.594 253.632C197.678 243.193 195.993 232.5 195.577 221.768C195.377 216.621 195.793 210.796 200.592 207.547C201.173 207.152 201.829 206.837 202.55 206.695C205.365 206.141 206.932 208.162 208.024 209.989C217.531 225.899 218.755 244.66 215.917 262.384C214.7 269.991 212.539 277.915 206.463 283.536C196.559 292.698 178.632 292.589 166.371 285.864C154.109 279.139 146.74 267.38 142.335 255.453C137.999 243.715 136.048 231.015 139.45 219.052C140.16 216.555 141.633 213.687 144.588 213.304C148.437 212.805 150.794 216.791 151.676 220.055C155.793 235.291 155.101 252.019 146.256 265.684C137.743 278.839 117.503 289.823 99.5994 286.094C76.7425 281.335 72.4259 251.082 74.7608 234.501C75.6944 227.876 77.5649 221.045 82.5684 215.946C87.5719 210.847 96.4518 208.064 103.369 211.079C108.394 213.269 111.3 217.852 113.647 222.259C116.443 227.506 118.885 232.888 120.973 238.373C123.761 245.695 126.081 253.682 123.672 261.146C123.222 262.537 122.268 264.149 120.32 263.814C119.399 263.656 118.646 263.084 118.261 262.347C114.781 255.69 114.626 248.224 114.699 240.967C114.965 214.048 118.378 187.593 125.676 161.379C128.044 152.876 132.773 143.943 144.72 145.109C153.867 146.001 159.321 154.136 162.954 161.416C170.11 175.758 175.992 190.57 180.531 205.681C182.639 212.697 184.469 219.894 183.951 227.126C183.745 229.998 183.089 233.023 180.223 234.891C178.804 235.815 176.934 236.121 175.275 235.567C171.929 234.448 171.605 230.827 171.74 227.873C172.645 208.141 175.089 188.462 179.048 169.011C181.754 155.717 183.518 132.917 202.672 129.072C210.786 127.443 219.429 130.759 225.174 135.953C230.92 141.147 234.23 147.965 236.863 154.769C242.86 170.265 245.972 186.583 246.046 202.917C244.785 185.06 247.767 167.488 252.717 150.113C254.673 143.248 257.208 136.307 262.282 130.748C267.357 125.191 275.464 121.22 283.603 122.161C286.576 122.505 289.498 123.518 291.671 125.298C295.38 128.34 296.38 133.028 297.112 137.389C300.7 158.734 301.835 183.582 301.982 205.15H301.978Z" stroke="#08112C" stroke-width="2" stroke-linecap="round" stroke-linejoin="round"/>
<path d="M418.945 82L421.606 104.292L443.89 106.95L421.606 109.612L418.945 131.9L416.284 109.612L394 106.95L416.284 104.292L418.945 82Z" fill="url(#paint5_radial_151_905)"/>
<path d="M406 80.9964L406.96 89.0394L415 89.9982L406.96 90.9585L406 99L405.04 90.9585L397 89.9982L405.04 89.0394L406 80.9964Z" fill="url(#paint6_radial_151_905)"/>
<path d="M110.556 198.726L89.0713 179.764L83.3228 207.812L84.7756 179.219L59.2292 192.22L82.5246 175.528L56.417 163.69L84.0113 171.467L77.0035 143.705L88.1183 170.096L105.486 147.316L91.7528 172.448L120.419 171.802L92.1769 176.75L110.556 198.726Z" stroke="#08112C" stroke-width="2" stroke-linecap="round" stroke-linejoin="round"/>
<path d="M537.293 275.193L522.097 261.782L518.03 281.62L519.059 261.395L500.99 270.591L517.466 258.784L499 250.412L518.519 255.912L513.561 236.277L521.423 254.943L533.709 238.832L523.993 256.606L544.269 256.15L524.293 259.65L537.293 275.193Z" fill="#DBF059"/>
<path d="M537.293 275.193L522.097 261.782L518.03 281.62L519.059 261.395L500.99 270.591L517.466 258.784L499 250.412L518.519 255.912L513.561 236.277L521.423 254.943L533.709 238.832L523.993 256.606L544.269 256.15L524.293 259.65L537.293 275.193Z" stroke="#08112C" stroke-width="2" stroke-linecap="round" stroke-linejoin="round"/>
<path d="M116.945 98L119.606 120.292L141.89 122.95L119.606 125.612L116.945 147.9L114.284 125.612L92 122.95L114.284 120.292L116.945 98Z" fill="url(#paint7_radial_151_905)"/>
<path d="M394.348 282C394.348 282 496.482 239.978 484.155 90.6663C431.357 89.1813 402.742 63.4798 394.348 51.1145C385.969 63.4798 357.34 89.1813 304.556 90.6663C292.215 239.978 394.348 282 394.348 282Z" stroke="#08112C" stroke-width="2"/>
<path d="M176.446 135.114C180.922 125.363 186.098 115.387 191.647 105.979C194.627 100.925 197.75 95.9565 201.015 91.0815C212.653 72.6361 234.769 75.1799 236.746 96.8678V108.516L247.521 68.8833L280.377 71.0085L254.095 231.334L193.414 234.784L136.776 224.023L176.446 135.116V135.114Z" fill="#F1F9BD"/>
<path d="M176.446 135.114C180.922 125.363 186.098 115.387 191.647 105.979C194.627 100.925 197.75 95.9565 201.015 91.0815C212.653 72.6361 234.769 75.1799 236.746 96.8678V108.516L247.521 68.8833L280.377 71.0085L254.095 231.334L193.414 234.784L136.776 224.023L176.446 135.116V135.114Z" stroke="#08112C" stroke-width="2" stroke-linecap="round" stroke-linejoin="round"/>
<path d="M174.544 262.694L259.416 130.732C264.642 119.969 273.769 106.482 284.566 101.303C305.42 91.2988 315.302 103.293 321.908 121.853C292 194.333 244.596 310.705 175.853 308.907L174.542 262.694H174.544Z" fill="#F1F9BD"/>
<path d="M174.544 262.694L259.416 130.732C264.642 119.969 273.769 106.482 284.566 101.303C305.42 91.2988 315.302 103.293 321.908 121.853C292 194.333 244.596 310.705 175.853 308.907L174.542 262.694H174.544Z" stroke="#08112C" stroke-width="2" stroke-linecap="round" stroke-linejoin="round"/>
<path d="M321.908 121.854L347.399 234.781L297.917 245.923L278.853 165.093L321.908 121.854Z" fill="#F1F9BD"/>
<path d="M321.908 121.854L347.399 234.781L297.917 245.923L278.853 165.093" stroke="#08112C" stroke-width="2" stroke-linecap="round" stroke-linejoin="round"/>
<path d="M291.437 226.272L343.175 209.174C352.427 226.18 358.651 244.212 355.552 265.399L399.111 272.316C419.909 275.951 424.176 278.754 417.968 302.151H347.401C332.774 292.862 328.723 295.533 328.162 302.151H303.166C298.965 285.35 298.452 274.879 302.153 271.644C287.775 260.434 288.395 247.097 291.435 226.272H291.437Z" fill="#F1F9BD"/>
<path d="M291.437 226.272L343.175 209.174C352.427 226.18 358.651 244.212 355.552 265.399L399.111 272.316C419.909 275.951 424.176 278.754 417.968 302.151H347.401C332.774 292.862 328.723 295.533 328.162 302.151H303.166C298.965 285.35 298.452 274.879 302.153 271.644C287.775 260.434 288.395 247.097 291.435 226.272H291.437Z" stroke="#08112C" stroke-width="2" stroke-linecap="round" stroke-linejoin="round"/>
<path d="M153.097 153.593C136.289 183.737 120.777 213.439 127.833 235.472H186.992C201.678 175.759 201.876 167.906 191.818 153.593H153.097Z" fill="#F1F9BD"/>
<path d="M153.097 153.593C136.289 183.737 120.777 213.439 127.833 235.472H186.992C201.678 175.759 201.876 167.906 191.818 153.593H153.097Z" stroke="#08112C" stroke-width="2" stroke-linecap="round" stroke-linejoin="round"/>
<path d="M127.833 235.471C119.211 249.053 114.129 265.381 113.995 285.553C116.383 314.461 162.176 321.56 192.752 300.476L186.99 235.473H127.832L127.833 235.471Z" fill="#F1F9BD"/>
<path d="M127.833 235.471C119.211 249.053 114.129 265.381 113.995 285.553C116.383 314.461 162.176 321.56 192.752 300.476L186.99 235.473H127.832L127.833 235.471Z" stroke="#08112C" stroke-width="2" stroke-linecap="round" stroke-linejoin="round"/>
<path d="M153.731 267.671L222.073 130.733C227.299 119.971 236.425 106.484 247.223 101.305C268.077 91.3005 277.958 103.295 284.564 121.855C254.656 194.335 225.166 274.599 192.75 300.476L153.729 267.673L153.731 267.671Z" fill="#F1F9BD"/>
<path d="M153.731 267.671L222.073 130.733C227.299 119.971 236.426 106.484 247.223 101.305C268.077 91.3005 277.958 103.295 284.565 121.855C254.656 194.335 225.166 274.599 192.75 300.476" stroke="#08112C" stroke-width="2" stroke-linecap="round" stroke-linejoin="round"/>
<path d="M284.567 121.854L310.058 234.781L260.576 245.923L241.51 165.093L284.567 121.854Z" fill="#F1F9BD"/>
<path d="M284.567 121.854L310.058 234.781L260.576 245.923L241.51 165.093" stroke="#08112C" stroke-width="2" stroke-linecap="round" stroke-linejoin="round"/>
<path d="M254.093 226.272L305.831 209.174C315.084 226.18 321.308 244.212 318.209 265.399L361.768 272.316C382.566 275.951 386.832 278.754 380.624 302.151H310.058C295.431 292.862 291.38 295.533 290.819 302.151H265.822C261.622 285.35 261.109 274.879 264.81 271.644C250.431 260.434 251.052 247.097 254.092 226.272H254.093Z" fill="#F1F9BD"/>
<path d="M254.093 226.272L305.831 209.174C315.084 226.18 321.308 244.212 318.209 265.399L361.768 272.316C382.566 275.951 386.832 278.754 380.624 302.151H310.058C295.431 292.862 291.38 295.533 290.819 302.151H265.822C261.622 285.35 261.109 274.879 264.81 271.644C250.431 260.434 251.052 247.097 254.092 226.272H254.093Z" stroke="#08112C" stroke-width="2" stroke-linecap="round" stroke-linejoin="round"/>
<path d="M319.364 56.1517C311.898 47.7476 287.469 43.1979 273.3 46.2375C255.092 50.1433 249.988 60.5421 247.523 70.2421L269.154 77.5063C271.484 80.2304 274.419 82.6936 278.079 84.0653C281.97 85.5223 286.368 85.6447 290.633 85.6688L282.933 78.6896C290.013 84.5032 297.094 91.4309 304.173 97.2445C306.307 98.9977 308.554 100.809 311.406 101.575C313.017 102.008 315.121 101.933 315.986 100.72C316.863 99.4888 315.926 97.94 314.978 96.747C311.664 92.5804 308.189 88.3687 304.177 84.6513C305.504 84.1152 306.091 82.8643 305.941 81.6407C308.786 81.9643 311.482 80.3205 311.846 77.949C313.032 78.3113 314.399 77.9973 315.41 77.3678C316.419 76.7367 317.127 75.8303 317.735 74.9094C322.573 67.5583 325.352 62.891 319.365 56.1517H319.364Z" fill="#F1F9BD"/>
<path d="M247.521 68.8817C250.314 60.2523 255.09 50.1433 273.298 46.2391C287.467 43.1995 311.896 47.7509 319.362 56.1533C325.349 62.891 322.569 67.5599 317.732 74.911C317.125 75.8335 316.417 76.7399 315.406 77.3694C314.397 78.0005 313.028 78.3145 311.843 77.9506C311.48 80.3221 308.782 81.9659 305.938 81.6423C306.088 82.8643 305.501 84.1168 304.174 84.6529C308.186 88.3687 311.661 92.582 314.974 96.7486C315.924 97.9416 316.861 99.4904 315.982 100.722C315.118 101.934 313.013 102.01 311.403 101.577C308.548 100.811 306.304 99.001 304.169 97.2461C297.089 91.4325 290.008 84.5048 282.929 78.6912" stroke="#08112C" stroke-width="2" stroke-linecap="round" stroke-linejoin="round"/>
<path d="M290.631 85.6706C286.366 85.6464 281.968 85.5241 278.077 84.0671C274.415 82.6954 271.481 80.2321 269.152 77.5081" stroke="#08112C" stroke-width="2" stroke-linecap="round" stroke-linejoin="round"/>
<path d="M304.177 84.6531L296.784 75.4087" stroke="#08112C" stroke-width="2" stroke-linecap="round" stroke-linejoin="round"/>
<path d="M305.941 81.6424L308.466 66.5812" stroke="#08112C" stroke-width="2" stroke-linecap="round" stroke-linejoin="round"/>
<path d="M311.844 77.9507L317.042 64.2773" stroke="#08112C" stroke-width="2" stroke-linecap="round" stroke-linejoin="round"/>
<path d="M298.815 77.9507V68.4954" stroke="#08112C" stroke-width="2" stroke-linecap="round" stroke-linejoin="round"/>
<path d="M300.48 118.494L300.946 112.908C301.267 109.052 304.24 105.943 308.083 105.442L318.541 104.082C323.746 103.406 328.247 107.703 327.803 112.924L327.681 114.368L300.48 118.493V118.494Z" fill="#08112C"/>
<path d="M300.48 118.494L300.946 112.908C301.267 109.052 304.24 105.943 308.083 105.442L318.541 104.082C323.746 103.406 328.247 107.703 327.803 112.924L327.681 114.368L300.48 118.493V118.494Z" stroke="#08112C" stroke-width="2" stroke-linecap="round" stroke-linejoin="round"/>
<path d="M287.722 135.475V124.45C287.722 120.037 290.916 116.269 295.275 115.542L336.054 108.727C339.789 108.102 343.222 110.905 343.349 114.684L343.718 125.533L287.722 135.475Z" fill="#F1F9BD"/>
<path d="M287.722 135.475V124.45C287.722 120.037 290.916 116.269 295.275 115.542L336.054 108.727C339.789 108.102 343.222 110.905 343.349 114.684L343.718 125.533L287.722 135.475V135.475Z" stroke="#08112C" stroke-width="2" stroke-linecap="round" stroke-linejoin="round"/>
<path d="M339.242 125.694C339.982 124.828 341.014 124.269 341.852 123.498C342.691 122.727 343.357 121.57 343.016 120.483C342.22 118.817 340.727 118.271 338.551 118.823C338.361 118.934 339.733 116.337 338.626 115.176C337.519 114.016 335.867 114.003 334.303 114.367C334.685 112.919 333.854 111.251 332.468 110.683C331.081 110.115 329.509 110.596 328.098 111.105C323.491 112.765 319 115.434 314.609 117.599C314.193 115.719 312.358 114.396 310.457 114.072C308.556 113.748 306.61 114.246 304.804 114.917C299.807 116.773 295.419 119.935 291.101 123.059C284.803 127.615 278.466 132.123 272.204 136.731C267.743 140.013 263.495 142.448 262.657 148.301L254.424 182.942C258.206 149.641 228.632 136.666 203.88 160.692C199.396 165.044 195.757 170.186 193.03 175.805L181.738 199.078L185.58 176.149C186.5 170.667 185.434 165.013 182.46 160.315C177.797 152.948 171.355 152.202 163.401 157.089C156.079 161.587 150.865 168.829 148.742 177.146L119.828 290.391C117.258 300.456 123.934 310.646 134.236 312.098C144.569 313.555 157.949 308.751 168.154 296.188C186.008 278.066 200.825 241.931 214.758 200.547C208.831 227.526 203.824 254.505 204.167 281.468C206.023 307.999 230.057 314.812 248.814 299.352C255.752 293.633 260.659 285.83 262.984 277.15L291.725 157.839L340.998 130.36C342.125 129.92 342.75 128.497 342.312 127.372C341.873 126.247 340.369 125.256 339.24 125.693L339.242 125.694Z" fill="#F1F9BD"/>
<path d="M339.242 125.694C339.982 124.828 341.014 124.269 341.852 123.498C342.691 122.727 343.357 121.57 343.016 120.483C342.22 118.817 340.727 118.271 338.551 118.823C338.361 118.934 339.733 116.337 338.626 115.176C337.519 114.016 335.867 114.003 334.303 114.367C334.685 112.919 333.854 111.251 332.468 110.683C331.081 110.115 329.509 110.596 328.098 111.105C323.491 112.765 319 115.434 314.609 117.599C314.193 115.719 312.358 114.396 310.457 114.072C308.556 113.748 306.61 114.246 304.804 114.917C299.807 116.773 295.419 119.935 291.101 123.059C284.803 127.615 278.466 132.123 272.204 136.731C267.743 140.013 263.495 142.448 262.657 148.301L254.424 182.942C258.206 149.641 228.632 136.666 203.88 160.692C199.396 165.044 195.757 170.186 193.03 175.805L181.738 199.078L185.58 176.149C186.5 170.667 185.434 165.013 182.46 160.315C177.797 152.948 171.355 152.202 163.401 157.089C156.079 161.587 150.865 168.829 148.742 177.146L119.828 290.391C117.258 300.456 123.934 310.646 134.236 312.098C144.569 313.555 157.949 308.751 168.154 296.188C186.008 278.066 200.825 241.931 214.758 200.547C208.831 227.526 203.824 254.505 204.167 281.468C206.023 307.999 230.057 314.812 248.814 299.352C255.752 293.633 260.659 285.83 262.984 277.15L291.725 157.839L340.998 130.36C342.125 129.92 342.75 128.497 342.312 127.372C341.873 126.247 340.369 125.256 339.24 125.693L339.242 125.694Z" stroke="#08112C" stroke-width="2" stroke-linecap="round" stroke-linejoin="round"/>
<path d="M181.739 199.08L160.083 266.752" stroke="#08112C" stroke-width="2" stroke-linecap="round" stroke-linejoin="round"/>
<path d="M254.425 182.943L234.771 272.929" stroke="#08112C" stroke-width="2" stroke-linecap="round" stroke-linejoin="round"/>
<path d="M214.761 200.55L222.073 179.353" stroke="#08112C" stroke-width="2" stroke-linecap="round" stroke-linejoin="round"/>
<path d="M314.611 117.601C314.132 119.001 312.719 120.748 310.058 122.96L282.493 141.766" stroke="#08112C" stroke-width="2" stroke-linecap="round" stroke-linejoin="round"/>
<path d="M334.304 114.37L334.078 114.65C332.205 116.983 329.957 118.992 327.428 120.597L304.425 135.193" stroke="#08112C" stroke-width="2" stroke-linecap="round" stroke-linejoin="round"/>
<path d="M338.674 118.792L338.448 119.072C336.574 121.405 334.326 123.414 331.798 125.02L308.794 139.616" stroke="#08112C" stroke-width="2" stroke-linecap="round" stroke-linejoin="round"/>
<path d="M339.241 125.694C339.015 125.694 311.798 142.691 311.798 142.691" stroke="#08112C" stroke-width="2" stroke-linecap="round" stroke-linejoin="round"/>
<path d="M177.976 188.848L175.855 198.672L162.884 197.706C162.75 197.083 162.681 196.438 162.681 195.776C162.681 190.69 166.811 186.569 171.903 186.569C174.228 186.569 176.352 187.428 177.976 188.848Z" stroke="#08112C" stroke-width="2" stroke-linecap="round" stroke-linejoin="round"/>
<path d="M178.487 186.483L177.976 188.848L175.855 198.672L162.884 197.706L151.167 196.832L153.559 184.16L178.487 186.483Z" stroke="#08112C" stroke-width="2" stroke-linecap="round" stroke-linejoin="round"/>
<path d="M161.602 129.941C161.694 137.653 159.846 144.888 156.489 151.753L186.157 153.593C187.52 149.143 187.497 142.494 187.025 135.132L161.602 129.943V129.941Z" fill="#F1F9BD"/>
<path d="M161.602 129.941C161.694 137.653 159.846 144.888 156.489 151.753L186.157 153.593C187.52 149.143 187.497 142.494 187.025 135.132L161.602 129.943V129.941Z" stroke="#08112C" stroke-width="2" stroke-linecap="round" stroke-linejoin="round"/>
<path d="M170.496 134.035C172.79 135.541 179.401 138.218 182.063 138.886C184.727 139.554 187.656 139.479 190.094 138.217C192.946 136.739 194.82 133.791 195.655 130.692C196.49 127.592 196.563 121.631 196.331 118.43C198.133 118.029 199.412 117.372 200.394 116.975C202.935 115.949 201.961 113.565 199.317 114.426C198.469 114.701 197.316 114.756 195.992 115.212C195.702 109.76 194.58 103.911 189.532 100.902C186.88 99.3197 183.744 98.8061 180.693 98.3199C165.315 95.4832 153.919 102.174 153.879 119.177C153.873 121.74 154.498 124.279 155.778 126.499C158.26 130.803 162.124 132.387 170.494 134.035H170.496Z" fill="#F1F9BD"/>
<path d="M177.877 137.47C179.535 138.11 181.073 138.637 182.063 138.886C184.727 139.554 187.656 139.479 190.094 138.217C192.946 136.739 194.82 133.791 195.655 130.692C196.49 127.592 196.563 121.631 196.331 118.43C198.133 118.029 199.412 117.372 200.394 116.975C202.935 115.949 201.961 113.565 199.317 114.426C198.469 114.701 197.316 114.756 195.992 115.212C195.702 109.76 194.58 103.911 189.532 100.902C186.88 99.3197 183.744 98.8061 180.693 98.3199C165.315 95.4832 153.919 102.174 153.879 119.177C153.873 121.74 154.498 124.279 155.778 126.499C157.27 129.086 159.261 130.69 162.432 131.917" stroke="#08112C" stroke-width="2" stroke-linecap="round" stroke-linejoin="round"/>
<path d="M195.208 121.586C195.204 121.594 195.201 121.603 195.196 121.611C195.104 121.843 194.945 122.052 194.725 122.173C194.548 122.27 194.342 122.304 194.139 122.299C193.165 122.281 192.405 121.476 191.838 120.686C191.286 119.918 190.383 118.329 191.415 117.525C191.475 117.477 191.542 117.432 191.618 117.39C191.973 117.192 192.421 117.26 192.794 117.419C193.621 117.776 194.206 118.527 194.682 119.291C195.114 119.982 195.498 120.824 195.208 121.586V121.586Z" stroke="#08112C" stroke-width="2" stroke-linecap="round" stroke-linejoin="round"/>
<path d="M195.209 121.586C195.205 121.594 195.202 121.603 195.197 121.611C193.911 120.219 192.435 118.623 191.416 117.525C191.476 117.477 191.543 117.432 191.619 117.39C191.974 117.192 192.422 117.26 192.795 117.419C193.622 117.776 194.207 118.527 194.683 119.291C195.115 119.982 195.499 120.824 195.209 121.586V121.586Z" stroke="#08112C" stroke-width="2" stroke-linecap="round" stroke-linejoin="round"/>
<path d="M193.234 113.346C193.781 114.043 193.871 114.882 193.439 115.22C193.007 115.558 192.212 115.268 191.665 114.572C191.119 113.875 191.028 113.037 191.46 112.698C191.894 112.36 192.688 112.65 193.234 113.346Z" fill="#08112C"/>
<path d="M190.514 101.556C190.884 99.7962 191.254 98.0349 191.625 96.2752C192.039 94.3094 193.474 90.9366 190.855 89.9448C189.902 89.5842 188.84 89.7017 187.842 89.9013C186.844 90.1026 185.844 90.3843 184.826 90.3376C182.719 90.2394 180.948 88.7792 178.947 88.1111C177.077 87.488 174.976 87.5862 173.173 88.3848C170.253 89.6759 168.152 92.6785 165.007 93.2436C163.193 93.5688 161.329 93.0086 159.491 93.1503C157.216 93.3257 155.058 94.6475 153.873 96.594C153.22 97.6662 152.859 98.8882 152.278 100.001C151.698 101.113 150.811 102.171 149.594 102.478C148.899 102.654 148.163 102.567 147.452 102.665C146.132 102.847 144.924 103.708 144.324 104.897C143.065 107.389 145.079 109.929 146.125 112.133C147.309 114.629 148.549 117.102 149.921 119.501C151.088 121.54 152.349 123.543 153.831 125.372C154.442 126.126 155.091 126.853 155.798 127.518C156.198 127.893 157.522 128.581 157.717 129.035L161.136 137.035C167.312 137.279 171.83 123.278 176.848 113.566C179.108 111.612 179.85 108.645 179.163 104.728C178.747 102.35 180.416 100.097 182.824 99.8848C184.807 99.7109 187.322 100.278 190.177 101.316L190.515 101.559L190.514 101.556Z" fill="#08112C"/>
<path d="M178.486 121.854L184.62 124.965" stroke="#08112C" stroke-width="2" stroke-linecap="round" stroke-linejoin="round"/>
<path d="M189.651 127.679C190.07 126.863 189.327 125.647 187.991 124.964C186.656 124.28 185.234 124.389 184.815 125.205C184.395 126.022 185.138 127.238 186.474 127.921C187.809 128.604 189.232 128.496 189.651 127.679Z" fill="#F1F9BD"/>
<path d="M189.651 127.679C190.07 126.863 189.327 125.647 187.991 124.964C186.656 124.28 185.234 124.389 184.815 125.205C184.395 126.022 185.138 127.238 186.474 127.921C187.809 128.604 189.232 128.496 189.651 127.679Z" stroke="#08112C" stroke-width="2" stroke-linecap="round" stroke-linejoin="round"/>
<path d="M157.89 122.313L142.199 140.253L147.111 145.267L162.889 126.839L157.89 122.313Z" fill="#08112C"/>
<path d="M176.13 125.026C181.075 120.517 181.714 113.179 177.559 108.636C173.403 104.094 166.026 104.068 161.081 108.577C156.137 113.087 155.497 120.425 159.653 124.967C163.809 129.509 171.186 129.536 176.13 125.026Z" fill="#F1F9BD"/>
<path d="M176.13 125.026C181.075 120.517 181.714 113.179 177.559 108.636C173.403 104.094 166.026 104.068 161.081 108.577C156.137 113.087 155.497 120.425 159.653 124.967C163.809 129.509 171.186 129.536 176.13 125.026Z" stroke="#08112C" stroke-width="2" stroke-linecap="round" stroke-linejoin="round"/>
<path d="M173.135 121.751C176.112 119.036 176.497 114.619 173.995 111.885C171.494 109.15 167.053 109.135 164.076 111.849C161.1 114.564 160.714 118.981 163.216 121.716C165.718 124.45 170.158 124.466 173.135 121.751Z" stroke="#08112C" stroke-width="2" stroke-linecap="round" stroke-linejoin="round"/>
<path d="M190.942 110.429L193.361 108.64" stroke="#08112C" stroke-width="2" stroke-linecap="round" stroke-linejoin="round"/>
<path d="M156.123 139.793H191.818V153.593H153.098L156.123 139.793Z" fill="#F1F9BD"/>
<path d="M156.123 139.793H191.818V153.593H153.098L156.123 139.793Z" stroke="#08112C" stroke-width="2" stroke-linecap="round" stroke-linejoin="round"/>
<path d="M260.79 156.161L290.631 162.388" stroke="#08112C" stroke-width="2" stroke-linecap="round" stroke-linejoin="round"/>
<path d="M258.762 164.699L288.335 171.918" stroke="#08112C" stroke-width="2" stroke-linecap="round" stroke-linejoin="round"/>
<path d="M263.656 292.334H420.587" stroke="#08112C" stroke-width="2" stroke-linecap="round" stroke-linejoin="round"/>
<path d="M243.979 81.6422L277.638 87.7053" stroke="#08112C" stroke-width="2" stroke-linecap="round" stroke-linejoin="round"/>
<path d="M240.869 93.2018L275.711 99.4678" stroke="#08112C" stroke-width="2" stroke-linecap="round" stroke-linejoin="round"/>
</g>
<defs>
<filter id="filter0_f_151_905" x="203.723" y="43.9325" width="343.354" height="343.006" filterUnits="userSpaceOnUse" color-interpolation-filters="sRGB">
<feFlood flood-opacity="0" result="BackgroundImageFix"/>
<feBlend mode="normal" in="SourceGraphic" in2="BackgroundImageFix" result="shape"/>
<feGaussianBlur stdDeviation="30" result="effect1_foregroundBlur_151_905"/>
</filter>
<filter id="filter1_f_151_905" x="113.09" y="-40" width="340.142" height="371.731" filterUnits="userSpaceOnUse" color-interpolation-filters="sRGB">
<feFlood flood-opacity="0" result="BackgroundImageFix"/>
<feBlend mode="normal" in="SourceGraphic" in2="BackgroundImageFix" result="shape"/>
<feGaussianBlur stdDeviation="30" result="effect1_foregroundBlur_151_905"/>
</filter>
<filter id="filter2_f_151_905" x="92.0469" y="28.7247" width="343.354" height="343.006" filterUnits="userSpaceOnUse" color-interpolation-filters="sRGB">
<feFlood flood-opacity="0" result="BackgroundImageFix"/>
<feBlend mode="normal" in="SourceGraphic" in2="BackgroundImageFix" result="shape"/>
<feGaussianBlur stdDeviation="30" result="effect1_foregroundBlur_151_905"/>
</filter>
<filter id="filter3_f_151_905" x="-25" y="28.7247" width="343.354" height="343.006" filterUnits="userSpaceOnUse" color-interpolation-filters="sRGB">
<feFlood flood-opacity="0" result="BackgroundImageFix"/>
<feBlend mode="normal" in="SourceGraphic" in2="BackgroundImageFix" result="shape"/>
<feGaussianBlur stdDeviation="30" result="effect1_foregroundBlur_151_905"/>
</filter>
<filter id="filter4_f_151_905" x="188.226" y="-1.41077" width="343.354" height="343.006" filterUnits="userSpaceOnUse" color-interpolation-filters="sRGB">
<feFlood flood-opacity="0" result="BackgroundImageFix"/>
<feBlend mode="normal" in="SourceGraphic" in2="BackgroundImageFix" result="shape"/>
<feGaussianBlur stdDeviation="30" result="effect1_foregroundBlur_151_905"/>
</filter>
<linearGradient id="paint0_linear_151_905" x1="263.723" y1="215.436" x2="487.077" y2="215.436" gradientUnits="userSpaceOnUse">
<stop stop-color="#00D67C"/>
<stop offset="0.661458" stop-color="#B6F3D7"/>
<stop offset="1" stop-color="#DBF059"/>
</linearGradient>
<linearGradient id="paint1_linear_151_905" x1="173.09" y1="145.866" x2="393.232" y2="145.866" gradientUnits="userSpaceOnUse">
<stop stop-color="#00D67C"/>
<stop offset="0.661458" stop-color="#B6F3D7"/>
<stop offset="1" stop-color="#DBF059"/>
</linearGradient>
<linearGradient id="paint2_linear_151_905" x1="152.047" y1="200.228" x2="375.401" y2="200.228" gradientUnits="userSpaceOnUse">
<stop stop-color="#00D67C"/>
<stop offset="0.661458" stop-color="#B6F3D7"/>
<stop offset="1" stop-color="#DBF059"/>
</linearGradient>
<linearGradient id="paint3_linear_151_905" x1="35" y1="200.228" x2="258.354" y2="200.228" gradientUnits="userSpaceOnUse">
<stop stop-color="#00D67C"/>
<stop offset="0.661458" stop-color="#B6F3D7"/>
<stop offset="1" stop-color="#DBF059"/>
</linearGradient>
<linearGradient id="paint4_linear_151_905" x1="248.226" y1="170.092" x2="471.58" y2="170.092" gradientUnits="userSpaceOnUse">
<stop stop-color="#00D67C"/>
<stop offset="0.661458" stop-color="#B6F3D7"/>
<stop offset="1" stop-color="#DBF059"/>
</linearGradient>
<radialGradient id="paint5_radial_151_905" cx="0" cy="0" r="1" gradientUnits="userSpaceOnUse" gradientTransform="translate(418.945 106.95) scale(24.9449 24.9499)">
<stop stop-color="#00D67C"/>
<stop offset="0.24" stop-color="#33DE96"/>
<stop offset="0.38" stop-color="#66E6B0"/>
<stop offset="0.49" stop-color="#99EFCB"/>
<stop offset="0.630208" stop-color="#CCF7E5"/>
<stop offset="0.791667" stop-color="#E6FBF2"/>
<stop offset="1" stop-color="#F9F9F9" stop-opacity="0.1"/>
</radialGradient>
<radialGradient id="paint6_radial_151_905" cx="0" cy="0" r="1" gradientUnits="userSpaceOnUse" gradientTransform="translate(406 89.9982) scale(9 9.0018)">
<stop stop-color="#00D67C"/>
<stop offset="0.24" stop-color="#33DE96"/>
<stop offset="0.38" stop-color="#66E6B0"/>
<stop offset="0.49" stop-color="#99EFCB"/>
<stop offset="0.630208" stop-color="#CCF7E5"/>
<stop offset="0.791667" stop-color="#E6FBF2"/>
<stop offset="1" stop-color="#F9F9F9" stop-opacity="0.1"/>
</radialGradient>
<radialGradient id="paint7_radial_151_905" cx="0" cy="0" r="1" gradientUnits="userSpaceOnUse" gradientTransform="translate(116.945 122.95) scale(24.9449 24.9499)">
<stop stop-color="#00D67C"/>
<stop offset="0.24" stop-color="#33DE96"/>
<stop offset="0.38" stop-color="#66E6B0"/>
<stop offset="0.49" stop-color="#99EFCB"/>
<stop offset="0.630208" stop-color="#CCF7E5"/>
<stop offset="0.791667" stop-color="#E6FBF2"/>
<stop offset="1" stop-color="#F9F9F9" stop-opacity="0.1"/>
</radialGradient>
<clipPath id="clip0_151_905">
<rect width="565" height="345" fill="white"/>
</clipPath>
</defs>
</svg>
