<svg width="22" height="23" viewBox="0 0 22 23" fill="none" xmlns="http://www.w3.org/2000/svg">
<path d="M18.3945 21.4416C17.7537 21.4416 17.1984 21.2146 16.7498 20.7634L9.28207 12.6843L8.25148 13.7149L8.26483 13.7736C8.46508 14.5879 8.24347 15.4423 7.68546 16.0003C7.23425 16.4515 6.68157 16.6785 6.03813 16.6785C5.39201 16.6785 4.84734 16.4408 4.50026 16.0083L4.49492 16.0003L1.65146 13.4692C0.781067 12.5935 0.783737 11.1491 1.6568 10.1772C2.10801 9.72867 2.66069 9.49906 3.30146 9.49906C3.49637 9.49906 3.68326 9.49906 3.86215 9.58984L3.93156 9.62454L9.08984 4.4636L9.07649 4.40487C8.87624 3.59054 9.09785 2.73617 9.65586 2.17816C10.1071 1.72961 10.6597 1.5 11.3032 1.5C11.9493 1.5 12.494 1.73762 12.8411 2.17015L12.8437 2.17549L15.5831 4.91215C16.4561 5.78788 16.4535 7.23497 15.5804 8.20682C15.1292 8.65537 14.5765 8.88498 13.9357 8.88498C13.7408 8.88498 13.5539 8.88498 13.375 8.7942L13.3056 8.75949L12.2617 9.80343L20.3435 17.2712C20.7467 17.6289 20.9896 18.1656 21.0057 18.745C21.0243 19.3297 20.8188 19.8823 20.4423 20.2588L19.8362 20.8675C19.4865 21.2146 18.9205 21.4416 18.3945 21.4416ZM17.6042 20.2027C17.8311 20.435 18.1702 20.5391 18.3865 20.5391C18.5974 20.5391 18.8377 20.5391 19.07 20.3042L19.6787 19.6955C19.8389 19.5379 19.927 19.311 19.927 19.0547C19.927 18.753 19.8015 18.4513 19.5799 18.227L11.5755 10.6258L11.5675 10.6204C11.2712 10.4228 11.2097 10.009 11.2097 9.69663C11.2097 9.29881 11.3192 9.02648 11.5835 8.75949L12.494 7.84905C12.7476 7.59274 13.0119 7.47526 13.3297 7.47526H13.9384C14.2882 7.47526 14.6085 7.35245 14.8221 7.13886C15.0357 6.92526 15.1585 6.62089 15.1585 6.30317C15.1585 5.98545 15.0357 5.68108 14.8221 5.46749L14.8195 5.46482L12.0855 2.93641C11.8505 2.70146 11.6156 2.60267 11.3005 2.60267C10.9508 2.60267 10.6304 2.72549 10.4168 2.93908C10.0991 3.2568 9.96824 3.69467 10.0857 4.05244C10.1818 4.54103 10.0697 4.90414 9.70658 5.26725L4.84467 10.3294C4.5937 10.583 4.32671 10.7032 4.01166 10.7032H3.40292C3.05316 10.7032 2.73277 10.826 2.51918 11.0396C2.30559 11.2532 2.18277 11.5576 2.18277 11.8753C2.18277 12.193 2.30559 12.4974 2.51918 12.711L5.25584 15.445C5.48812 15.6799 5.72308 15.7814 6.03813 15.7814C6.38788 15.7814 6.70827 15.6585 6.92187 15.445C7.23692 15.1326 7.37041 14.6867 7.25294 14.3316C7.15682 13.843 7.26895 13.4799 7.63206 13.1168L8.53449 12.2144C8.81483 12.0248 9.10585 11.8326 9.37552 11.8326C9.74129 11.8326 10.0216 12.0168 10.318 12.2144L17.6042 20.2027ZM1.6034 21.4416C1.25364 21.4416 1 21.1879 1 20.8382V20.7367C1 20.395 1.25898 20.136 1.6034 20.136H11.8105C12.0721 20.2294 12.3311 20.4991 12.3338 20.8382C12.3338 21.1879 12.0801 21.4416 11.7304 21.4416H1.6034Z" fill="#00AF7C" stroke="#00AF7C"/>
</svg>
