<svg width="36" height="36" viewBox="0 0 36 36" fill="none" xmlns="http://www.w3.org/2000/svg">
<path d="M9.76569 24.7885C9.38386 25.1704 9.36726 25.851 9.774 26.2495C10.1807 26.6396 10.8448 26.6396 11.2349 26.2495L18.0001 19.4843L24.7569 26.2495C25.1553 26.6396 25.8194 26.6479 26.2178 26.2412C26.6163 25.8427 26.6163 25.1787 26.2261 24.7885L19.461 18.0234L26.2261 11.2582C26.6163 10.8681 26.6246 10.1957 26.2178 9.80561C25.8111 9.40717 25.1553 9.40717 24.7569 9.79731L18.0001 16.5624L11.2349 9.79731C10.8448 9.40717 10.1724 9.39887 9.774 9.79731C9.37556 10.204 9.38386 10.8764 9.76569 11.2582L16.5308 18.0234L9.76569 24.7885Z" fill="#F9F9F9"/>
</svg>
