<svg width="80" height="80" viewBox="0 0 80 80" fill="none" xmlns="http://www.w3.org/2000/svg">
<circle opacity="0.098329" cx="40" cy="40" r="40" fill="#D00000"/>
<path fill-rule="evenodd" clip-rule="evenodd" d="M24.001 39.9768C24.001 31.1586 31.151 24.0125 39.9654 24.0125C48.7836 24.0125 55.9337 31.1586 55.9337 39.9768C55.9337 48.7951 48.7876 55.9452 39.9693 55.9452C31.1511 55.9452 24.001 48.7951 24.001 39.9768ZM25.8782 39.9768C25.8782 47.7579 32.1843 54.064 39.9654 54.064C47.7465 54.064 54.0565 47.7579 54.0525 39.9768C54.0525 32.1957 47.7465 25.8896 39.9654 25.8896C32.1843 25.8896 25.8782 32.1957 25.8782 39.9768ZM39.9654 31.9946C39.2318 31.9946 38.6363 32.5901 38.6363 33.3237V41.9723C38.6363 42.7059 39.2318 43.3014 39.9654 43.3014C40.6989 43.3014 41.2944 42.7059 41.2944 41.9723V33.3237C41.2983 32.5901 40.7028 31.9946 39.9654 31.9946ZM38.6363 46.626C38.6363 45.8925 39.2318 45.297 39.9654 45.297C40.7028 45.297 41.2983 45.8964 41.2944 46.626C41.2944 47.3596 40.6989 47.9551 39.9654 47.9551C39.2318 47.9551 38.6363 47.3596 38.6363 46.626Z" fill="#FF4B4B"/>
</svg>
