<?xml version="1.0" encoding="UTF-8"?>
<svg width="32px" height="32px" viewBox="0 0 32 32" version="1.1" xmlns="http://www.w3.org/2000/svg" xmlns:xlink="http://www.w3.org/1999/xlink">
    <title>编组</title>
    <g id="Page-1" stroke="none" stroke-width="1" fill="none" fill-rule="evenodd">
        <g id="报错" transform="translate(-944.000000, -462.000000)" fill="#FF4B4B" fill-rule="nonzero">
            <g id="编组-2" transform="translate(735.000000, 302.000000)">
                <g id="编组-5" transform="translate(185.000000, 136.000000)">
                    <g id="编组" transform="translate(24.000000, 24.000000)">
                        <path d="M16,25.1428572 C14.7376349,25.1428572 13.7142857,24.119508 13.7142857,22.8571429 C13.7142857,21.5947777 14.7376349,20.5714286 16,20.5714286 C17.2623651,20.5714286 18.2857143,21.5947777 18.2857143,22.8571429 C18.2857143,24.119508 17.2623651,25.1428572 16,25.1428572 Z M16,29.7142857 C20.8996424,29.7142857 25.4270988,27.1003577 27.87692,22.8571429 C30.3267412,18.6139281 30.3267412,13.3860719 27.87692,9.14285708 C25.4270988,4.89964228 20.8996424,2.28571428 16,2.28571428 C8.42580914,2.28571428 2.28571428,8.42580914 2.28571428,16 C2.28571428,23.5741909 8.42580914,29.7142857 16,29.7142857 Z M16,32 C7.163444,32 0,24.836556 0,16 C0,7.163444 7.163444,0 16,0 C24.836556,0 32,7.163444 32,16 C32,24.836556 24.836556,32 16,32 Z M16,6.85714284 C16.5842065,6.85747448 17.1410331,7.10482201 17.5329281,7.53808369 C17.9248231,7.97134536 18.1152408,8.550118 18.0571428,9.13142856 L17.2571428,17.1474286 C17.2014165,17.8002839 16.6552294,18.3018358 16,18.3018358 C15.3447706,18.3018358 14.7985835,17.8002839 14.7428572,17.1474286 L13.9428572,9.13142856 C13.8847592,8.550118 14.0751769,7.97134536 14.4670719,7.53808369 C14.8589669,7.10482201 15.4157935,6.85747448 16,6.85714284 Z" id="形状"></path>
                    </g>
                </g>
            </g>
        </g>
    </g>
</svg>