<svg width="101" height="86" viewBox="0 0 101 86" fill="none" xmlns="http://www.w3.org/2000/svg">
<path d="M20.2254 24L27.1035 4.65969C27.6706 3.06511 29.1798 2 30.8723 2H94.332C97.0959 2 99.0269 4.73622 98.1008 7.3403L86.4859 40M17.3803 32L14.5352 40M11.6902 48L7.8992 58.6597C6.9731 61.2638 8.9041 64 11.668 64H40H46M69 34C52.9837 34 40 46.9837 40 63C40 65.9483 40.44 68.7938 41.2578 71.4744C41.7313 73.0266 43.2187 74 44.8415 74H93.1585C94.7813 74 96.2687 73.0266 96.7422 71.4744C97.56 68.7938 98 65.9483 98 63C98 46.9837 85.0163 34 69 34ZM69 34V40M2 32H48M23 16L95 16M2 48H28M14 74H34M35 84H52M60 84H64M74.5987 61.0343L86.2227 54.3232M92 64H98M49 43L53.2426 47.2426M87.2427 43L83 47.2426M73 63C73 65.2091 71.2091 67 69 67C66.7909 67 65 65.2091 65 63C65 60.7909 66.7909 59 69 59C71.2091 59 73 60.7909 73 63Z" stroke="#00D67C" stroke-width="4" stroke-linecap="round" stroke-linejoin="round"/>
</svg>
