<svg width="16" height="16" viewBox="0 0 16 16" fill="none" xmlns="http://www.w3.org/2000/svg">
<g clip-path="url(#clip0_571_5641)">
<path d="M8.00869 0.000441439C10.1062 0.000441439 12.2037 -0.00104229 14.3007 0.00143059C15.2859 0.00241974 16.0366 0.770989 15.9981 1.7364C15.9812 2.15382 15.818 2.51239 15.5376 2.821C13.7898 4.7454 12.0449 6.67325 10.2921 8.59319C10.1349 8.7653 10.0701 8.93346 10.0725 9.16541C10.0844 10.1358 10.0735 11.1066 10.0805 12.077C10.0824 12.3411 9.98451 12.5354 9.78025 12.6982C8.84798 13.4395 7.91966 14.1858 6.99134 14.9327C6.82764 15.0642 6.65602 15.1661 6.43594 15.133C6.12831 15.0865 5.93147 14.8327 5.93147 14.4796C5.93098 12.7921 5.91861 11.1041 5.94037 9.41715C5.94581 9.00616 5.83404 8.7104 5.55312 8.40575C3.85327 6.56197 2.17567 4.69841 0.491639 2.84128C-0.00293653 2.29527 -0.14389 1.67013 0.158295 0.99157C0.457018 0.321421 1.0055 0.00192516 1.735 0.000936014C3.82656 -0.000547711 5.91762 0.000441439 8.00869 0.000441439ZM7.11598 13.2862C7.15851 13.2649 7.17632 13.26 7.18967 13.2496C7.72777 12.8159 8.26784 12.3836 8.8005 11.9429C8.8549 11.8979 8.88903 11.798 8.88952 11.7234C8.89546 10.7278 8.89744 9.73269 8.89051 8.73711C8.88853 8.49279 8.96223 8.29892 9.12593 8.1184C10.9034 6.16186 12.677 4.20136 14.4515 2.24186C14.5138 2.17311 14.5742 2.10288 14.638 2.03611C14.7923 1.87488 14.8571 1.68942 14.7636 1.47774C14.6671 1.25914 14.4842 1.18693 14.2527 1.18693C10.0943 1.18891 5.93543 1.1894 1.77704 1.18693C1.5342 1.18693 1.33538 1.24578 1.23251 1.48367C1.13261 1.71612 1.23251 1.89763 1.3883 2.06925C3.22268 4.09107 5.05409 6.11586 6.88946 8.1367C7.04327 8.30634 7.11993 8.48933 7.11845 8.72079C7.11251 9.72873 7.11598 10.7362 7.11598 11.7441V13.2872V13.2862Z" fill="#00AF7C"/>
</g>
<defs>
<clipPath id="clip0_571_5641">
<rect width="16" height="15.1384" fill="white"/>
</clipPath>
</defs>
</svg>
