<svg width="104" height="104" viewBox="0 0 104 104" fill="none" xmlns="http://www.w3.org/2000/svg">
<path d="M74.819 10.3333C77.0663 10.3333 78.9857 8.41392 78.9857 6.16667C78.9857 3.91941 77.0663 2 74.819 2C72.5718 2 70.6523 3.91941 70.6523 6.16667C70.6523 8.41392 72.5718 10.3333 74.819 10.3333ZM74.819 10.3333V19.8891M93.6667 48.875C93.6667 51.1223 95.5861 53.0417 97.8333 53.0417C100.081 53.0417 102 51.1223 102 48.875C102 46.6277 100.081 44.7083 97.8333 44.7083C95.5861 44.7083 93.6667 46.6277 93.6667 48.875ZM93.6667 48.875L85.3658 48.875M14.4023 48.875C14.4023 51.1223 12.4829 53.0417 10.2356 53.0417C7.98836 53.0417 6.06895 51.1223 6.06895 48.875C6.06895 46.6277 7.98836 44.7246 10.2356 44.7246C12.4829 44.7246 14.4023 46.6277 14.4023 48.875ZM14.4023 48.875H16.7298H18.569M35.3333 93.6667C33.0861 93.6667 31.1667 95.5861 31.1667 97.8333C31.1667 100.081 33.0861 102 35.3333 102C37.5806 102 39.5 100.081 39.5 97.8333C39.5 95.5861 37.5806 93.6667 35.3333 93.6667ZM35.3333 93.6667L35.3333 83.0009M89.5 62.4167C89.5 64.6639 91.4194 66.5833 93.6667 66.5833C95.9139 66.5833 97.8333 64.6639 97.8333 62.4167C97.8333 60.1694 95.9139 58.25 93.6667 58.25C91.4194 58.25 89.5 60.1694 89.5 62.4167ZM89.5 62.4167L84.8125 62.4167M10.2357 35.3333C10.2357 37.5806 8.31626 39.5 6.06901 39.5C3.82176 39.5 2 37.6945 2 35.4473C2 33.2 3.91941 31.2806 6.16667 31.2806C8.41392 31.2806 10.2357 33.0861 10.2357 35.3333ZM10.2357 35.3333H14.5895H18.569M58.1523 46.7917V42.625C58.1523 39.1418 55.3856 36.375 51.9023 36.375C48.4191 36.375 45.6523 39.1418 45.6523 42.625V46.7917M52 11.375C62.1733 11.375 72.2229 20.0952 81.376 22.321C83.5226 22.8431 85.3333 24.6242 85.3333 26.8333V57.2083C85.3333 74.2178 57.3616 92.625 52 92.625C46.6384 92.625 18.6667 74.2178 18.6667 57.2083L18.569 39.9964L18.644 26.8106C18.6566 24.6104 20.4636 22.8441 22.6021 22.3263C31.7611 20.1091 41.8185 11.375 52 11.375ZM44.5781 64.5H59.194C60.9918 64.5 62.319 63.1728 62.319 61.375V49.9167C62.319 48.1189 60.9918 46.7917 59.194 46.7917H44.6107C42.8129 46.7917 41.4857 48.1189 41.4857 49.9167V61.375C41.4857 63.1728 42.7803 64.5 44.5781 64.5Z" stroke="#00D67C" stroke-width="4" stroke-linecap="round" stroke-linejoin="round"/>
</svg>
