<svg width="100" height="100" viewBox="0 0 100 100" fill="none" xmlns="http://www.w3.org/2000/svg">
<path d="M51.6369 62.2133C51.6372 62.2122 51.6374 62.2111 51.6377 62.21L51.6423 62.2145L51.6369 62.2133C51.4076 63.1888 51.0777 64.1232 50.6608 65.0072L45.4414 62.531C45.8863 62.0724 46.2853 61.5725 46.6385 61.0406L51.6369 62.2133Z" fill="#00D67C"/>
<path d="M44.6159 63.2922C44.7214 63.205 44.8269 63.1133 44.9278 63.0216H44.9324L50.1196 66.0344C49.6334 66.8644 49.0693 67.644 48.4272 68.3547L43.6115 64.035L43.9554 63.8012C44.1802 63.6407 44.4003 63.471 44.6159 63.2922Z" fill="#00D67C"/>
<path d="M43.0152 64.3927C43.0142 64.3933 43.0132 64.3938 43.0122 64.3944L47.5466 69.2489C46.8678 69.8863 46.1248 70.4504 45.3268 70.941L41.6806 65.0118C42.1427 64.8379 42.5866 64.6276 43.0122 64.3944L43.0106 64.3927H43.0152Z" fill="#00D67C"/>
<path d="M39.7543 65.5346C40.1946 65.4612 40.6257 65.3603 41.0431 65.2319H41.0477L44.1618 71.583C43.3546 71.9774 42.5061 72.2984 41.621 72.5323L39.7543 65.5346Z" fill="#00D67C"/>
<path d="M39.0755 65.6309C39.0742 65.631 39.073 65.6311 39.0717 65.6312L40.2313 72.8257C39.5892 72.9266 38.9333 72.9862 38.2637 73H37.9977H37.7317H37.617L37.6173 72.9904C37.1174 72.9763 36.622 72.9352 36.1356 72.8716C35.2826 72.757 34.4524 72.5644 33.6544 72.303C33.1453 72.1379 32.6545 71.9453 32.1776 71.7252C31.4254 71.3813 30.7145 70.9777 30.0403 70.51C29.5817 70.1936 29.1459 69.8497 28.7286 69.4828C28.1369 68.96 27.5866 68.3868 27.0912 67.7678C26.7289 67.3138 26.3895 66.8369 26.0822 66.3416C25.6832 65.6905 25.3301 65.0118 25.0411 64.2964C24.8118 63.737 24.6146 63.1546 24.4586 62.5585C24.2752 61.8523 24.1422 61.1277 24.0688 60.3849C24.0229 59.9263 24 59.4631 24 58.9954C24 58.8212 24 58.6515 24.0092 58.4772C24.0367 57.7619 24.1192 57.0557 24.2477 56.3678C24.3715 55.7029 24.5458 55.0563 24.7613 54.4327C24.9861 53.7861 25.2567 53.1579 25.5686 52.5572C25.8896 51.9381 26.2519 51.3465 26.6601 50.7871C27.0454 50.2597 27.4627 49.7553 27.9168 49.2876C28.4167 48.7648 28.9625 48.2833 29.5358 47.8477C30.0311 47.4717 30.554 47.1232 31.0998 46.8159C31.7464 46.4491 32.4298 46.1281 33.1407 45.8667C33.6957 45.6603 34.269 45.4861 34.856 45.3531C35.6036 45.1834 36.3741 45.0688 37.163 45.0229C37.3556 45.0092 37.5437 45 37.7363 45H37.9885V52.3095H37.8143H37.6446C37.6495 52.3091 37.6545 52.3087 37.6596 52.3084C37.635 52.3091 37.6102 52.3095 37.5849 52.3095C37.2043 52.3233 36.8282 52.36 36.4613 52.415C36.1723 52.4609 35.888 52.5159 35.6082 52.5801C35.2413 52.6672 34.8835 52.7727 34.535 52.8965C34.2323 53.002 33.9296 53.1258 33.6406 53.2588C33.2829 53.4238 32.9389 53.6073 32.6087 53.809C32.2922 53.9971 31.9895 54.208 31.696 54.4327C31.3704 54.6849 31.0539 54.9555 30.7604 55.2443C30.4577 55.5424 30.1687 55.8588 29.9027 56.1936C29.6275 56.5375 29.3707 56.9044 29.1414 57.285C29.1093 57.34 29.0771 57.3904 29.045 57.4455C28.9487 57.606 28.857 57.771 28.7744 57.9361C28.7194 58.0461 28.6644 58.1607 28.6094 58.2753L28.6093 58.2755L28.458 58.6194C28.4075 58.7386 28.3617 58.8578 28.3158 58.977L28.3158 58.9771C28.2883 59.0504 28.2608 59.1192 28.2378 59.1926C28.2149 59.2614 28.1874 59.3348 28.1645 59.4081C28.1002 59.5961 28.0452 59.7841 27.9948 59.9767C27.848 60.527 27.7425 61.0956 27.6921 61.6872V61.7468C27.6875 61.8064 27.6783 61.8614 27.6783 61.9211C27.6645 62.1595 27.6554 62.398 27.6554 62.641C27.6554 62.829 27.66 63.017 27.6691 63.205C27.7012 63.8012 27.7838 64.379 27.9122 64.943C27.9214 64.9889 27.9351 65.0347 27.9443 65.076C27.9535 65.1035 27.9581 65.131 27.9672 65.1677H27.971C27.965 65.1449 27.9607 65.1205 27.9535 65.0989C27.9397 65.0531 27.9305 65.0118 27.9214 64.9659C27.793 64.4019 27.7104 63.8241 27.6783 63.228L31.8198 61.5359L31.8244 61.5405C31.9666 61.8752 32.1317 62.2008 32.3197 62.508L27.9764 65.186C28.036 65.4337 28.1094 65.6721 28.1874 65.9106C28.2699 66.1628 28.3663 66.4058 28.4672 66.6489L28.4672 66.6489C28.4696 66.6546 28.4721 66.6602 28.4745 66.6659L32.7921 63.1867L32.8013 63.1913C33.0398 63.4848 33.3012 63.7599 33.5856 64.0121L29.5448 68.5876C29.8451 69.014 30.1769 69.4178 30.5402 69.7946C30.5406 69.7951 30.541 69.7955 30.5414 69.7959L34.2011 64.508C34.2008 64.5078 34.2005 64.5076 34.2002 64.5074L34.2048 64.5028L34.2011 64.508C34.5219 64.7279 34.861 64.9202 35.2183 65.0852L32.3631 71.3154C32.3639 71.316 32.3648 71.3165 32.3656 71.3171C32.8001 71.6006 33.2528 71.8521 33.7283 72.0673L35.9247 65.3557L35.9201 65.3511C36.2962 65.4749 36.6906 65.5667 37.0942 65.6217L36.1331 72.8244C36.1354 72.8249 36.1378 72.8253 36.1402 72.8257C36.6221 72.9166 37.1129 72.9715 37.6173 72.9903L37.8051 65.6813H37.8234H37.9977H37.9978C38.0574 65.6813 38.1124 65.6813 38.172 65.6767H38.3096H38.36H38.3921L38.4041 65.6758C38.4592 65.6715 38.5108 65.6675 38.5664 65.6675C38.7349 65.6584 38.9033 65.6448 39.0717 65.6312L39.0709 65.6263L39.0755 65.6309Z" fill="#00D67C"/>
<path d="M28.0085 60.0088L31.3566 59.6741V59.6787C31.3933 60.0318 31.4575 60.3803 31.5446 60.715L27.7058 61.7147C27.7563 61.1323 27.8618 60.5591 28.0085 60.0088Z" fill="#00D67C"/>
<path d="M29.0588 57.473C29.0909 57.4179 29.123 57.3675 29.1551 57.3125L29.1597 57.3079L31.4437 57.7435C31.3795 58.0737 31.3428 58.4039 31.3291 58.7478L28.4717 58.6469C28.5176 58.5323 28.5726 58.4176 28.6231 58.303C28.6781 58.1883 28.7332 58.0737 28.7882 57.9636C28.8753 57.7986 28.9625 57.6335 29.0588 57.473Z" fill="#00D67C"/>
<path d="M29.921 56.2211C30.1871 55.8863 30.4714 55.5699 30.7787 55.2719L32.0675 55.9414C31.9207 56.2257 31.7923 56.5237 31.6868 56.831L29.921 56.2211Z" fill="#00D67C"/>
<path d="M31.7143 54.4556C32.0033 54.2309 32.3106 54.0246 32.627 53.832L32.6316 53.8274L33.1912 54.3685C32.9756 54.5932 32.7738 54.8362 32.5903 55.0884L31.7143 54.4556Z" fill="#00D67C"/>
<path d="M33.659 53.2771C33.9479 53.1441 34.2506 53.0203 34.5533 52.9148H34.5579L34.7138 53.19C34.4524 53.3367 34.2048 53.5018 33.9663 53.6806L33.659 53.2771Z" fill="#00D67C"/>
<path d="M35.6265 52.5984C35.9063 52.5342 36.1907 52.4792 36.4796 52.4379L36.4934 52.493C36.2136 52.5572 35.943 52.6397 35.677 52.736L35.6265 52.5984Z" fill="#00D67C"/>
<path d="M51.8349 61.1369L47.0207 60.395C46.9023 60.6086 46.7749 60.8177 46.6385 61.0223C46.2853 61.5542 45.8863 62.054 45.4414 62.5126C45.3176 62.641 45.1892 62.7648 45.0608 62.8886C45.0149 62.9299 44.9736 62.9666 44.9278 63.0079C44.8269 63.1042 44.7214 63.1913 44.6159 63.283C44.4049 63.4618 44.1848 63.6315 43.9554 63.792C43.8454 63.87 43.7261 63.9525 43.6115 64.0259C43.4188 64.1497 43.2216 64.2689 43.0198 64.379C42.5933 64.6128 42.1484 64.8238 41.6852 64.998C41.4742 65.0806 41.2632 65.1539 41.0477 65.2181C40.6303 65.3465 40.1992 65.452 39.7589 65.5254L39.7405 65.4474C40.1579 65.3374 40.5615 65.186 40.9422 64.998C41.1348 64.9063 41.3183 64.8008 41.4971 64.6908C41.5406 64.6638 41.5838 64.6363 41.6268 64.6083H38.1491V59H44.6847C44.6847 58.9985 44.6847 58.9969 44.6847 58.9954H47.6704H47.6796H52C52 59.7245 51.9404 60.4399 51.8349 61.1369Z" fill="#00D67C"/>
<path d="M68 52H84V78C84 80.2092 85.7909 82 88 82C90.2091 82 92 80.2092 92 78V36.6569C92 35.596 91.5786 34.5786 90.8284 33.8285L85.2574 28.2574C84.1321 27.1322 83.5 25.6061 83.5 24.0148V19.3995C83.5 18.3386 83.0786 17.3212 82.3284 16.5711L80.1214 14.364C78.9498 13.1924 78.9498 11.2929 80.1214 10.1214C81.2929 8.94978 83.1924 8.94978 84.364 10.1214L96.8284 22.5858C97.5786 23.3359 98 24.3533 98 25.4142V78C98 83.5229 93.5228 88 88 88C82.4772 88 78 83.5229 78 78V58H68M68 88V8C68 4.68629 65.3137 2 62 2H11C7.68629 2 5 4.68629 5 8V88M6 98H67C69.2091 98 71 96.2091 71 94V92C71 89.7909 69.2091 88 67 88H6C3.79086 88 2 89.7909 2 92V94C2 96.2091 3.79086 98 6 98ZM17 31H56C58.2091 31 60 29.2091 60 27V13C60 10.7909 58.2091 9 56 9H17C14.7909 9 13 10.7909 13 13V27C13 29.2091 14.7909 31 17 31Z" stroke="#00D67C" stroke-width="4" stroke-linejoin="round"/>
</svg>
