<svg width="22" height="22" viewBox="0 0 22 22" fill="none" xmlns="http://www.w3.org/2000/svg">
<g clip-path="url(#clip0_323_1460)">
<path d="M16.0114 6.00425C16.0114 6.26966 16.1168 6.52419 16.3045 6.71186C16.4921 6.89953 16.7467 7.00497 17.0121 7.00497C17.2775 7.00497 17.532 6.89953 17.7197 6.71186C17.9074 6.52419 18.0128 6.26966 18.0128 6.00425V2.13351C18.0128 1.84988 17.9526 1.56948 17.836 1.3109C17.7195 1.05233 17.5493 0.821476 17.3368 0.633649C17.1242 0.445822 16.8742 0.305311 16.6033 0.221429C16.3323 0.137546 16.0467 0.112208 15.7652 0.147095L2.60585 1.77825C1.8846 1.8743 1.22278 2.22902 0.743456 2.77645C0.264135 3.32387 -6.08328e-05 4.02675 1.05066e-08 4.75437V10.0071C1.05066e-08 10.2725 0.105432 10.527 0.293101 10.7147C0.480771 10.9024 0.735306 11.0078 1.00071 11.0078C1.26612 11.0078 1.52065 10.9024 1.70832 10.7147C1.89599 10.527 2.00142 10.2725 2.00142 10.0071V4.75437C2.00142 4.25301 2.37269 3.82871 2.86103 3.76366L16.0114 2.1325V6.00425Z" fill="#00AF7C"/>
<path d="M2.00142 14.0099C2.00142 14.2753 1.89599 14.5299 1.70832 14.7175C1.52065 14.9052 1.26612 15.0106 1.00071 15.0106C0.735306 15.0106 0.480771 14.9052 0.293101 14.7175C0.105432 14.5299 0 14.2753 0 14.0099L0 8.00567C0 7.20946 0.316295 6.44585 0.879304 5.88284C1.44231 5.31984 2.20592 5.00354 3.00213 5.00354H19.0135C19.4077 5.00354 19.7981 5.08119 20.1624 5.23206C20.5266 5.38293 20.8576 5.60407 21.1363 5.88284C21.4151 6.16162 21.6362 6.49257 21.7871 6.85681C21.938 7.22104 22.0156 7.61143 22.0156 8.00567V18.0128C22.0156 18.407 21.938 18.7974 21.7871 19.1616C21.6362 19.5259 21.4151 19.8568 21.1363 20.1356C20.8576 20.4144 20.5266 20.6355 20.1624 20.7864C19.7981 20.9373 19.4077 21.0149 19.0135 21.0149H3.00213C2.20592 21.0149 1.44231 20.6986 0.879304 20.1356C0.316295 19.5726 0 18.809 0 18.0128C0 17.7474 0.105432 17.4928 0.293101 17.3052C0.480771 17.1175 0.735306 17.0121 1.00071 17.0121C1.26612 17.0121 1.52065 17.1175 1.70832 17.3052C1.89599 17.4928 2.00142 17.7474 2.00142 18.0128C2.00142 18.2782 2.10685 18.5327 2.29452 18.7204C2.48219 18.9081 2.73673 19.0135 3.00213 19.0135H19.0135C19.2789 19.0135 19.5334 18.9081 19.7211 18.7204C19.9088 18.5327 20.0142 18.2782 20.0142 18.0128V8.00567C20.0142 7.74027 19.9088 7.48573 19.7211 7.29806C19.5334 7.11039 19.2789 7.00496 19.0135 7.00496H3.00213C2.73673 7.00496 2.48219 7.11039 2.29452 7.29806C2.10685 7.48573 2.00142 7.74027 2.00142 8.00567V14.0099Z" fill="#00AF7C"/>
<path d="M20.0145 11.0078H16.0116C15.7488 11.0078 15.4885 11.0596 15.2457 11.1601C15.0028 11.2607 14.7822 11.4081 14.5963 11.594C14.4104 11.7798 14.263 12.0005 14.1624 12.2433C14.0618 12.4861 14.01 12.7464 14.01 13.0093C14.01 13.2721 14.0618 13.5324 14.1624 13.7752C14.263 14.018 14.4104 14.2387 14.5963 14.4245C14.7822 14.6104 15.0028 14.7578 15.2457 14.8584C15.4885 14.959 15.7488 15.0107 16.0116 15.0107H20.0145V11.0078ZM16.0116 9.00641H21.0152C21.2806 9.00641 21.5351 9.11184 21.7228 9.29951C21.9105 9.48718 22.0159 9.74171 22.0159 10.0071V16.0114C22.0159 16.2768 21.9105 16.5313 21.7228 16.719C21.5351 16.9067 21.2806 17.0121 21.0152 17.0121H16.0116C14.95 17.0121 13.9319 16.5904 13.1812 15.8397C12.4305 15.089 12.0088 14.0709 12.0088 13.0093C12.0088 11.9476 12.4305 10.9295 13.1812 10.1788C13.9319 9.42814 14.95 9.00641 16.0116 9.00641Z" fill="#00AF7C"/>
<path d="M16.0117 13.0092C16.0117 13.1406 16.0376 13.2708 16.0879 13.3922C16.1382 13.5136 16.2119 13.6239 16.3048 13.7168C16.3977 13.8098 16.5081 13.8835 16.6295 13.9338C16.7509 13.9841 16.881 14.0099 17.0124 14.0099C17.1438 14.0099 17.274 13.9841 17.3954 13.9338C17.5168 13.8835 17.6271 13.8098 17.72 13.7168C17.813 13.6239 17.8867 13.5136 17.937 13.3922C17.9873 13.2708 18.0131 13.1406 18.0131 13.0092C18.0131 12.8778 17.9873 12.7477 17.937 12.6263C17.8867 12.5049 17.813 12.3945 17.72 12.3016C17.6271 12.2087 17.5168 12.135 17.3954 12.0847C17.274 12.0344 17.1438 12.0085 17.0124 12.0085C16.881 12.0085 16.7509 12.0344 16.6295 12.0847C16.5081 12.135 16.3977 12.2087 16.3048 12.3016C16.2119 12.3945 16.1382 12.5049 16.0879 12.6263C16.0376 12.7477 16.0117 12.8778 16.0117 13.0092Z" fill="#00AF7C"/>
</g>
<defs>
<clipPath id="clip0_323_1460">
<rect width="22" height="21.0149" fill="white"/>
</clipPath>
</defs>
</svg>
