<svg width="80" height="18" viewBox="0 0 80 18" fill="none" xmlns="http://www.w3.org/2000/svg">
<path d="M21.8026 8.12913C20.7183 9.21183 20.1762 10.5829 20.1762 12.2422C20.1762 13.9016 20.7183 15.2756 21.8026 16.3671C22.8868 17.4557 24.2572 18 25.9107 18C27.5642 18 28.9556 17.4557 30.0399 16.3671C31.1242 15.2785 31.6663 13.9045 31.6663 12.2422C31.6663 10.5799 31.1242 9.21183 30.0399 8.12913C28.9556 7.04642 27.5792 6.50507 25.9107 6.50507C24.2421 6.50507 22.8868 7.04642 21.8026 8.12913ZM22.8145 12.2422C22.8145 11.1742 23.1127 10.3416 23.7121 9.74142C24.3114 9.14122 25.0433 8.84112 25.9077 8.84112C26.7721 8.84112 27.504 9.14122 28.1033 9.74142C28.7027 10.3416 29.0008 11.1742 29.0008 12.2422C29.0008 13.3102 28.6996 14.1693 28.1033 14.7754C27.504 15.3844 26.7721 15.6875 25.9077 15.6875C25.0433 15.6875 24.3114 15.3815 23.7121 14.7636C23.1127 14.1487 22.8145 13.3073 22.8145 12.2393V12.2422ZM33.5667 15.7669C33.7565 16.1141 34.0215 16.4642 34.3619 16.8114C34.7022 17.1585 35.172 17.4439 35.7714 17.6675C36.3708 17.8911 37.0484 18 37.8074 18C39.1266 18 40.1536 17.6469 40.8915 16.9438C41.6264 16.2406 41.9938 15.4374 41.9938 14.5312C41.9938 13.7162 41.7197 13.019 41.1746 12.4423C40.6295 11.8656 39.8404 11.4655 38.8073 11.2419L37.1237 10.9094C36.3798 10.7623 36.0093 10.3828 36.0093 9.77672C36.0093 9.43544 36.1599 9.14417 36.4641 8.89997C36.7683 8.65577 37.1478 8.5322 37.6026 8.5322C38.2562 8.5322 38.7441 8.6999 39.0693 9.03236C39.3946 9.36483 39.5874 9.74142 39.6506 10.1563L41.8794 9.53253C41.8342 9.22066 41.7288 8.90879 41.5601 8.59987C41.3945 8.288 41.1535 7.96731 40.8433 7.63191C40.5331 7.29944 40.0964 7.02877 39.5362 6.81988C38.976 6.61393 38.3315 6.50801 37.6026 6.50801C36.4641 6.50801 35.5003 6.85224 34.7112 7.5407C33.9221 8.22916 33.5276 9.05002 33.5276 9.99738C33.5276 10.7682 33.7866 11.4361 34.3016 11.998C34.8167 12.56 35.5546 12.9454 36.5093 13.1543L38.1477 13.5103C39.0121 13.6868 39.4458 14.087 39.4458 14.7107C39.4458 15.0667 39.2982 15.3638 39.0031 15.5992C38.7079 15.8375 38.3013 15.9552 37.7863 15.9552C37.1177 15.9552 36.5876 15.7787 36.1931 15.4227C35.7985 15.0667 35.5786 14.6313 35.5335 14.1105L33.2354 14.7342C33.2656 15.0755 33.374 15.4197 33.5667 15.7669ZM47.903 9.55312C48.3036 9.09415 48.8548 8.86466 49.5535 8.86466C50.3426 8.86466 50.9179 9.08238 51.2823 9.52076C51.6467 9.95914 51.8274 10.5387 51.8274 11.2654V17.6675H54.4658V10.8212C54.4658 9.56195 54.1164 8.5322 53.4177 7.73194C52.7189 6.93168 51.719 6.53155 50.4149 6.53155C49.0204 6.53155 47.9633 6.98464 47.2525 7.88787V1.5711H44.6141V17.6646H47.2525V11.3066C47.2826 10.5946 47.4994 10.0092 47.9 9.55018L47.903 9.55312ZM62.4772 15.7787C61.658 15.7787 60.9562 15.511 60.372 14.9784C59.7877 14.4459 59.4805 13.7721 59.4503 12.9542H67.5521C67.5973 12.866 67.6214 12.5924 67.6214 12.1304C67.6214 10.4122 67.1425 9.04413 66.1878 8.02909C65.233 7.01406 63.9048 6.50507 62.2062 6.50507C60.7514 6.50507 59.4865 7.03759 58.4173 8.10559C57.3481 9.17359 56.812 10.5358 56.812 12.1952C56.812 13.9604 57.3631 15.3668 58.4625 16.4201C59.5618 17.4734 60.902 17.9971 62.4802 17.9971C63.7542 17.9971 64.8264 17.6734 65.6999 17.0291C66.5733 16.3848 67.1666 15.5669 67.4859 14.5724L65.2571 13.8839C64.8325 15.1432 63.9078 15.7728 62.4802 15.7728L62.4772 15.7787ZM60.3147 9.38836C60.7996 8.90585 61.4381 8.6646 62.2272 8.6646C63.0916 8.6646 63.7542 8.89408 64.218 9.35306C64.6819 9.81203 64.9258 10.3828 64.959 11.0654H59.5196C59.5648 10.4269 59.8298 9.86793 60.3147 9.38836ZM73.389 9.58843C73.7896 9.10592 74.3558 8.86466 75.0847 8.86466C75.8738 8.86466 76.4491 9.08238 76.8135 9.52076C77.1779 9.95914 77.3586 10.5387 77.3586 11.2654V17.6675H79.997V10.8212C79.997 9.56195 79.6566 8.5322 78.973 7.73194C78.2893 6.93168 77.2954 6.53155 75.9913 6.53155C75.3226 6.53155 74.6992 6.67571 74.1149 6.96404C73.5306 7.25237 73.0638 7.69369 72.7144 8.288V6.84341H70.1423V17.6646H72.7807V11.4184C72.7807 10.677 72.9825 10.0651 73.383 9.58549L73.389 9.58843ZM18.1492 11.0418C17.9986 11.6685 17.7818 12.2687 17.5077 12.8365L14.0803 11.2478C14.3724 10.9536 14.6344 10.6329 14.8664 10.2916L18.1522 11.0448L18.1492 11.0418ZM13.7429 11.5626C13.6767 11.6214 13.6074 11.6803 13.5381 11.7362C13.3966 11.8509 13.252 11.9598 13.1044 12.0628C13.0291 12.1128 12.9538 12.1628 12.8785 12.2128L16.041 14.9843C16.4626 14.5283 16.8331 14.0281 17.1523 13.4956L13.746 11.5626H13.7429ZM12.487 12.4423C12.2069 12.5924 11.9148 12.7277 11.6106 12.8395L14.005 16.6437C14.529 16.3289 15.0169 15.967 15.4627 15.558L12.484 12.4423H12.487ZM11.1919 12.9807C10.9179 13.0631 10.6347 13.1278 10.3456 13.1749L11.5714 17.6646C12.1527 17.5145 12.7099 17.3086 13.24 17.0556L11.1949 12.9807H11.1919ZM9.89986 13.2367C9.78842 13.2455 9.67698 13.2543 9.56554 13.2602C9.52639 13.2602 9.49025 13.2632 9.45109 13.2661C9.44507 13.2661 9.43905 13.2661 9.43001 13.2661C9.41796 13.2661 9.40893 13.2661 9.39688 13.2661H9.30653C9.26737 13.269 9.23123 13.269 9.19208 13.269C9.15292 13.269 9.11678 13.269 9.07763 13.269C9.07462 13.269 9.06859 13.269 9.06558 13.269L8.9421 17.9647C8.96619 17.9647 8.99029 17.9647 9.01739 17.9647C9.07462 17.9647 9.13485 17.9647 9.19208 17.9647C9.2493 17.9647 9.30954 17.9647 9.36676 17.9647C9.80649 17.9559 10.2372 17.9176 10.6588 17.8529L9.89684 13.2337L9.89986 13.2367ZM7.83074 13.0602L6.38506 17.3763C6.88201 17.5999 7.41209 17.7646 7.96627 17.8617L8.59875 13.2308C8.33371 13.1955 8.07469 13.1366 7.82772 13.0572L7.83074 13.0602ZM6.7013 12.5129L4.28582 15.9229C4.331 15.9699 4.37618 16.0141 4.42135 16.0582C4.46051 16.0964 4.50267 16.1347 4.54484 16.1729C4.62917 16.2494 4.7135 16.323 4.80084 16.3965C4.82795 16.4201 4.85506 16.4407 4.88216 16.4642C4.93035 16.5025 4.97854 16.5407 5.02673 16.5789C5.07492 16.6172 5.12612 16.6525 5.17732 16.6907C5.27671 16.7643 5.37911 16.832 5.48453 16.8996L7.36691 12.8866C7.13199 12.7806 6.90912 12.6571 6.69829 12.5159L6.7013 12.5129ZM5.77366 11.6685L2.93351 13.9045C2.9817 14.0134 3.02989 14.1223 3.0841 14.2282C3.12326 14.3076 3.16542 14.3871 3.20759 14.4635C3.23771 14.5195 3.26783 14.5724 3.30096 14.6283C3.30397 14.6342 3.30999 14.6401 3.313 14.6489C3.313 14.6548 3.31903 14.6577 3.32204 14.6636C3.38529 14.7695 3.45155 14.8754 3.52082 14.9755C3.53889 15.002 3.55696 15.0314 3.57804 15.0579C3.59611 15.0843 3.6172 15.1108 3.63527 15.1402L6.29471 12.1981C6.10797 12.0363 5.9363 11.8598 5.77969 11.6715L5.77366 11.6685ZM5.13515 10.6094L2.41548 11.695C2.43656 12.0775 2.49078 12.4482 2.57511 12.8101C2.58113 12.8395 2.58715 12.866 2.59619 12.8954C2.60221 12.913 2.60523 12.9336 2.61125 12.9513L5.46344 11.2331C5.33996 11.036 5.23153 10.8271 5.13817 10.6123L5.13515 10.6094ZM4.83096 9.41484L2.63233 9.62962C2.53595 9.98267 2.46668 10.3504 2.43355 10.7241L4.95445 10.0827C4.89722 9.86793 4.85506 9.64433 4.83096 9.41778V9.41484ZM3.38529 7.89964C3.3642 7.93495 3.34312 7.96731 3.32204 8.00261C3.25879 8.10559 3.20157 8.21151 3.14434 8.31742C3.1082 8.38804 3.07206 8.46159 3.03592 8.53514C3.00279 8.6087 2.96664 8.68225 2.93653 8.7558L4.81289 8.82053C4.82193 8.59987 4.84602 8.38804 4.88819 8.1762L3.3883 7.8967L3.38529 7.89964ZM4.45147 6.59039C4.24968 6.78163 4.06295 6.98463 3.88826 7.19941L5.04781 7.59072C5.11708 7.39359 5.20142 7.20235 5.29779 7.01994L4.45147 6.59039ZM5.66524 5.66656C5.45742 5.79013 5.25563 5.92252 5.06588 6.06669L5.64114 6.4727C5.76161 6.31089 5.89413 6.15495 6.03569 6.01079L5.66825 5.66362L5.66524 5.66656ZM6.9302 5.07813C6.73142 5.1458 6.53264 5.22524 6.3429 5.31056L6.54469 5.56947C6.7013 5.45472 6.86394 5.34881 7.03561 5.25466L6.93321 5.07813H6.9302ZM8.19517 4.77215C8.00542 4.79863 7.81869 4.83393 7.63497 4.87512L7.6681 4.96339C7.84278 4.9016 8.02048 4.84864 8.2042 4.80745L8.19517 4.77215ZM9.0204 0C8.89391 0 8.77042 0.00588428 8.64393 0.0147107C8.12589 0.0441321 7.61991 0.117686 7.12898 0.226545C6.74347 0.311867 6.36699 0.423668 6.00256 0.556064C5.53573 0.723766 5.08697 0.929716 4.6623 1.16509C4.30389 1.36221 3.96054 1.58581 3.63527 1.82707C3.25879 2.10657 2.90038 2.4155 2.5721 2.7509C2.27393 3.051 1.99985 3.37463 1.74686 3.71298C1.4788 4.07192 1.24087 4.45145 1.03004 4.84864C0.825239 5.23406 0.647542 5.63714 0.499962 6.05198C0.358407 6.45211 0.243958 6.86695 0.162638 7.29356C0.0783074 7.73488 0.0240946 8.18797 0.00602364 8.64694C0 8.75874 0 8.8676 0 8.9794C0 9.2795 0.0150591 9.57666 0.0451773 9.87087C0.0933665 10.3475 0.180709 10.8124 0.301182 11.2654C0.403584 11.6479 0.533092 12.0216 0.683683 12.3805C0.873428 12.8395 1.10534 13.2749 1.36737 13.6927C1.56916 14.0105 1.79203 14.3164 2.02997 14.6077C2.35524 15.0049 2.71666 15.3727 3.10519 15.7081C3.37926 15.9434 3.66539 16.1641 3.96657 16.3671C4.40931 16.6672 4.87614 16.9261 5.37008 17.1468C5.68331 17.288 6.00557 17.4116 6.33988 17.5175C6.86394 17.6852 7.40908 17.8088 7.96928 17.8823C8.29154 17.9235 8.61983 17.95 8.95113 17.9588C8.61682 17.947 8.29154 17.9117 7.97229 17.8529C7.41812 17.7529 6.88803 17.5881 6.39108 17.3674C6.07786 17.2292 5.77969 17.0673 5.49356 16.8849C5.38815 16.8173 5.28575 16.7496 5.18636 16.676C5.13515 16.6407 5.08697 16.6025 5.03576 16.5642C4.98758 16.526 4.93939 16.4907 4.8912 16.4495C4.86409 16.426 4.83699 16.4054 4.80988 16.3818C4.72254 16.3083 4.6382 16.2347 4.55387 16.1582C4.51171 16.12 4.47255 16.0817 4.43039 16.0435C4.38521 15.9993 4.34003 15.9552 4.29486 15.9081C4.05391 15.6639 3.83405 15.4021 3.63527 15.1255C3.6172 15.0991 3.59611 15.0726 3.57804 15.0432C3.55997 15.0167 3.53889 14.9873 3.52082 14.9608C3.45155 14.8578 3.38529 14.7548 3.32204 14.6489C3.31903 14.643 3.31602 14.6401 3.313 14.6342C3.30999 14.6283 3.30698 14.6224 3.30096 14.6136C3.26783 14.5606 3.23771 14.5047 3.20759 14.4488C3.16542 14.3723 3.12326 14.2929 3.0841 14.2135C3.02989 14.1076 2.9817 13.9987 2.93351 13.8898C2.86725 13.7339 2.80401 13.578 2.74979 13.4161C2.69859 13.2632 2.6504 13.1102 2.61125 12.9513V12.9395H2.60523C2.5992 12.916 2.59619 12.8983 2.59017 12.8807C2.58414 12.8542 2.57511 12.8248 2.56908 12.7954C2.48475 12.4335 2.43054 12.0628 2.40946 11.6803C2.40343 11.5597 2.40042 11.439 2.40042 11.3184C2.40042 11.1625 2.40645 11.0095 2.41548 10.8565C2.41548 10.8182 2.4215 10.7829 2.42452 10.7447C2.42452 10.7329 2.42452 10.7212 2.42452 10.7064C2.45765 10.3269 2.52692 9.96208 2.6233 9.60902C2.65643 9.48545 2.69257 9.36482 2.73473 9.2442C2.74979 9.19712 2.76786 9.15005 2.78292 9.10592C2.79798 9.05884 2.81605 9.01471 2.83412 8.96764C2.86424 8.89114 2.89436 8.81465 2.92749 8.73815C2.96062 8.6646 2.99375 8.59104 3.02688 8.51749C3.06302 8.44394 3.09916 8.37038 3.13531 8.29977C3.18952 8.19385 3.24976 8.08794 3.313 7.98496C3.33409 7.94966 3.35517 7.91729 3.37625 7.88199C3.52684 7.63779 3.6955 7.40242 3.87621 7.18176C4.0509 6.96698 4.24064 6.76398 4.43942 6.57274C4.63218 6.38738 4.84 6.2138 5.05384 6.05198C5.24659 5.90781 5.44537 5.77247 5.65319 5.65185C5.87004 5.52239 6.09593 5.40471 6.33085 5.29879C6.52059 5.21347 6.71937 5.13403 6.91815 5.06636C7.14705 4.98692 7.38197 4.91925 7.62292 4.86335C7.80664 4.82216 7.99337 4.78686 8.18312 4.75744C8.42406 4.72213 8.67103 4.69859 8.92101 4.68977C8.97222 4.68977 9.0204 4.68683 9.07161 4.68683C9.03546 4.68683 8.99631 4.68683 8.96017 4.68977C8.99631 4.68977 9.03546 4.68977 9.07161 4.68977C9.11076 4.68977 9.1469 4.68977 9.18605 4.68977V0C9.12582 0 9.06859 0 9.01137 0H9.0204ZM15.547 8.98235C15.547 8.98235 15.535 9.01177 15.529 9.02648C15.5229 9.04119 15.5169 9.0559 15.5109 9.07061C15.4988 9.10003 15.4868 9.12945 15.4747 9.15593C15.4506 9.21478 15.4265 9.27068 15.3994 9.32658C15.3663 9.40307 15.3302 9.47663 15.291 9.55018C15.2338 9.66198 15.1766 9.77084 15.1133 9.87676L18.2787 10.3534C18.348 9.90618 18.3872 9.4472 18.3872 8.9794H15.544L15.547 8.98235ZM15.4025 9.32658C15.4296 9.26773 15.4537 9.21183 15.4777 9.15299C15.4898 9.12357 15.5018 9.09415 15.5139 9.06767C15.5199 9.05296 15.5259 9.03825 15.532 9.02354C15.538 9.00883 15.544 8.99412 15.55 8.9794H13.5833C13.5833 9.20301 13.5652 9.42367 13.5321 9.63844C13.514 9.7473 13.493 9.85616 13.4689 9.96208C13.3996 10.2592 13.2942 10.5446 13.1647 10.8124C13.1135 10.9212 13.0562 11.0271 12.993 11.1272C12.8424 11.3831 12.6617 11.6214 12.4599 11.8421C12.3726 11.9363 12.2792 12.0304 12.1858 12.1157C11.972 12.3099 11.7371 12.4835 11.4901 12.6335C11.3726 12.7042 11.2522 12.7718 11.1257 12.8307C10.8757 12.9513 10.6106 13.0484 10.3366 13.119L10.3486 13.169C10.6378 13.1219 10.9209 13.0543 11.1949 12.9719C11.3365 12.9307 11.475 12.8836 11.6136 12.8307C11.9178 12.7189 12.2099 12.5835 12.49 12.4335C12.6225 12.3629 12.7521 12.2864 12.8785 12.2069C12.9538 12.1599 13.0322 12.1069 13.1044 12.0569C13.255 11.9539 13.3996 11.845 13.5381 11.7303C13.6074 11.6715 13.6767 11.6156 13.7429 11.5538C13.7731 11.5273 13.8002 11.5038 13.8303 11.4773C13.9146 11.3978 13.9989 11.3184 14.0803 11.236C14.3724 10.9418 14.6344 10.6211 14.8664 10.2798C14.9567 10.1474 15.041 10.0121 15.1193 9.87382C15.1826 9.7679 15.2398 9.6561 15.297 9.54724C15.3332 9.47368 15.3693 9.40013 15.4055 9.32364L15.4025 9.32658ZM13.6405 8.98235H9.29147V12.5806H11.8786L13.5351 10.9094L13.6375 8.98235H13.6405ZM21.8026 8.12913C20.7183 9.21183 20.1762 10.5829 20.1762 12.2422C20.1762 13.9016 20.7183 15.2756 21.8026 16.3671C22.8868 17.4557 24.2572 18 25.9107 18C27.5642 18 28.9556 17.4557 30.0399 16.3671C31.1242 15.2785 31.6663 13.9045 31.6663 12.2422C31.6663 10.5799 31.1242 9.21183 30.0399 8.12913C28.9556 7.04642 27.5792 6.50507 25.9107 6.50507C24.2421 6.50507 22.8868 7.04642 21.8026 8.12913ZM22.8145 12.2422C22.8145 11.1742 23.1127 10.3416 23.7121 9.74142C24.3114 9.14122 25.0433 8.84112 25.9077 8.84112C26.7721 8.84112 27.504 9.14122 28.1033 9.74142C28.7027 10.3416 29.0008 11.1742 29.0008 12.2422C29.0008 13.3102 28.6996 14.1693 28.1033 14.7754C27.504 15.3844 26.7721 15.6875 25.9077 15.6875C25.0433 15.6875 24.3114 15.3815 23.7121 14.7636C23.1127 14.1487 22.8145 13.3073 22.8145 12.2393V12.2422ZM33.5667 15.7669C33.7565 16.1141 34.0215 16.4642 34.3619 16.8114C34.7022 17.1585 35.172 17.4439 35.7714 17.6675C36.3708 17.8911 37.0484 18 37.8074 18C39.1266 18 40.1536 17.6469 40.8915 16.9438C41.6264 16.2406 41.9938 15.4374 41.9938 14.5312C41.9938 13.7162 41.7197 13.019 41.1746 12.4423C40.6295 11.8656 39.8404 11.4655 38.8073 11.2419L37.1237 10.9094C36.3798 10.7623 36.0093 10.3828 36.0093 9.77672C36.0093 9.43544 36.1599 9.14417 36.4641 8.89997C36.7683 8.65577 37.1478 8.5322 37.6026 8.5322C38.2562 8.5322 38.7441 8.6999 39.0693 9.03236C39.3946 9.36483 39.5874 9.74142 39.6506 10.1563L41.8794 9.53253C41.8342 9.22066 41.7288 8.90879 41.5601 8.59987C41.3945 8.288 41.1535 7.96731 40.8433 7.63191C40.5331 7.29944 40.0964 7.02877 39.5362 6.81988C38.976 6.61393 38.3315 6.50801 37.6026 6.50801C36.4641 6.50801 35.5003 6.85224 34.7112 7.5407C33.9221 8.22916 33.5276 9.05002 33.5276 9.99738C33.5276 10.7682 33.7866 11.4361 34.3016 11.998C34.8167 12.56 35.5546 12.9454 36.5093 13.1543L38.1477 13.5103C39.0121 13.6868 39.4458 14.087 39.4458 14.7107C39.4458 15.0667 39.2982 15.3638 39.0031 15.5992C38.7079 15.8375 38.3013 15.9552 37.7863 15.9552C37.1177 15.9552 36.5876 15.7787 36.1931 15.4227C35.7985 15.0667 35.5786 14.6313 35.5335 14.1105L33.2354 14.7342C33.2656 15.0755 33.374 15.4197 33.5667 15.7669ZM47.903 9.55312C48.3036 9.09415 48.8548 8.86466 49.5535 8.86466C50.3426 8.86466 50.9179 9.08238 51.2823 9.52076C51.6467 9.95914 51.8274 10.5387 51.8274 11.2654V17.6675H54.4658V10.8212C54.4658 9.56195 54.1164 8.5322 53.4177 7.73194C52.7189 6.93168 51.719 6.53155 50.4149 6.53155C49.0204 6.53155 47.9633 6.98464 47.2525 7.88787V1.5711H44.6141V17.6646H47.2525V11.3066C47.2826 10.5946 47.4994 10.0092 47.9 9.55018L47.903 9.55312ZM62.4772 15.7787C61.658 15.7787 60.9562 15.511 60.372 14.9784C59.7877 14.4459 59.4805 13.7721 59.4503 12.9542H67.5521C67.5973 12.866 67.6214 12.5924 67.6214 12.1304C67.6214 10.4122 67.1425 9.04413 66.1878 8.02909C65.233 7.01406 63.9048 6.50507 62.2062 6.50507C60.7514 6.50507 59.4865 7.03759 58.4173 8.10559C57.3481 9.17359 56.812 10.5358 56.812 12.1952C56.812 13.9604 57.3631 15.3668 58.4625 16.4201C59.5618 17.4734 60.902 17.9971 62.4802 17.9971C63.7542 17.9971 64.8264 17.6734 65.6999 17.0291C66.5733 16.3848 67.1666 15.5669 67.4859 14.5724L65.2571 13.8839C64.8325 15.1432 63.9078 15.7728 62.4802 15.7728L62.4772 15.7787ZM60.3147 9.38836C60.7996 8.90585 61.4381 8.6646 62.2272 8.6646C63.0916 8.6646 63.7542 8.89408 64.218 9.35306C64.6819 9.81203 64.9258 10.3828 64.959 11.0654H59.5196C59.5648 10.4269 59.8298 9.86793 60.3147 9.38836ZM73.389 9.58843C73.7896 9.10592 74.3558 8.86466 75.0847 8.86466C75.8738 8.86466 76.4491 9.08238 76.8135 9.52076C77.1779 9.95914 77.3586 10.5387 77.3586 11.2654V17.6675H79.997V10.8212C79.997 9.56195 79.6566 8.5322 78.973 7.73194C78.2893 6.93168 77.2954 6.53155 75.9913 6.53155C75.3226 6.53155 74.6992 6.67571 74.1149 6.96404C73.5306 7.25237 73.0638 7.69369 72.7144 8.288V6.84341H70.1423V17.6646H72.7807V11.4184C72.7807 10.677 72.9825 10.0651 73.383 9.58549L73.389 9.58843Z" fill="url(#paint0_linear_180_592)"/>
<defs>
<linearGradient id="paint0_linear_180_592" x1="0" y1="9" x2="79.997" y2="9" gradientUnits="userSpaceOnUse">
<stop stop-color="#00D67C"/>
<stop offset="0.661458" stop-color="#B6F3D7"/>
<stop offset="1" stop-color="#DBF059"/>
</linearGradient>
</defs>
</svg>
