<svg width="26" height="27" viewBox="0 0 26 27" fill="none" xmlns="http://www.w3.org/2000/svg">
<path d="M13.1759 0.500817C8.48627 0.448474 4.1302 2.91459 1.77009 6.95807C-0.590029 11.0015 -0.590029 15.9985 1.77009 20.0419C4.1302 24.0854 8.48627 26.5515 13.1759 26.4992C20.2911 26.3869 26 20.6003 26 13.5008C26 6.4013 20.2911 0.614757 13.1759 0.502444V0.500817Z" fill="black"/>
<path d="M18.8294 10.8543L12.4888 17.1827C12.1381 17.5307 11.5715 17.5307 11.2207 17.1827L7.41637 13.3859C7.18961 13.1599 7.10093 12.8304 7.18373 12.5215C7.26653 12.2125 7.50824 11.9711 7.81779 11.8882C8.12735 11.8053 8.45773 11.8935 8.68448 12.1195L11.8554 15.283L17.5626 9.58909C17.9128 9.24007 18.4802 9.24036 18.8301 9.58973C19.1799 9.9391 19.1796 10.5053 18.8294 10.8543Z" fill="#00AF7C"/>
</svg>
