<svg width="20" height="20" viewBox="0 0 20 20" fill="none" xmlns="http://www.w3.org/2000/svg">
<path d="M10 0C4.55556 0 0 4.55556 0 10C0 15.4444 4.55556 20 10 20C15.4444 20 20 15.4444 20 10C20 4.55556 15.4444 0 10 0ZM14.2222 8C14.2222 8.11111 14.2222 8.22222 14.2222 8.22222C14.2222 11.3333 11.6667 13.8889 8.55556 13.8889C7.44444 13.8889 6.44444 13.5556 5.44444 13C5.66667 13 5.77778 13.1111 5.88889 13C6.77778 13 7.66667 12.6667 8.33333 12.1111C7.44444 12.1111 6.66667 11.5556 6.44445 10.7778C6.55556 10.7778 6.66667 10.8889 6.77778 10.8889C7 10.8889 7.11111 10.8889 7.22222 10.7778C6.44444 10.6667 5.77778 9.77778 5.77778 8.88889C6.11111 9 6.33333 9.11111 6.66667 9.11111C6.22222 8.77778 5.88889 8.11111 5.88889 7.44444C5.88889 7.11111 6 6.77778 6.11111 6.44445C7.11111 7.66667 8.55556 8.44444 10.2222 8.55556C10.2222 8.33333 10.2222 8.22222 10.2222 8.11111C10.2222 7 11.1111 6.11111 12.2222 6.11111C12.7778 6.11111 13.3333 6.33333 13.6667 6.77778C14.1111 6.66667 14.5556 6.55556 14.8889 6.22222C14.7778 6.66667 14.4444 7.11111 14 7.33333C14.3333 7.22222 14.7778 7.11111 15.1111 7C14.8889 7.33333 14.6667 7.77778 14.2222 8Z" fill="#F9F9F9"/>
</svg>
