<svg width="20" height="20" viewBox="0 0 20 20" fill="none" xmlns="http://www.w3.org/2000/svg">
<path d="M10 0C4.5 0 0 4.5 0 10C0 15.5 4.5 20 10 20C15.5 20 20 15.5 20 10C20 4.5 15.5 0 10 0ZM12.5625 13.75C12.5625 13.75 12.1875 13.375 11.9375 13C13.0625 12.6875 13.5625 12 13.625 11.9375C13.25 12.1875 12.875 12.3125 12.5625 12.5C12.125 12.6875 11.625 12.8125 11.1875 12.875C9 13.25 7.8125 12.625 6.6875 12.1875L6.3125 12C6.375 12.0625 6.875 12.75 7.9375 13.0625C7.625 13.4375 7.3125 13.8125 7.3125 13.8125C5.25 13.75 4.4375 12.4375 4.4375 12.4375C4.4375 9.5 5.8125 7.1875 5.8125 7.1875C7.1875 6.1875 8.4375 6.25 8.4375 6.25L8.5625 6.375C7 6.75 6.25 7.4375 6.125 7.5C6.1875 7.5 6.375 7.375 6.6875 7.25C8.9375 6.375 11.4375 6.4375 13.6875 7.5625C13.625 7.5 12.8125 6.8125 11.375 6.4375L11.5 6.3125C11.6875 6.3125 12.875 6.375 14.125 7.25C14.125 7.25 15.5 9.625 15.5 12.5C15.5 12.375 14.6875 13.6875 12.5625 13.75Z" fill="#F9F9F9"/>
<path d="M12.6875 10.5C12.6875 11.0625 12.25 11.5 11.6875 11.5C11.1875 11.5 10.75 11.0625 10.75 10.5C10.75 9.9375 11.1875 9.5 11.6875 9.5C12.25 9.5 12.6875 10 12.6875 10.5Z" fill="#F9F9F9"/>
<path d="M9.1875 10.5C9.1875 11.0625 8.75 11.5 8.25 11.5C7.75 11.5 7.3125 11.0625 7.3125 10.5C7.3125 9.9375 7.75 9.5 8.25 9.5C8.75 9.5 9.1875 10 9.1875 10.5Z" fill="#F9F9F9"/>
</svg>
