<svg width="20" height="20" viewBox="0 0 20 20" fill="none" xmlns="http://www.w3.org/2000/svg">
<path d="M10 0C4.5 0 0 4.5 0 10C0 15.5 4.5 20 10 20C15.5 20 20 15.5 20 10C20 4.5 15.5 0 10 0ZM15.5 5.4375C15 5.5625 14.6875 5.75 14.6875 6.375V13.8125C14.75 14.3125 15 14.4375 15.4375 14.5625V14.6875H11.875V14.5625C12.3125 14.4375 12.625 14.3125 12.625 13.8125V6.5625L9.1875 14.625H9L5.75 6.8125V13.625C5.75 14.25 6 14.4375 6.5 14.5625V14.6875H4.5V14.5625C5 14.4375 5.25 14.25 5.25 13.625V6.375C5.25 5.75 5 5.5625 4.5 5.4375V5.375H7.5L10.125 11.5L12.75 5.375H15.5625V5.4375H15.5Z" fill="#F9F9F9"/>
</svg>
