<svg width="22" height="22" viewBox="0 0 22 22" fill="none" xmlns="http://www.w3.org/2000/svg">
<path d="M11.1489 0.000691273C7.18069 -0.0435986 3.49479 2.04312 1.49777 5.46452C-0.499255 8.88592 -0.499255 13.1141 1.49777 16.5355C3.49479 19.9569 7.18069 22.0436 11.1489 21.9993C17.1694 21.9043 22 17.008 22 11.0007C22 4.99341 17.1694 0.0971018 11.1489 0.00206782V0.000691273Z" fill="#00AF7C"/>
<path d="M15.8808 9.29187L10.5157 14.6467C10.2189 14.9411 9.73948 14.9411 9.44268 14.6467L6.2236 11.434C6.03174 11.2428 5.9567 10.964 6.02676 10.7026C6.09682 10.4412 6.30134 10.2369 6.56327 10.1668C6.82521 10.0966 7.10476 10.1712 7.29663 10.3624L9.97973 13.0393L14.8089 8.22134C15.1052 7.92601 15.5853 7.92625 15.8814 8.22187C16.1774 8.51749 16.1771 8.99655 15.8808 9.29187Z" fill="white"/>
</svg>
