<?xml version="1.0" encoding="UTF-8"?>
<svg width="80px" height="80px" viewBox="0 0 80 80" version="1.1" xmlns="http://www.w3.org/2000/svg" xmlns:xlink="http://www.w3.org/1999/xlink">
    <title>编组</title>
    <g id="Page-1" stroke="none" stroke-width="1" fill="none" fill-rule="evenodd">
        <g id="flash-pool-supply-Translation-成功" transform="translate(-920.000000, -438.000000)" fill="#00AF7C" fill-rule="nonzero">
            <g id="编组-2" transform="translate(735.000000, 302.000000)">
                <g id="编组" transform="translate(185.000000, 136.000000)">
                    <path d="M40.5413793,0.00251372107 C26.1115976,-0.158540524 12.7083134,7.42951769 5.44642001,19.870972 C-1.81547334,32.3124264 -1.81547334,47.6875736 5.44642001,60.129028 C12.7083134,72.5704823 26.1115976,80.1585405 40.5413793,79.9974863 C62.4340256,79.6519083 80,61.8471589 80,40.0025028 C80,18.1578467 62.4340256,0.353097327 40.5413793,0.00751935104 L40.5413793,0.00251372107 Z" id="形状" opacity="0.104068"></path>
                    <path d="M57.9370947,31.8601078 L38.4275757,51.3322336 C37.3483035,52.4028949 35.6049442,52.4028949 34.5256719,51.3322336 L22.8199605,39.649739 C22.1222534,38.954346 21.8493948,37.9404164 22.1041679,36.9898878 C22.3589409,36.0393591 23.1026396,35.2966394 24.0551198,35.0415038 C25.0076,34.7863682 26.0241572,35.0575781 26.7218643,35.7529711 L36.4785806,45.4870817 L54.0391046,27.9672445 C55.1165855,26.8933382 56.8626513,26.8942123 57.9390515,27.9691968 C59.0154518,29.0441813 59.0145757,30.7862015 57.9370947,31.8601078 L57.9370947,31.8601078 Z" id="路径"></path>
                </g>
            </g>
        </g>
    </g>
</svg>