<svg width="20" height="20" viewBox="0 0 20 20" fill="none" xmlns="http://www.w3.org/2000/svg">
<g clip-path="url(#clip0_571_5646)">
<path d="M12.7785 15.157C13.054 14.8433 13.2816 14.5853 13.508 14.3266C14.5441 13.1404 15.5744 11.9498 16.6215 10.774C16.7566 10.6226 16.9642 10.4965 17.1608 10.448C17.4887 10.3672 17.7972 10.5476 17.9512 10.8335C18.109 11.1258 18.0631 11.4666 17.8154 11.7512C16.7547 12.9691 15.6914 14.1843 14.6288 15.4008C13.9646 16.1608 13.2991 16.9194 12.6368 17.6813C12.4506 17.8954 12.2307 18.0182 11.939 17.9988C11.5703 17.9736 11.2683 17.6884 11.2327 17.321C11.2237 17.2247 11.2262 17.1277 11.2262 17.0307C11.2262 12.3352 11.2262 7.63917 11.2262 2.94374C11.2262 2.8228 11.2217 2.69927 11.2469 2.58286C11.3194 2.25301 11.6259 2.01242 11.9661 2.00143C12.3283 1.98979 12.6452 2.20451 12.7345 2.54405C12.7707 2.68181 12.7765 2.83056 12.7765 2.97479C12.7785 6.91998 12.7785 10.8652 12.7785 14.811C12.7785 14.9028 12.7785 14.9953 12.7785 15.157Z" fill="#00AF7C"/>
<path d="M7.26418 4.8472C6.98543 5.16476 6.75324 5.42799 6.52235 5.69251C5.49143 6.87218 4.46633 8.05639 3.42441 9.22571C3.28924 9.3777 3.08163 9.50123 2.88502 9.55362C2.57134 9.63705 2.26414 9.46372 2.10633 9.19014C1.94141 8.90363 1.96792 8.55438 2.19623 8.28986C2.77636 7.61724 3.36297 6.95109 3.94698 6.2817C5.08333 4.98043 6.22096 3.67981 7.35472 2.37596C7.5481 2.15348 7.76023 1.98662 8.0765 2.00085C8.46713 2.01831 8.78081 2.31193 8.81185 2.70128C8.81703 2.76531 8.81638 2.82998 8.81638 2.89466C8.81638 7.63794 8.81638 12.3819 8.81638 17.1251C8.81638 17.6367 8.54216 17.9698 8.1056 17.9976C7.69556 18.0235 7.36313 17.7712 7.28552 17.367C7.26482 17.2571 7.26482 17.1426 7.26482 17.0301C7.26353 13.0849 7.26418 9.14034 7.26418 5.19516L7.26418 4.8472Z" fill="#00AF7C"/>
</g>
<defs>
<clipPath id="clip0_571_5646">
<rect width="16" height="16.042" fill="white" transform="translate(18.043 2) rotate(90)"/>
</clipPath>
</defs>
</svg>
