<?xml version="1.0" encoding="UTF-8"?>
<svg width="14px" height="14px" viewBox="0 0 14 14" version="1.1" xmlns="http://www.w3.org/2000/svg" xmlns:xlink="http://www.w3.org/1999/xlink">
    <title>说明</title>
    <g id="Page-1" stroke="none" stroke-width="1" fill="none" fill-rule="evenodd" opacity="0.59759">
        <g id="0914-flash-pool" transform="translate(-1354.000000, -400.000000)" fill="#FFFFFF" fill-rule="nonzero">
            <g id="1" transform="translate(320.000000, 300.000000)">
                <g id="说明" transform="translate(1034.000000, 100.000000)">
                    <path d="M7,0 C3.13384616,0 0,3.13384616 0,7 C0,10.8661538 3.13384616,14 7,14 C10.8661538,14 14,10.8661538 14,7 C14,3.13384616 10.8661538,0 7,0 Z M8.09794461,9.57544 C7.56969231,10.3686154 7.03230769,10.9797477 6.12820923,10.9797477 C5.51113231,10.8790769 5.25753845,10.4369785 5.39107692,9.98630769 L6.55415384,6.13415384 C6.58267076,6.03990153 6.53528615,5.93923076 6.44913231,5.90851692 C6.36353847,5.87836308 6.19553847,5.98984615 6.05015384,6.14923077 L5.34692308,6.99513231 C5.32805539,6.85297847 5.34476924,6.61820923 5.34476923,6.52344 C5.87302153,5.73030769 6.74102153,5.10461539 7.32953847,5.10461539 C7.88897847,5.16169231 8.15390155,5.60917539 8.05646153,6.10076923 L6.88528616,9.97179077 C6.86969232,10.0589785 6.916,10.1478462 6.99513231,10.1758462 C7.08128615,10.206 7.26220923,10.09456 7.40815384,9.93513231 L8.11086769,9.08974769 C8.12969231,9.23190153 8.09794461,9.48071385 8.09794461,9.57544 L8.09794461,9.57544 Z M7.94123077,4.54405539 C7.49646155,4.54405539 7.13569231,4.21994461 7.13569231,3.74282461 C7.13569231,3.26574769 7.49646153,2.94215384 7.94123077,2.94215384 C8.38600001,2.94215384 8.74676923,3.26630768 8.74676923,3.74286769 C8.74676923,4.22046153 8.386,4.54409847 7.94123077,4.54409847 L7.94123077,4.54405539 Z" id="形状"></path>
                </g>
            </g>
        </g>
    </g>
</svg>