<svg width="104" height="104" viewBox="0 0 104 104" fill="none" xmlns="http://www.w3.org/2000/svg">
<path d="M73.653 29.1118C76.5004 23.685 79.5513 16.4492 75.6869 10.0174C71.8225 3.58564 65.9241 2.17875 62.8733 2.17875C59.8224 2.17875 54.3308 1.77664 42.941 2.17863C33.8291 2.50022 23.551 7.53848 19.551 10.0174C21.6527 10.6204 25.9782 12.3892 26.4663 14.6404C27.0765 17.4543 25.4494 19.8662 26.4663 22.8811C27.2799 25.2931 28.9429 29.3643 30.1633 31.5082M38.2986 60.6066C33.9791 53.4072 30.9745 42.88 30.1641 30.8707H30.1633C34.1336 28.0364 43.0006 22.0775 46.7062 20.9162C51.3383 19.4644 54.2057 21.1235 57.9555 19.4644C60.9553 18.1372 65.0873 15.0402 66.7784 13.6576C69.1312 15.8697 73.8367 22.4093 73.8367 30.8707C73.0263 42.88 70.022 53.4072 65.7027 60.6066M88.5306 74.1311C95.9696 74.1311 102 80.1863 102 87.6557V102H2V87.6557C2 80.1863 8.03045 74.1311 15.4694 74.1311M42 74.9508L36.6239 80.349C35.9863 80.9892 35.9863 82.0272 36.6239 82.6674L42 88.0656M62.4082 88.0656L67.7843 82.6674C68.4219 82.0272 68.4219 80.9892 67.7843 80.349L62.4082 74.9508M57.6394 75.0343L47.8138 88.1267M30.5235 35.2253C29.6219 35.0868 27.8186 35.433 26.57 36.6793C25.3214 37.9256 24.6974 40.8336 25.9459 42.4954C26.9447 43.8248 31.009 46.6497 33.0204 48.3115M73.4765 35.2253C74.3782 35.0868 76.1814 35.433 77.43 36.6793C78.6786 37.9256 79.3026 40.8336 78.0541 42.4954C77.0553 43.8248 72.991 46.6497 70.9796 48.3115M30.5714 35.1967H38.643M38.643 35.1967H48.5306V42.5738C48.5306 43.9318 47.4342 45.0328 46.0816 45.0328H41.092C39.7394 45.0328 38.643 43.9318 38.643 42.5738V35.1967ZM73.4286 35.1967H65.357M65.357 35.1967H55.4694V42.5738C55.4694 43.9318 56.5658 45.0328 57.9184 45.0328H62.9081C64.2606 45.0328 65.357 43.9318 65.357 42.5738V35.1967ZM48.5306 38.4754H55.4694M15.4694 102V67.1639C15.4694 63.5424 18.3932 60.6066 22 60.6066H82C85.6068 60.6066 88.5306 63.5424 88.5306 67.1639V102H15.4694Z" stroke="#00D67C" stroke-width="4" stroke-linejoin="round"/>
</svg>
