<?xml version="1.0" encoding="UTF-8"?>
<svg width="27px" height="24px" viewBox="0 0 27 24" version="1.1" xmlns="http://www.w3.org/2000/svg" xmlns:xlink="http://www.w3.org/1999/xlink">
    <title>编组</title>
    <g id="Page-1" stroke="none" stroke-width="1" fill="none" fill-rule="evenodd">
        <g id="6-Cross-Chain-Swap-选择钱包" transform="translate(-1108.000000, -485.000000)" fill-rule="nonzero">
            <g id="编组-2" transform="translate(735.000000, 351.000000)">
                <g id="1" transform="translate(30.000000, 116.000000)">
                    <g id="编组" transform="translate(343.000000, 18.000000)">
                        <polygon id="路径" fill="#F6851B" points="15.007 7.22483333 11.231 7.2307 9.75766667 3.6723"></polygon>
                        <polygon id="路径" fill="#F6851B" points="9.75766667 3.6723 16.5310667 3.65816667 15.007 7.22483333"></polygon>
                        <polygon id="路径" fill="#E4761B" points="11.231 7.2307 1.72713333 0.0825666666 9.75766667 3.6723"></polygon>
                        <polygon id="路径" fill="#E2761B" points="24.5249333 0.0221666666 15.0069333 7.22483333 16.5310667 3.65816667"></polygon>
                        <path d="M5.58253333,10.2743667 L1.27613333,9.1525 L1.045,8.14816667 L5.58253333,10.2743667 Z M1.4234,10.3590333 L1.27606667,9.1525 L5.58253333,10.2743667 L1.4234,10.3590333 Z M2.02586667,12.1017 L5.58253333,10.2743667 L7.43186667,10.6028333 L2.02586667,12.1017 Z" id="形状" fill="#763D16"></path>
                        <path d="M1.4234,10.3590333 L5.58253333,10.2743667 L2.02586667,12.1017 L1.4234,10.3590333 Z M20.7125333,10.2584333 L25.2558667,8.11456667 L25.0228,9.12323333 L20.7125333,10.2584333 Z M24.8734,10.3345667 L20.7125333,10.2584333 L25.0228,9.1233 L24.8734,10.3345667 Z M24.2673333,12.0845667 L18.8386667,10.5914333 L20.7125333,10.2584333 L24.2673333,12.0845667 Z" id="形状" fill="#763D16"></path>
                        <path d="M24.8734,10.3345667 L24.2673333,12.0845667 L20.7125333,10.2584333 L24.8734,10.3345667 Z M5.76586667,4.81283333 L5.58253333,10.2743667 L1.045,8.14816667 L5.76586667,4.81283333 Z M7.43193333,10.6028333 L5.58253333,10.2743667 L5.76586667,4.81283333 L7.43193333,10.6028333 Z" id="形状" fill="#763D16"></path>
                        <path d="M7.53966667,22.0852611 L8.951,20.9829653 L9.19786667,20.8971667 L7.53966667,22.0852611 Z M17.1012667,20.9041526 L17.3192,20.9904432 L18.6958667,22.0971667 L17.1012667,20.9041526 Z" id="形状" fill="#E2761B"></path>
                        <polygon id="路径" fill="#763D16" points="25.2558667 8.11456667 20.7125333 10.2584333 20.4925333 4.7847"></polygon>
                        <polygon id="路径" fill="#763D16" points="20.4925333 4.7847 20.7125333 10.2584333 18.8386 10.5914333"></polygon>
                        <polygon id="路径" fill="#E4761B" points="7.53966667 21.7021667 1.50013333 23.9331667 0.0203333334 17.8915"></polygon>
                        <polygon id="路径" fill="#763D16" points="0.484066667 8.51136667 1.04506667 8.14816667 1.27613333 9.1525"></polygon>
                        <polygon id="路径" fill="#E4761B" points="26.3041333 17.8949667 24.8228 23.9583 18.6958667 21.7103"></polygon>
                        <path d="M5.76586667,4.81283333 L11.231,7.2307 L7.43193333,10.6028333 L5.76586667,4.81283333 Z M1.4234,10.3590333 L0.639666667,9.5935 L1.27606667,9.15243333 L1.4234,10.3590333 Z M18.8386,10.5914333 L15.007,7.22483333 L20.4925333,4.78463333 L18.8386,10.5914333 Z M25.8174,8.4777 L25.0228,9.1233 L25.2558667,8.11463333 L25.8174,8.4777 Z M1.045,8.14816667 L0.346333333,3.95456667 L5.76586667,4.81283333 L1.045,8.14816667 Z M2.02586667,12.1017 L0.902666667,10.6947 L1.42333333,10.3590333 L2.02586667,12.1017 Z" id="形状" fill="#763D16"></path>
                        <path d="M24.8734,10.3345667 L25.0228,9.12323333 L25.6596667,9.5645 L24.8734,10.3345667 Z M20.4925333,4.7847 L25.9406,3.9023 L25.2558667,8.11456667 L20.4925333,4.7847 Z" id="形状" fill="#763D16"></path>
                        <polygon id="路径" fill="#F6851B" points="5.74226667 12.4885667 0.0203333334 17.8914333 2.0258 12.1017"></polygon>
                        <polygon id="路径" fill="#763D16" points="24.2673333 12.0845667 24.8733333 10.3345667 25.3945333 10.6704333"></polygon>
                        <polygon id="路径" fill="#F6851B" points="4.8414 17.1907667 0.0204 17.8914333 5.74226667 12.4885667"></polygon>
                        <polygon id="路径" fill="#E4761B" points="0.0204 17.8915 4.8414 17.1907667 7.53973333 21.7021"></polygon>
                        <path d="M20.4782667,12.4781 L24.2673333,12.0845667 L26.3041333,17.8949667 L20.4782667,12.4781 Z M20.4782667,12.4781 L26.3041333,17.8949667 L21.3798667,17.1911667 L20.4782667,12.4781 Z" id="形状" fill="#F6851B"></path>
                        <polygon id="路径" fill="#E4761B" points="18.6958667 21.7102333 21.3798667 17.1911667 26.3041333 17.8949667"></polygon>
                        <path d="M2.02586667,12.1017 L7.43186667,10.6028333 L5.74226667,12.4885667 L2.02586667,12.1017 Z M24.2673333,12.0845667 L20.4782667,12.4781 L18.8386,10.5914333 L24.2673333,12.0845667 Z" id="形状" fill="#F6851B"></path>
                        <path d="M7.43193333,10.6028333 L11.231,7.2307 L11.5166,12.5184333 L7.43193333,10.6028333 Z M11.5166,12.5184333 L5.74226667,12.4885667 L7.43193333,10.6028333 L11.5166,12.5184333 Z M18.8386,10.5914333 L20.4782667,12.4781 L14.6655333,12.5162333 L18.8386,10.5914333 Z M14.6655333,12.5161667 L15.007,7.22483333 L18.8386,10.5914333 L14.6655333,12.5161667 Z" id="形状" fill="#E4761B"></path>
                        <path d="M1.72713333,0.0825666666 L11.231,7.2307 L5.76586667,4.81283333 L1.72713333,0.0825666666 Z M5.76586667,4.81283333 L0.3464,3.95456667 L1.72706667,0.0825666666 L5.76586667,4.81283333 Z M24.5249333,0.0221666666 L25.9406,3.9023 L20.4925333,4.7847 L24.5249333,0.0221666666 Z M20.4925333,4.7847 L15.007,7.2249 L24.5249333,0.0221666666 L20.4925333,4.7847 Z" id="形状" fill="#763D16"></path>
                        <polygon id="路径" fill="#F6851B" points="11.231 7.2307 15.007 7.2249 14.6655333 12.5162333"></polygon>
                        <polygon id="路径" fill="#F6851B" points="14.6655333 12.5161667 11.5166 12.5184333 11.231 7.2307"></polygon>
                        <path d="M7.53966667,21.7021667 L4.8414,17.1907667 L8.0836,17.0359667 L7.53966667,21.7021667 Z M18.6958667,21.7102333 L18.104,17.0359667 L21.3798667,17.1911667 L18.6958667,21.7102333 Z M8.03673333,14.7131667 L5.74226667,12.4885 L11.5166,12.5185 L8.03673333,14.7131667 Z" id="形状" fill="#CD6116"></path>
                        <polygon id="路径" fill="#F6851B" points="5.74226667 12.4885667 8.0836 17.0359667 4.8414 17.1907667"></polygon>
                        <polygon id="路径" fill="#E4751F" points="5.74226667 12.4885667 8.03673333 14.7132333 8.0836 17.0359667"></polygon>
                        <polygon id="路径" fill="#CD6116" points="14.6655333 12.5161667 20.4782 12.4781 18.1588667 14.7095"></polygon>
                        <polygon id="路径" fill="#F6851B" points="21.3798667 17.1911667 18.104 17.0359667 20.4783333 12.4781667"></polygon>
                        <polygon id="路径" fill="#E4751F" points="20.4782667 12.4781 18.104 17.0359667 18.1588667 14.7095"></polygon>
                        <path d="M8.67733333,22.8887707 L7.53973333,21.7021 L10.8060667,22.1238352 L8.67733333,22.8887707 Z M15.2803333,22.1299595 L18.6958667,21.7168703 L17.5226,22.9021 L15.2803333,22.1299595 Z" id="形状" fill="#C0AD9E"></path>
                        <polygon id="路径" fill="#CD6116" points="11.5166 12.5184333 10.1155333 13.7439 8.03673333 14.7132333"></polygon>
                        <polygon id="路径" fill="#D7C1B3" points="10.7717333 20.6432333 10.8060667 21.9362333 7.53973333 21.7021"></polygon>
                        <polygon id="路径" fill="#CD6116" points="18.1588667 14.7095 16.0722 13.7408333 14.6655333 12.5161667"></polygon>
                        <polygon id="路径" fill="#E4761B" points="11.0636667 18.2233667 7.53966667 21.7021 8.08366667 17.0359667"></polygon>
                        <path d="M7.53966667,21.7021667 L11.0636667,18.2233667 L10.7717333,20.6432333 L7.53966667,21.7021667 Z M15.2866,20.6457667 L18.6958667,21.7102333 L15.2804,21.9396333 L15.2866,20.6457667 Z" id="形状" fill="#D7C1B3"></path>
                        <polygon id="路径" fill="#E4761B" points="14.9910667 18.2241 18.104 17.0359667 18.6958667 21.7102333"></polygon>
                        <polygon id="路径" fill="#D7C1B3" points="18.6958667 21.7102333 15.2866 20.6457667 14.9910667 18.2241"></polygon>
                        <polygon id="路径" fill="#F6851B" points="8.08366667 17.0359667 8.03673333 14.7131667 10.9589333 15.4203"></polygon>
                        <polygon id="路径" fill="#233447" points="10.9589333 15.4203 8.03673333 14.7131667 10.1155333 13.7439"></polygon>
                        <polygon id="路径" fill="#F6851B" points="18.104 17.0359667 15.2133333 15.4193 18.1588667 14.7095"></polygon>
                        <polygon id="路径" fill="#233447" points="15.2133333 15.4192333 16.0722667 13.7408333 18.1588667 14.7095"></polygon>
                        <path d="M10.1155333,13.7439 L11.5166,12.5184333 L10.9589333,15.4203 L10.1155333,13.7439 Z M16.0722667,13.7408333 L15.2133333,15.4192333 L14.6655333,12.5162333 L16.0722667,13.7408333 Z" id="形状" fill="#CD6116"></path>
                        <polygon id="路径" fill="#F6851B" points="11.6298 14.1858333 11.5166 12.5185 14.6655333 12.5162333"></polygon>
                        <polygon id="路径" fill="#E4751F" points="10.9589333 15.4203 11.5166 12.5184333 11.6298 14.1858333"></polygon>
                        <polygon id="路径" fill="#F6851B" points="14.6655333 12.5161667 14.5301333 14.1845667 11.6298 14.1859"></polygon>
                        <polygon id="路径" fill="#E2761B" points="15.2133333 15.4192333 14.5301333 14.1845667 14.6655333 12.5162333"></polygon>
                        <path d="M10.8060667,21.9361667 L10.9965333,23.1315328 L8.67733333,22.4540991 L10.8060667,21.9361667 Z M17.5226,22.4631228 L15.0828667,23.1361667 L15.2804,21.940394 L17.5226,22.4631228 Z" id="形状" fill="#C0AD9E"></path>
                        <path d="M11.0636667,18.2233667 L8.08366667,17.0360333 L10.9589333,15.4203 L11.0636667,18.2233667 Z M15.2133333,15.4192333 L18.104,17.0359667 L14.9910667,18.2241 L15.2133333,15.4192333 Z" id="形状" fill="#F6851B"></path>
                        <polygon id="路径" fill="#E4751F" points="11.6298 14.1858333 11.5706 17.8706333 10.9589333 15.4203"></polygon>
                        <polygon id="路径" fill="#F6851B" points="10.9589333 15.4203 11.5706 17.8706333 11.0636 18.2233"></polygon>
                        <polygon id="路径" fill="#E4751F" points="14.5301333 14.1845667 15.2133333 15.4192333 14.4837333 17.8710333"></polygon>
                        <polygon id="路径" fill="#F6851B" points="14.9910667 18.2241 14.4837333 17.8710333 15.2133333 15.4192333"></polygon>
                        <path d="M11.6298,14.1858333 L14.5301333,14.1845667 L14.4837333,17.8710333 L11.6298,14.1858333 Z M14.4836667,17.8710333 L11.5706,17.8706333 L11.6298,14.1858333 L14.4836667,17.8710333 Z" id="形状" fill="#F6851B"></path>
                        <path d="M10.9965333,22.9164333 L10.8060667,21.9362333 L10.7717333,20.6432333 L10.9965333,22.9164333 Z M15.2866,20.6457667 L15.2804,21.9396333 L15.0828667,22.9202333 L15.2866,20.6457667 Z" id="形状" fill="#C0AD9E"></path>
                        <path d="M10.7717333,20.6432333 L11.0276,20.2669667 L10.9965333,22.9164333 L10.7717333,20.6432333 Z M10.9965333,22.9164333 L11.0276,20.2669667 L15.0171333,20.2689667 L10.9965333,22.9164333 Z" id="形状" fill="#C0AD9E"></path>
                        <path d="M15.0171333,20.2689667 L15.0828667,22.9202333 L10.9965333,22.9164333 L15.0171333,20.2689667 Z M15.0828667,22.9201667 L15.0171333,20.2689667 L15.2866,20.6457667 L15.0828667,22.9201667 Z" id="形状" fill="#C0AD9E"></path>
                        <path d="M11.0276667,20.2669667 L10.7717333,20.6432333 L11.0636,18.2233667 L11.0276667,20.2669667 Z M14.9910667,18.2241 L15.2866,20.6457667 L15.0171333,20.2689667 L14.9910667,18.2241 Z M11.529,18.0906333 L11.5706,17.8706333 L14.4837333,17.8710333 L11.529,18.0906333 Z" id="形状" fill="#161616"></path>
                        <polygon id="路径" fill="#161616" points="11.0636667 18.2233667 11.5706 17.8706333 11.5290667 18.0906333"></polygon>
                        <path d="M14.4836667,17.8710333 L14.4982,18.0911667 L11.5290667,18.0906333 L14.4836667,17.8710333 Z M14.4982,18.0911667 L14.4837333,17.8710333 L14.9910667,18.2241 L14.4982,18.0911667 Z M11.0636667,18.2233667 L11.2043333,18.4565667 L11.0276667,20.2669667 L11.0636667,18.2233667 Z" id="形状" fill="#161616"></path>
                        <path d="M11.529,18.0906333 L11.2043333,18.4565667 L11.0636667,18.2233667 L11.529,18.0906333 Z M15.0171333,20.2689667 L14.8230667,18.4573667 L14.9910667,18.2240333 L15.0171333,20.2689667 Z" id="形状" fill="#161616"></path>
                        <path d="M14.9910667,18.2241 L14.8230667,18.4573667 L14.4982,18.0911667 L14.9910667,18.2241 Z M15.0171333,20.2689667 L11.0276,20.2669667 L11.2042667,18.4565667 L15.0171333,20.2689667 Z M11.2043333,18.4565667 L14.823,18.4573667 L15.0171333,20.2689667 L11.2043333,18.4565667 Z M11.2043333,18.4565667 L11.529,18.0906333 L14.4982,18.0911667 L11.2043333,18.4565667 Z" id="形状" fill="#161616"></path>
                        <polygon id="路径" fill="#161616" points="14.4982 18.0911667 14.8230667 18.4573667 11.2043333 18.4565667"></polygon>
                    </g>
                </g>
            </g>
        </g>
    </g>
</svg>