<?xml version="1.0" encoding="UTF-8"?>
<svg width="116px" height="28px" viewBox="0 0 116 28" version="1.1" xmlns="http://www.w3.org/2000/svg" xmlns:xlink="http://www.w3.org/1999/xlink">
    <title>logo_R02_WING_black 3</title>
    <g id="Page-1" stroke="none" stroke-width="1" fill="none" fill-rule="evenodd">
        <g id="pools-overview" transform="translate(-320.000000, -29.000000)" fill="#FFFFFF" fill-rule="nonzero">
            <g id="logo_R02_WING_black-3" transform="translate(320.000000, 29.000000)">
                <path d="M26.9016107,9.40912752 L23.3255034,15.6104698 L19.7484564,21.8118121 L16.167651,28 L12.590604,21.8033557 L16.1667114,15.6020134 L19.7475168,9.40536913 L14.3157047,0 L21.4679195,0 L23.3255034,3.21154362 L26.9016107,9.40912752 Z M7.15785235,4.4408921e-15 L6.03961325e-14,4.4408921e-15 L9.00979866,15.6057718 L12.590604,9.40912752 L7.15785235,4.4408921e-15 Z M37.5547651,3.21154362 L35.6981208,0 L28.5449664,0 L33.9786577,9.40912752 L30.3969128,15.6104698 L26.8208054,21.8118121 L30.3969128,28 L33.9786577,21.8033557 L37.5547651,15.6020134 L41.1308725,9.40536913 L37.5547651,3.21154362 Z" id="Shape"></path>
                <polygon id="Path" points="75.0080537 3.42483221 78.6020134 3.42483221 72.505906 20.5442953 69.4710067 20.5442953 65.5124832 9.20805369 61.5060403 20.5442953 58.4711409 20.5442953 52.4004027 3.42483221 56.2367785 3.42483221 60.146443 15.2496644 64.2994631 3.42483221 66.9453691 3.42483221 70.9518121 15.3727517"></polygon>
                <path d="M81.0787919,2.89114094 L85.0119463,2.89114094 L85.0119463,6.31409396 L81.0787919,6.31409396 L81.0787919,2.89114094 Z M81.1990604,20.5442953 L81.1990604,8.62174497 L84.8634899,8.62174497 L84.8634899,20.5442953 L81.1990604,20.5442953 Z" id="Shape"></path>
                <path d="M98.9696644,9.58389262 C99.6662192,10.418255 100.014183,11.6770022 100.013558,13.3601342 L100.013558,20.5480537 L96.3491275,20.5480537 L96.3491275,13.5302013 C96.3491275,12.7202685 96.1994183,12.1295749 95.9,11.7581208 C95.6002685,11.3822819 95.1351678,11.1990604 94.5037584,11.1990604 C93.7426846,11.1990604 93.1316331,11.4421029 92.670604,11.9281879 C92.2095749,12.4142729 91.9787472,13.0616555 91.9781208,13.8703356 L91.9781208,20.5480537 L88.3136913,20.5480537 L88.3136913,8.62174497 L91.8841611,8.62174497 L91.8841611,10.3214765 C92.285833,9.68976121 92.8502606,9.17791394 93.5181208,8.83973154 C94.2239031,8.4918381 95.0023618,8.31695061 95.7891275,8.3295302 C97.2123043,8.3295302 98.2724832,8.74765101 98.9696644,9.58389262 Z" id="Path"></path>
                <path d="M115.513154,8.62174497 L115.513154,19.261745 C115.513154,21.1891723 114.96255,22.6464877 113.861342,23.6336913 C112.760134,24.6208949 111.133378,25.1141834 108.981074,25.1136187 C107.944546,25.1168673 106.911903,24.9867605 105.908591,24.726443 C104.996636,24.4942458 104.124911,24.1258534 103.322819,23.6336913 L104.295302,21.1033557 C105.831857,21.9427293 107.361521,22.3624161 108.884295,22.3624161 C110.88877,22.3624161 111.891007,21.4149888 111.891007,19.5201342 L111.891007,18.204698 C111.53842,18.8328155 111.005586,19.3407753 110.361342,19.662953 C109.655706,20.0249021 108.872028,20.2081581 108.07906,20.1966443 C107.042371,20.1966443 106.123445,19.9536018 105.322282,19.4675168 C104.510411,18.9698676 103.858245,18.2498765 103.443087,17.3928859 C102.988949,16.4940045 102.762192,15.4538702 102.762817,14.2724832 C102.763445,13.0910962 102.990201,12.050962 103.443087,11.1520805 C103.859523,10.29225 104.511092,9.56803108 105.322282,9.0633557 C106.123445,8.56912752 107.042371,8.32201342 108.07906,8.32201342 C108.858796,8.31137337 109.629443,8.49033114 110.324698,8.84348993 C110.967837,9.1659445 111.503729,9.66789514 111.867517,10.2885906 L111.867517,8.62174497 L115.513154,8.62174497 Z M111.154362,16.5857718 C111.631678,16.0361074 111.871275,15.2656376 111.871275,14.28 C111.871275,13.2943624 111.631678,12.5191946 111.154362,11.9591946 C110.677047,11.3991946 110.008054,11.1220134 109.150201,11.1220134 C108.292349,11.1220134 107.621477,11.4038926 107.134765,11.9591946 C106.648054,12.5144966 106.406577,13.2915436 106.406577,14.28 C106.406577,15.2496644 106.649306,16.0141834 107.134765,16.573557 C107.620224,17.1329306 108.292036,17.4123043 109.150201,17.4116789 C110.00774,17.4116789 110.675794,17.1363758 111.154362,16.5857718 Z" id="Shape"></path>
            </g>
        </g>
    </g>
</svg>